<svg version="1.1" viewBox="0.0 0.0 402.0 249.0" fill="none" stroke="none" stroke-linecap="square" stroke-miterlimit="10" width="402" height="249" xmlns:xlink="http://www.w3.org/1999/xlink" xmlns="http://www.w3.org/2000/svg"><path fill="#ffffff" d="M0 0L402.0 0L402.0 249.0L0 249.0L0 0Z" fill-rule="nonzero"/><path stroke="#333333" stroke-width="1.0" stroke-linecap="butt" d="M71.5 216.5L389.5 216.5" fill-rule="nonzero"/><path stroke="#cccccc" stroke-width="1.0" stroke-linecap="butt" d="M71.5 183.5L389.5 183.5" fill-rule="nonzero"/><path stroke="#cccccc" stroke-width="1.0" stroke-linecap="butt" d="M71.5 150.5L389.5 150.5" fill-rule="nonzero"/><path stroke="#cccccc" stroke-width="1.0" stroke-linecap="butt" d="M71.5 117.5L389.5 117.5" fill-rule="nonzero"/><path stroke="#cccccc" stroke-width="1.0" stroke-linecap="butt" d="M71.5 84.5L389.5 84.5" fill-rule="nonzero"/><path stroke="#cccccc" stroke-width="1.0" stroke-linecap="butt" d="M71.5 51.5L389.5 51.5" fill-rule="nonzero"/><clipPath id="id_0"><path d="M71.45 51.75L389.55 51.75L389.55 216.55L71.45 216.55L71.45 51.75Z" clip-rule="nonzero"/></clipPath><path stroke="#000000" stroke-width="2.0" stroke-linecap="butt" stroke-opacity="0.0" clip-path="url(#id_0)" d="M167.0 217.0L105.0 217.0L105.0 154.0C105.0 152.89543 105.89543 152.0 107.0 152.0L165.0 152.0C166.10457 152.0 167.0 152.89543 167.0 154.0Z" fill-rule="nonzero"/><path fill="#34a853" clip-path="url(#id_0)" d="M167.0 217.0L105.0 217.0L105.0 154.0C105.0 152.89543 105.89543 152.0 107.0 152.0L165.0 152.0C166.10457 152.0 167.0 152.89543 167.0 154.0Z" fill-rule="nonzero"/><path stroke="#000000" stroke-width="2.0" stroke-linecap="butt" stroke-opacity="0.0" clip-path="url(#id_0)" d="M262.0 217.0L200.0 217.0L200.0 216.5C200.0 216.22386 200.22386 216.0 200.5 216.0L261.5 216.0C261.77615 216.0 262.0 216.22386 262.0 216.5Z" fill-rule="nonzero"/><path fill="#0000ff" clip-path="url(#id_0)" d="M262.0 217.0L200.0 217.0L200.0 216.5C200.0 216.22386 200.22386 216.0 200.5 216.0L261.5 216.0C261.77615 216.0 262.0 216.22386 262.0 216.5Z" fill-rule="nonzero"/><path stroke="#000000" stroke-width="2.0" stroke-linecap="butt" stroke-opacity="0.0" clip-path="url(#id_0)" d="M356.0 217.0L294.0 217.0L294.0 79.0C294.0 77.89543 294.89542 77.0 296.0 77.0L354.0 77.0C355.10458 77.0 356.0 77.89543 356.0 79.0Z" fill-rule="nonzero"/><path fill="#ff9900" clip-path="url(#id_0)" d="M356.0 217.0L294.0 217.0L294.0 79.0C294.0 77.89543 294.89542 77.0 296.0 77.0L354.0 77.0C355.10458 77.0 356.0 77.89543 356.0 79.0Z" fill-rule="nonzero"/><path stroke="#34a853" stroke-width="3.0" stroke-linejoin="round" stroke-linecap="round" d="M128.6875 168.4188L127.0 168.4188L127.0 161.88754L124.984375 162.51254L124.984375 161.13754L128.51562 159.87192L128.6875 159.87192L128.6875 168.4188ZM135.54688 165.01254Q134.875 165.65317 134.0 165.65317Q132.85938 165.65317 132.17188 164.88754Q131.5 164.1063 131.5 162.7938Q131.5 161.95004 131.85938 161.24692Q132.23438 160.5438 132.89062 160.15317Q133.54688 159.76254 134.375 159.76254Q135.21875 159.76254 135.875 160.18442Q136.53125 160.6063 136.89062 161.40317Q137.25 162.20004 137.26562 163.21567L137.26562 163.84067Q137.26562 165.9813 136.20312 167.20004Q135.14062 168.4188 133.1875 168.49692L132.78125 168.49692L132.78125 167.09067L133.15625 167.07504Q135.35938 166.9813 135.54688 165.01254ZM134.40625 164.3563Q134.82812 164.3563 135.10938 164.15317Q135.40625 163.93442 135.5625 163.63754L135.5625 162.95004Q135.5625 162.09067 135.23438 161.62192Q134.90625 161.13754 134.35938 161.13754Q133.84375 161.13754 133.51562 161.6063Q133.1875 162.05942 133.1875 162.76254Q133.1875 163.46567 133.5 163.9188Q133.82812 164.3563 134.40625 164.3563ZM139.09375 170.55942L138.20312 170.09067L138.42188 169.71567Q138.8125 168.99692 138.82812 168.2938L138.82812 166.9813L140.25 166.9813L140.25 168.15317Q140.23438 168.7938 139.90625 169.45004Q139.59375 170.12192 139.09375 170.55942ZM147.375 160.84067L144.07812 168.4188L142.29688 168.4188L145.59375 161.26254L141.35938 161.26254L141.35938 159.88754L147.375 159.88754L147.375 160.84067Z" fill-rule="nonzero"/><path fill="#ffffff" d="M128.6875 168.4188L127.0 168.4188L127.0 161.88754L124.984375 162.51254L124.984375 161.13754L128.51562 159.87192L128.6875 159.87192L128.6875 168.4188ZM135.54688 165.01254Q134.875 165.65317 134.0 165.65317Q132.85938 165.65317 132.17188 164.88754Q131.5 164.1063 131.5 162.7938Q131.5 161.95004 131.85938 161.24692Q132.23438 160.5438 132.89062 160.15317Q133.54688 159.76254 134.375 159.76254Q135.21875 159.76254 135.875 160.18442Q136.53125 160.6063 136.89062 161.40317Q137.25 162.20004 137.26562 163.21567L137.26562 163.84067Q137.26562 165.9813 136.20312 167.20004Q135.14062 168.4188 133.1875 168.49692L132.78125 168.49692L132.78125 167.09067L133.15625 167.07504Q135.35938 166.9813 135.54688 165.01254ZM134.40625 164.3563Q134.82812 164.3563 135.10938 164.15317Q135.40625 163.93442 135.5625 163.63754L135.5625 162.95004Q135.5625 162.09067 135.23438 161.62192Q134.90625 161.13754 134.35938 161.13754Q133.84375 161.13754 133.51562 161.6063Q133.1875 162.05942 133.1875 162.76254Q133.1875 163.46567 133.5 163.9188Q133.82812 164.3563 134.40625 164.3563ZM139.09375 170.55942L138.20312 170.09067L138.42188 169.71567Q138.8125 168.99692 138.82812 168.2938L138.82812 166.9813L140.25 166.9813L140.25 168.15317Q140.23438 168.7938 139.90625 169.45004Q139.59375 170.12192 139.09375 170.55942ZM147.375 160.84067L144.07812 168.4188L142.29688 168.4188L145.59375 161.26254L141.35938 161.26254L141.35938 159.88754L147.375 159.88754L147.375 160.84067Z" fill-rule="nonzero"/><path stroke="#ffffff" stroke-width="3.0" stroke-linejoin="round" stroke-linecap="round" d="M221.82812 197.43866Q221.82812 199.20428 221.09375 200.15741Q220.35938 201.09491 218.95312 201.09491Q217.54688 201.09491 216.8125 200.17303Q216.07812 199.25116 216.0625 197.53241L216.0625 195.95428Q216.0625 194.17303 216.79688 193.25116Q217.54688 192.31366 218.9375 192.31366Q220.32812 192.31366 221.0625 193.23553Q221.8125 194.15741 221.82812 195.87616L221.82812 197.43866ZM220.125 195.71991Q220.125 194.65741 219.82812 194.17303Q219.54688 193.68866 218.9375 193.68866Q218.34375 193.68866 218.04688 194.15741Q217.76562 194.61053 217.75 195.59491L217.75 197.65741Q217.75 198.70428 218.03125 199.21991Q218.3125 199.71991 218.95312 199.71991Q219.5625 199.71991 219.84375 199.23553Q220.125 198.75116 220.125 197.75116L220.125 195.71991ZM223.59375 203.11053L222.70312 202.64178L222.92188 202.26678Q223.3125 201.54803 223.32812 200.84491L223.32812 199.53241L224.75 199.53241L224.75 200.70428Q224.73438 201.34491 224.40625 202.00116Q224.09375 202.67303 223.59375 203.11053ZM230.1875 200.96991L228.5 200.96991L228.5 194.43866L226.48438 195.06366L226.48438 193.68866L230.01562 192.42303L230.1875 192.42303L230.1875 200.96991ZM238.875 193.39178L235.57812 200.96991L233.79688 200.96991L237.09375 193.81366L232.85938 193.81366L232.85938 192.43866L238.875 192.43866L238.875 193.39178ZM244.67188 192.34491L244.67188 193.75116L244.51562 193.75116Q243.35938 193.76678 242.65625 194.34491Q241.96875 194.92303 241.82812 195.95428Q242.5 195.26678 243.53125 195.26678Q244.65625 195.26678 245.3125 196.06366Q245.96875 196.86053 245.96875 198.15741Q245.96875 198.98553 245.60938 199.65741Q245.25 200.32928 244.57812 200.71991Q243.92188 201.09491 243.09375 201.09491Q241.75 201.09491 240.92188 200.15741Q240.09375 199.20428 240.09375 197.64178L240.09375 197.03241Q240.09375 195.64178 240.60938 194.57928Q241.14062 193.51678 242.10938 192.93866Q243.09375 192.36053 244.39062 192.34491L244.67188 192.34491ZM243.01562 196.62616Q242.60938 196.62616 242.26562 196.84491Q241.9375 197.04803 241.78125 197.40741L241.78125 197.92303Q241.78125 198.76678 242.10938 199.25116Q242.45312 199.71991 243.0625 199.71991Q243.60938 199.71991 243.9375 199.29803Q244.28125 198.86053 244.28125 198.17303Q244.28125 197.46991 243.9375 197.04803Q243.59375 196.62616 243.01562 196.62616Z" fill-rule="nonzero"/><path fill="#0000ff" d="M221.82812 197.43866Q221.82812 199.20428 221.09375 200.15741Q220.35938 201.09491 218.95312 201.09491Q217.54688 201.09491 216.8125 200.17303Q216.07812 199.25116 216.0625 197.53241L216.0625 195.95428Q216.0625 194.17303 216.79688 193.25116Q217.54688 192.31366 218.9375 192.31366Q220.32812 192.31366 221.0625 193.23553Q221.8125 194.15741 221.82812 195.87616L221.82812 197.43866ZM220.125 195.71991Q220.125 194.65741 219.82812 194.17303Q219.54688 193.68866 218.9375 193.68866Q218.34375 193.68866 218.04688 194.15741Q217.76562 194.61053 217.75 195.59491L217.75 197.65741Q217.75 198.70428 218.03125 199.21991Q218.3125 199.71991 218.95312 199.71991Q219.5625 199.71991 219.84375 199.23553Q220.125 198.75116 220.125 197.75116L220.125 195.71991ZM223.59375 203.11053L222.70312 202.64178L222.92188 202.26678Q223.3125 201.54803 223.32812 200.84491L223.32812 199.53241L224.75 199.53241L224.75 200.70428Q224.73438 201.34491 224.40625 202.00116Q224.09375 202.67303 223.59375 203.11053ZM230.1875 200.96991L228.5 200.96991L228.5 194.43866L226.48438 195.06366L226.48438 193.68866L230.01562 192.42303L230.1875 192.42303L230.1875 200.96991ZM238.875 193.39178L235.57812 200.96991L233.79688 200.96991L237.09375 193.81366L232.85938 193.81366L232.85938 192.43866L238.875 192.43866L238.875 193.39178ZM244.67188 192.34491L244.67188 193.75116L244.51562 193.75116Q243.35938 193.76678 242.65625 194.34491Q241.96875 194.92303 241.82812 195.95428Q242.5 195.26678 243.53125 195.26678Q244.65625 195.26678 245.3125 196.06366Q245.96875 196.86053 245.96875 198.15741Q245.96875 198.98553 245.60938 199.65741Q245.25 200.32928 244.57812 200.71991Q243.92188 201.09491 243.09375 201.09491Q241.75 201.09491 240.92188 200.15741Q240.09375 199.20428 240.09375 197.64178L240.09375 197.03241Q240.09375 195.64178 240.60938 194.57928Q241.14062 193.51678 242.10938 192.93866Q243.09375 192.36053 244.39062 192.34491L244.67188 192.34491ZM243.01562 196.62616Q242.60938 196.62616 242.26562 196.84491Q241.9375 197.04803 241.78125 197.40741L241.78125 197.92303Q241.78125 198.76678 242.10938 199.25116Q242.45312 199.71991 243.0625 199.71991Q243.60938 199.71991 243.9375 199.29803Q244.28125 198.86053 244.28125 198.17303Q244.28125 197.46991 243.9375 197.04803Q243.59375 196.62616 243.01562 196.62616Z" fill-rule="nonzero"/><path stroke="#ff9900" stroke-width="3.0" stroke-linejoin="round" stroke-linecap="round" d="M315.09375 90.31493L316.0625 90.31493L316.0625 91.68993L315.09375 91.68993L315.09375 93.53368L313.39062 93.53368L313.39062 91.68993L309.90625 91.68993L309.82812 90.62743L313.375 85.00243L315.09375 85.00243L315.09375 90.31493ZM311.51562 90.31493L313.39062 90.31493L313.39062 87.31493L313.28125 87.50243L311.51562 90.31493ZM322.92188 93.53368L317.07812 93.53368L317.07812 92.37743L319.84375 89.42431Q320.40625 88.81493 320.67188 88.34618Q320.95312 87.87743 320.95312 87.47118Q320.95312 86.89306 320.65625 86.58056Q320.375 86.25243 319.84375 86.25243Q319.26562 86.25243 318.9375 86.64306Q318.60938 87.03368 318.60938 87.68993L316.90625 87.68993Q316.90625 86.90868 317.28125 86.26806Q317.65625 85.61181 318.32812 85.25243Q319.01562 84.87743 319.875 84.87743Q321.1875 84.87743 321.92188 85.51806Q322.65625 86.14306 322.65625 87.29931Q322.65625 87.93993 322.32812 88.59618Q322.0 89.25243 321.20312 90.12743L319.26562 92.17431L322.92188 92.17431L322.92188 93.53368ZM324.59375 95.67431L323.70312 95.20556L323.92188 94.83056Q324.3125 94.11181 324.32812 93.40868L324.32812 92.09618L325.75 92.09618L325.75 93.26806Q325.73438 93.90868 325.40625 94.56493Q325.09375 95.23681 324.59375 95.67431ZM332.09375 90.31493L333.0625 90.31493L333.0625 91.68993L332.09375 91.68993L332.09375 93.53368L330.39062 93.53368L330.39062 91.68993L326.90625 91.68993L326.82812 90.62743L330.375 85.00243L332.09375 85.00243L332.09375 90.31493ZM328.51562 90.31493L330.39062 90.31493L330.39062 87.31493L330.28125 87.50243L328.51562 90.31493ZM339.92188 93.53368L334.07812 93.53368L334.07812 92.37743L336.84375 89.42431Q337.40625 88.81493 337.67188 88.34618Q337.95312 87.87743 337.95312 87.47118Q337.95312 86.89306 337.65625 86.58056Q337.375 86.25243 336.84375 86.25243Q336.26562 86.25243 335.9375 86.64306Q335.60938 87.03368 335.60938 87.68993L333.90625 87.68993Q333.90625 86.90868 334.28125 86.26806Q334.65625 85.61181 335.32812 85.25243Q336.01562 84.87743 336.875 84.87743Q338.1875 84.87743 338.92188 85.51806Q339.65625 86.14306 339.65625 87.29931Q339.65625 87.93993 339.32812 88.59618Q339.0 89.25243 338.20312 90.12743L336.26562 92.17431L339.92188 92.17431L339.92188 93.53368Z" fill-rule="nonzero"/><path fill="#000000" d="M315.09375 90.31493L316.0625 90.31493L316.0625 91.68993L315.09375 91.68993L315.09375 93.53368L313.39062 93.53368L313.39062 91.68993L309.90625 91.68993L309.82812 90.62743L313.375 85.00243L315.09375 85.00243L315.09375 90.31493ZM311.51562 90.31493L313.39062 90.31493L313.39062 87.31493L313.28125 87.50243L311.51562 90.31493ZM322.92188 93.53368L317.07812 93.53368L317.07812 92.37743L319.84375 89.42431Q320.40625 88.81493 320.67188 88.34618Q320.95312 87.87743 320.95312 87.47118Q320.95312 86.89306 320.65625 86.58056Q320.375 86.25243 319.84375 86.25243Q319.26562 86.25243 318.9375 86.64306Q318.60938 87.03368 318.60938 87.68993L316.90625 87.68993Q316.90625 86.90868 317.28125 86.26806Q317.65625 85.61181 318.32812 85.25243Q319.01562 84.87743 319.875 84.87743Q321.1875 84.87743 321.92188 85.51806Q322.65625 86.14306 322.65625 87.29931Q322.65625 87.93993 322.32812 88.59618Q322.0 89.25243 321.20312 90.12743L319.26562 92.17431L322.92188 92.17431L322.92188 93.53368ZM324.59375 95.67431L323.70312 95.20556L323.92188 94.83056Q324.3125 94.11181 324.32812 93.40868L324.32812 92.09618L325.75 92.09618L325.75 93.26806Q325.73438 93.90868 325.40625 94.56493Q325.09375 95.23681 324.59375 95.67431ZM332.09375 90.31493L333.0625 90.31493L333.0625 91.68993L332.09375 91.68993L332.09375 93.53368L330.39062 93.53368L330.39062 91.68993L326.90625 91.68993L326.82812 90.62743L330.375 85.00243L332.09375 85.00243L332.09375 90.31493ZM328.51562 90.31493L330.39062 90.31493L330.39062 87.31493L330.28125 87.50243L328.51562 90.31493ZM339.92188 93.53368L334.07812 93.53368L334.07812 92.37743L336.84375 89.42431Q337.40625 88.81493 337.67188 88.34618Q337.95312 87.87743 337.95312 87.47118Q337.95312 86.89306 337.65625 86.58056Q337.375 86.25243 336.84375 86.25243Q336.26562 86.25243 335.9375 86.64306Q335.60938 87.03368 335.60938 87.68993L333.90625 87.68993Q333.90625 86.90868 334.28125 86.26806Q334.65625 85.61181 335.32812 85.25243Q336.01562 84.87743 336.875 84.87743Q338.1875 84.87743 338.92188 85.51806Q339.65625 86.14306 339.65625 87.29931Q339.65625 87.93993 339.32812 88.59618Q339.0 89.25243 338.20312 90.12743L336.26562 92.17431L339.92188 92.17431L339.92188 93.53368Z" fill-rule="nonzero"/><path fill="#000000" d="M23.450003 148.25937L14.856253 148.25937L14.856253 146.54062L20.934378 144.50937Q21.793753 144.22812 22.215628 144.10312Q21.746878 143.9625 20.840628 143.65L14.856253 141.5875L14.856253 140.05624L23.450003 140.05624L23.450003 141.15L16.262503 141.15L23.450003 143.65L23.450003 144.68124L16.137503 147.16562L23.450003 147.16562L23.450003 148.25937ZM23.450003 139.275L14.856253 139.275L14.856253 136.04062Q14.856253 135.05624 15.121878 134.4625Q15.387503 133.86874 15.934378 133.54062Q16.465628 133.19687 17.059378 133.19687Q17.606253 133.19687 18.090628 133.49374Q18.575003 133.79062 18.871878 134.4Q19.106253 133.61874 19.668753 133.2125Q20.215628 132.79062 20.965628 132.79062Q21.559378 132.79062 22.090628 133.04062Q22.606253 133.29062 22.887503 133.66562Q23.168753 134.04062 23.309378 134.61874Q23.450003 135.18124 23.450003 135.99374L23.450003 139.275ZM18.465628 138.13437L18.465628 136.275Q18.465628 135.525 18.371878 135.19687Q18.246878 134.75937 17.950003 134.54062Q17.637503 134.32187 17.184378 134.32187Q16.762503 134.32187 16.434378 134.525Q16.106253 134.72812 15.996878 135.11874Q15.871878 135.49374 15.871878 136.41562L15.871878 138.13437L18.465628 138.13437ZM22.434378 138.13437L22.434378 135.99374Q22.434378 135.44687 22.387503 135.22812Q22.325003 134.82187 22.168753 134.57187Q21.996878 134.30624 21.684378 134.13437Q21.371878 133.9625 20.965628 133.9625Q20.481253 133.9625 20.121878 134.2125Q19.762503 134.44687 19.621878 134.88437Q19.481253 135.32187 19.481253 136.15L19.481253 138.13437L22.434378 138.13437Z" fill-rule="nonzero"/><path fill="#000000" d="M58.95 216.31563Q58.95 214.78438 59.2625 213.8625Q59.575 212.925 60.184376 212.425Q60.809376 211.925 61.746876 211.925Q62.434376 211.925 62.95 212.20625Q63.48125 212.4875 63.825 213.01875Q64.16875 213.53438 64.35625 214.28438Q64.54375 215.03438 64.54375 216.31563Q64.54375 217.83125 64.23125 218.75313Q63.934376 219.675 63.309376 220.19063Q62.7 220.69063 61.746876 220.69063Q60.5125 220.69063 59.79375 219.8Q58.95 218.7375 58.95 216.31563ZM60.028126 216.31563Q60.028126 218.425 60.528126 219.12813Q61.028126 219.83125 61.746876 219.83125Q62.48125 219.83125 62.965626 219.12813Q63.465626 218.425 63.465626 216.31563Q63.465626 214.19063 62.965626 213.50313Q62.48125 212.8 61.73125 212.8Q61.0125 212.8 60.575 213.40938Q60.028126 214.19063 60.028126 216.31563Z" fill-rule="nonzero"/><path fill="#000000" d="M55.91875 187.59L54.871876 187.59L54.871876 180.87125Q54.48125 181.23062 53.85625 181.60562Q53.246876 181.965 52.7625 182.13687L52.7625 181.12125Q53.6375 180.69937 54.29375 180.12125Q54.965626 179.5275 55.246876 178.965L55.91875 178.965L55.91875 187.59ZM58.95 183.35562Q58.95 181.82437 59.2625 180.9025Q59.575 179.965 60.184376 179.465Q60.809376 178.965 61.746876 178.965Q62.434376 178.965 62.95 179.24625Q63.48125 179.5275 63.825 180.05875Q64.16875 180.57437 64.35625 181.32437Q64.54375 182.07437 64.54375 183.35562Q64.54375 184.87125 64.23125 185.79312Q63.934376 186.715 63.309376 187.23062Q62.7 187.73062 61.746876 187.73062Q60.5125 187.73062 59.79375 186.84Q58.95 185.7775 58.95 183.35562ZM60.028126 183.35562Q60.028126 185.465 60.528126 186.16812Q61.028126 186.87125 61.746876 186.87125Q62.48125 186.87125 62.965626 186.16812Q63.465626 185.465 63.465626 183.35562Q63.465626 181.23062 62.965626 180.54312Q62.48125 179.84 61.73125 179.84Q61.0125 179.84 60.575 180.44937Q60.028126 181.23062 60.028126 183.35562Z" fill-rule="nonzero"/><path fill="#000000" d="M57.496876 153.61438L57.496876 154.63L51.809376 154.63Q51.809376 154.255 51.934376 153.89563Q52.153126 153.3175 52.621876 152.755Q53.10625 152.1925 54.0125 151.45813Q55.41875 150.30188 55.903126 149.63Q56.403126 148.95813 56.403126 148.36438Q56.403126 147.73938 55.95 147.3175Q55.496876 146.88 54.778126 146.88Q54.0125 146.88 53.559376 147.33313Q53.10625 147.78625 53.090626 148.59875L52.0125 148.48938Q52.121876 147.27063 52.840626 146.64563Q53.575 146.005 54.809376 146.005Q56.04375 146.005 56.7625 146.6925Q57.48125 147.38 57.48125 148.39563Q57.48125 148.91125 57.2625 149.41125Q57.059376 149.89563 56.559376 150.45813Q56.075 151.005 54.95 151.95813Q53.996876 152.755 53.715626 153.05188Q53.45 153.33313 53.278126 153.61438L57.496876 153.61438ZM58.95 150.39563Q58.95 148.86438 59.2625 147.9425Q59.575 147.005 60.184376 146.505Q60.809376 146.005 61.746876 146.005Q62.434376 146.005 62.95 146.28625Q63.48125 146.5675 63.825 147.09875Q64.16875 147.61438 64.35625 148.36438Q64.54375 149.11438 64.54375 150.39563Q64.54375 151.91125 64.23125 152.83313Q63.934376 153.755 63.309376 154.27063Q62.7 154.77063 61.746876 154.77063Q60.5125 154.77063 59.79375 153.88Q58.95 152.8175 58.95 150.39563ZM60.028126 150.39563Q60.028126 152.505 60.528126 153.20813Q61.028126 153.91125 61.746876 153.91125Q62.48125 153.91125 62.965626 153.20813Q63.465626 152.505 63.465626 150.39563Q63.465626 148.27063 62.965626 147.58313Q62.48125 146.88 61.73125 146.88Q61.0125 146.88 60.575 147.48938Q60.028126 148.27063 60.028126 150.39563Z" fill-rule="nonzero"/><path fill="#000000" d="M51.95 119.40437L53.0125 119.26375Q53.184376 120.15437 53.621876 120.56062Q54.059376 120.95125 54.684376 120.95125Q55.434376 120.95125 55.95 120.43562Q56.465626 119.92 56.465626 119.15437Q56.465626 118.43562 55.98125 117.96687Q55.5125 117.4825 54.778126 117.4825Q54.48125 117.4825 54.028126 117.6075L54.153126 116.67Q54.2625 116.68562 54.325 116.68562Q54.996876 116.68562 55.528126 116.34187Q56.075 115.9825 56.075 115.24812Q56.075 114.67 55.684376 114.295Q55.29375 113.90437 54.66875 113.90437Q54.059376 113.90437 53.6375 114.295Q53.23125 114.68562 53.121876 115.45125L52.059376 115.26375Q52.246876 114.21687 52.934376 113.63875Q53.621876 113.045 54.6375 113.045Q55.340626 113.045 55.934376 113.3575Q56.528126 113.65437 56.840626 114.17Q57.153126 114.68562 57.153126 115.27937Q57.153126 115.82625 56.85625 116.295Q56.559376 116.74812 55.98125 117.01375Q56.73125 117.18562 57.153126 117.74812Q57.575 118.295 57.575 119.13875Q57.575 120.26375 56.746876 121.045Q55.934376 121.82625 54.684376 121.82625Q53.559376 121.82625 52.809376 121.15437Q52.059376 120.46687 51.95 119.40437ZM58.95 117.43562Q58.95 115.90437 59.2625 114.9825Q59.575 114.045 60.184376 113.545Q60.809376 113.045 61.746876 113.045Q62.434376 113.045 62.95 113.32625Q63.48125 113.6075 63.825 114.13875Q64.16875 114.65437 64.35625 115.40437Q64.54375 116.15437 64.54375 117.43562Q64.54375 118.95125 64.23125 119.87312Q63.934376 120.795 63.309376 121.31062Q62.7 121.81062 61.746876 121.81062Q60.5125 121.81062 59.79375 120.92Q58.95 119.8575 58.95 117.43562ZM60.028126 117.43562Q60.028126 119.545 60.528126 120.24812Q61.028126 120.95125 61.746876 120.95125Q62.48125 120.95125 62.965626 120.24812Q63.465626 119.545 63.465626 117.43562Q63.465626 115.31062 62.965626 114.62312Q62.48125 113.92 61.73125 113.92Q61.0125 113.92 60.575 114.52937Q60.028126 115.31062 60.028126 117.43562Z" fill-rule="nonzero"/><path fill="#000000" d="M55.325 88.71L55.325 86.6475L51.60625 86.6475L51.60625 85.67875L55.528126 80.11625L56.3875 80.11625L56.3875 85.67875L57.54375 85.67875L57.54375 86.6475L56.3875 86.6475L56.3875 88.71L55.325 88.71ZM55.325 85.67875L55.325 81.819374L52.6375 85.67875L55.325 85.67875ZM58.95 84.475624Q58.95 82.944374 59.2625 82.0225Q59.575 81.085 60.184376 80.585Q60.809376 80.085 61.746876 80.085Q62.434376 80.085 62.95 80.36625Q63.48125 80.6475 63.825 81.17875Q64.16875 81.694374 64.35625 82.444374Q64.54375 83.194374 64.54375 84.475624Q64.54375 85.99125 64.23125 86.913124Q63.934376 87.835 63.309376 88.350624Q62.7 88.850624 61.746876 88.850624Q60.5125 88.850624 59.79375 87.96Q58.95 86.8975 58.95 84.475624ZM60.028126 84.475624Q60.028126 86.585 60.528126 87.288124Q61.028126 87.99125 61.746876 87.99125Q62.48125 87.99125 62.965626 87.288124Q63.465626 86.585 63.465626 84.475624Q63.465626 82.350624 62.965626 81.663124Q62.48125 80.96 61.73125 80.96Q61.0125 80.96 60.575 81.569374Q60.028126 82.350624 60.028126 84.475624Z" fill-rule="nonzero"/><path fill="#000000" d="M51.95 53.5L53.059376 53.40625Q53.184376 54.21875 53.621876 54.625Q54.075 55.03125 54.715626 55.03125Q55.465626 55.03125 55.996876 54.453125Q56.528126 53.875 56.528126 52.9375Q56.528126 52.03125 56.0125 51.515625Q55.5125 50.984375 54.684376 50.984375Q54.184376 50.984375 53.7625 51.21875Q53.35625 51.453125 53.121876 51.8125L52.1375 51.6875L52.965626 47.28125L57.246876 47.28125L57.246876 48.28125L53.809376 48.28125L53.35625 50.59375Q54.121876 50.046875 54.965626 50.046875Q56.090626 50.046875 56.85625 50.828125Q57.6375 51.609375 57.6375 52.84375Q57.6375 54.0 56.965626 54.859375Q56.1375 55.890625 54.715626 55.890625Q53.54375 55.890625 52.79375 55.234375Q52.059376 54.578125 51.95 53.5ZM58.95 51.515625Q58.95 49.984375 59.2625 49.0625Q59.575 48.125 60.184376 47.625Q60.809376 47.125 61.746876 47.125Q62.434376 47.125 62.95 47.40625Q63.48125 47.6875 63.825 48.21875Q64.16875 48.734375 64.35625 49.484375Q64.54375 50.234375 64.54375 51.515625Q64.54375 53.03125 64.23125 53.953125Q63.934376 54.875 63.309376 55.390625Q62.7 55.890625 61.746876 55.890625Q60.5125 55.890625 59.79375 55.0Q58.95 53.9375 58.95 51.515625ZM60.028126 51.515625Q60.028126 53.625 60.528126 54.328125Q61.028126 55.03125 61.746876 55.03125Q62.48125 55.03125 62.965626 54.328125Q63.465626 53.625 63.465626 51.515625Q63.465626 49.390625 62.965626 48.703125Q62.48125 48.0 61.73125 48.0Q61.0125 48.0 60.575 48.609375Q60.028126 49.390625 60.028126 51.515625Z" fill-rule="nonzero"/><path fill="#000000" d="M104.09165 230.78438L105.15415 230.69063Q105.23228 231.34688 105.51353 231.75313Q105.79478 232.15938 106.3729 232.425Q106.96665 232.675 107.70103 232.675Q108.34165 232.675 108.84165 232.4875Q109.34165 232.28438 109.57603 231.95625Q109.82603 231.6125 109.82603 231.22188Q109.82603 230.81563 109.59165 230.51875Q109.35728 230.20625 108.82603 230.00313Q108.46665 229.8625 107.27915 229.58125Q106.10728 229.3 105.63853 229.05Q105.01353 228.72188 104.71665 228.25313Q104.41978 227.76875 104.41978 227.175Q104.41978 226.53438 104.77915 225.97188Q105.15415 225.39375 105.85728 225.1125Q106.57603 224.81563 107.4354 224.81563Q108.38853 224.81563 109.1229 225.12813Q109.85728 225.425 110.2479 226.03438Q110.63853 226.62813 110.66978 227.37813L109.57603 227.45625Q109.48228 226.64375 108.96665 226.2375Q108.46665 225.81563 107.48228 225.81563Q106.45103 225.81563 105.98228 226.19063Q105.51353 226.56563 105.51353 227.09688Q105.51353 227.56563 105.84165 227.8625Q106.16978 228.15938 107.54478 228.47188Q108.9354 228.78438 109.45103 229.01875Q110.20103 229.37813 110.5604 229.90938Q110.91978 230.425 110.91978 231.12813Q110.91978 231.81563 110.52915 232.425Q110.13853 233.01875 109.40415 233.3625Q108.66978 233.69063 107.7479 233.69063Q106.57603 233.69063 105.77915 233.3625Q104.9979 233.01875 104.54478 232.33125Q104.10728 231.64375 104.09165 230.78438ZM112.34165 235.94063L112.34165 227.33125L113.29478 227.33125L113.29478 228.12813Q113.63853 227.65938 114.0604 227.425Q114.4979 227.19063 115.10728 227.19063Q115.90415 227.19063 116.51353 227.59688Q117.1229 228.00313 117.41978 228.75313Q117.73228 229.50313 117.73228 230.39375Q117.73228 231.34688 117.38853 232.1125Q117.0604 232.87813 116.40415 233.28438Q115.7479 233.69063 115.02915 233.69063Q114.4979 233.69063 114.07603 233.47188Q113.65415 233.2375 113.38853 232.90938L113.38853 235.94063L112.34165 235.94063ZM113.29478 230.47188Q113.29478 231.675 113.77915 232.25313Q114.26353 232.81563 114.95103 232.81563Q115.65415 232.81563 116.15415 232.22188Q116.65415 231.62813 116.65415 230.37813Q116.65415 229.19063 116.16978 228.6125Q115.6854 228.01875 114.9979 228.01875Q114.32603 228.01875 113.8104 228.64375Q113.29478 229.26875 113.29478 230.47188ZM119.32603 233.55L119.32603 227.33125L120.27915 227.33125L120.27915 228.26875Q120.63853 227.6125 120.9354 227.40938Q121.2479 227.19063 121.6229 227.19063Q122.15415 227.19063 122.70103 227.51875L122.34165 228.50313Q121.95103 228.26875 121.57603 228.26875Q121.21665 228.26875 120.9354 228.4875Q120.66978 228.69063 120.5604 229.06563Q120.3729 229.62813 120.3729 230.28438L120.3729 233.55L119.32603 233.55ZM123.34165 226.175L123.34165 224.95625L124.40415 224.95625L124.40415 226.175L123.34165 226.175ZM123.34165 233.55L123.34165 227.33125L124.40415 227.33125L124.40415 233.55L123.34165 233.55ZM126.34165 233.55L126.34165 227.33125L127.27915 227.33125L127.27915 228.20625Q127.96665 227.19063 129.26352 227.19063Q129.82602 227.19063 130.29477 227.39375Q130.77914 227.59688 131.01352 227.925Q131.2479 228.25313 131.34164 228.69063Q131.38852 228.9875 131.38852 229.72188L131.38852 233.55L130.34164 233.55L130.34164 229.76875Q130.34164 229.1125 130.21664 228.8Q130.09164 228.4875 129.77914 228.3Q129.46664 228.09688 129.04477 228.09688Q128.3729 228.09688 127.8729 228.53438Q127.38853 228.95625 127.38853 230.14375L127.38853 233.55L126.34165 233.55ZM133.13852 234.06563L134.16977 234.22188Q134.23227 234.69063 134.52914 234.90938Q134.91977 235.20625 135.59164 235.20625Q136.32602 235.20625 136.71664 234.90938Q137.1229 234.6125 137.26352 234.09688Q137.35727 233.76875 137.34164 232.7375Q136.65414 233.55 135.6229 233.55Q134.34164 233.55 133.63852 232.62813Q132.9354 231.69063 132.9354 230.40938Q132.9354 229.51875 133.2479 228.76875Q133.57602 228.00313 134.1854 227.59688Q134.79477 227.19063 135.6229 227.19063Q136.73227 227.19063 137.45102 228.08125L137.45102 227.33125L138.41977 227.33125L138.41977 232.70625Q138.41977 234.15938 138.1229 234.76875Q137.82602 235.37813 137.1854 235.72188Q136.54477 236.08125 135.60727 236.08125Q134.4979 236.08125 133.8104 235.58125Q133.1229 235.08125 133.13852 234.06563ZM134.01352 230.33125Q134.01352 231.55 134.4979 232.1125Q134.98227 232.675 135.71664 232.675Q136.45102 232.675 136.9354 232.1125Q137.4354 231.55 137.4354 230.3625Q137.4354 229.22188 136.91977 228.64375Q136.41977 228.06563 135.70102 228.06563Q134.9979 228.06563 134.4979 228.64375Q134.01352 229.20625 134.01352 230.33125ZM143.41977 233.55L143.41977 224.95625L146.65414 224.95625Q147.63852 224.95625 148.23227 225.22188Q148.82602 225.4875 149.15414 226.03438Q149.4979 226.56563 149.4979 227.15938Q149.4979 227.70625 149.20102 228.19063Q148.90414 228.675 148.29477 228.97188Q149.07602 229.20625 149.48227 229.76875Q149.90414 230.31563 149.90414 231.06563Q149.90414 231.65938 149.65414 232.19063Q149.40414 232.70625 149.02914 232.9875Q148.65414 233.26875 148.07602 233.40938Q147.51352 233.55 146.70102 233.55L143.41977 233.55ZM144.5604 228.56563L146.41977 228.56563Q147.16977 228.56563 147.4979 228.47188Q147.9354 228.34688 148.15414 228.05Q148.3729 227.7375 148.3729 227.28438Q148.3729 226.8625 148.16977 226.53438Q147.96664 226.20625 147.57602 226.09688Q147.20102 225.97188 146.27914 225.97188L144.5604 225.97188L144.5604 228.56563ZM144.5604 232.53438L146.70102 232.53438Q147.2479 232.53438 147.46664 232.4875Q147.8729 232.425 148.1229 232.26875Q148.38852 232.09688 148.5604 231.78438Q148.73227 231.47188 148.73227 231.06563Q148.73227 230.58125 148.48227 230.22188Q148.2479 229.8625 147.8104 229.72188Q147.3729 229.58125 146.54477 229.58125L144.5604 229.58125L144.5604 232.53438ZM150.95102 230.44063Q150.95102 228.70625 151.90414 227.87813Q152.70102 227.19063 153.85727 227.19063Q155.13852 227.19063 155.95102 228.03438Q156.77914 228.8625 156.77914 230.34688Q156.77914 231.55 156.41977 232.2375Q156.0604 232.925 155.35727 233.31563Q154.66977 233.69063 153.85727 233.69063Q152.5604 233.69063 151.7479 232.8625Q150.95102 232.01875 150.95102 230.44063ZM152.02914 230.44063Q152.02914 231.62813 152.54477 232.22188Q153.07602 232.81563 153.85727 232.81563Q154.65414 232.81563 155.16977 232.22188Q155.6854 231.62813 155.6854 230.40938Q155.6854 229.25313 155.15414 228.65938Q154.63852 228.06563 153.85727 228.06563Q153.07602 228.06563 152.54477 228.65938Q152.02914 229.2375 152.02914 230.44063ZM157.95102 230.44063Q157.95102 228.70625 158.90414 227.87813Q159.70102 227.19063 160.85727 227.19063Q162.13852 227.19063 162.95102 228.03438Q163.77914 228.8625 163.77914 230.34688Q163.77914 231.55 163.41977 232.2375Q163.0604 232.925 162.35727 233.31563Q161.66977 233.69063 160.85727 233.69063Q159.5604 233.69063 158.7479 232.8625Q157.95102 232.01875 157.95102 230.44063ZM159.02914 230.44063Q159.02914 231.62813 159.54477 232.22188Q160.07602 232.81563 160.85727 232.81563Q161.65414 232.81563 162.16977 232.22188Q162.6854 231.62813 162.6854 230.40938Q162.6854 229.25313 162.15414 228.65938Q161.63852 228.06563 160.85727 228.06563Q160.07602 228.06563 159.54477 228.65938Q159.02914 229.2375 159.02914 230.44063ZM167.63852 232.6125L167.79477 233.53438Q167.34164 233.62813 166.9979 233.62813Q166.41977 233.62813 166.10727 233.45625Q165.79477 233.26875 165.65414 232.97188Q165.52914 232.675 165.52914 231.72188L165.52914 228.14375L164.76352 228.14375L164.76352 227.33125L165.52914 227.33125L165.52914 225.78438L166.57602 225.15938L166.57602 227.33125L167.63852 227.33125L167.63852 228.14375L166.57602 228.14375L166.57602 231.78438Q166.57602 232.2375 166.6229 232.3625Q166.6854 232.4875 166.8104 232.56563Q166.9354 232.64375 167.16977 232.64375Q167.35727 232.64375 167.63852 232.6125Z" fill-rule="nonzero"/><path fill="#000000" d="M214.4375 232.62813Q215.23438 233.175 215.89062 233.425L215.5625 234.22188Q214.64062 233.87813 213.71875 233.15938Q212.76562 233.69063 211.60938 233.69063Q210.4375 233.69063 209.48438 233.12813Q208.54688 232.56563 208.03125 231.55Q207.51562 230.53438 207.51562 229.25313Q207.51562 227.9875 208.03125 226.94063Q208.54688 225.89375 209.5 225.34688Q210.45312 224.8 211.625 224.8Q212.8125 224.8 213.76562 225.37813Q214.73438 225.94063 215.23438 226.95625Q215.73438 227.97188 215.73438 229.25313Q215.73438 230.31563 215.40625 231.15938Q215.09375 232.00313 214.4375 232.62813ZM211.9375 231.175Q212.92188 231.45625 213.5625 232.00313Q214.5625 231.08125 214.5625 229.25313Q214.5625 228.20625 214.20312 227.425Q213.84375 226.64375 213.15625 226.22188Q212.48438 225.78438 211.64062 225.78438Q210.35938 225.78438 209.51562 226.65938Q208.6875 227.51875 208.6875 229.25313Q208.6875 230.925 209.51562 231.83125Q210.34375 232.72188 211.64062 232.72188Q212.25 232.72188 212.78125 232.4875Q212.25 232.14375 211.65625 232.00313L211.9375 231.175ZM220.875 233.55L220.875 232.62813Q220.14062 233.69063 218.89062 233.69063Q218.34375 233.69063 217.85938 233.4875Q217.39062 233.26875 217.15625 232.95625Q216.92188 232.62813 216.82812 232.15938Q216.76562 231.8625 216.76562 231.175L216.76562 227.33125L217.82812 227.33125L217.82812 230.78438Q217.82812 231.59688 217.89062 231.89375Q217.98438 232.3 218.29688 232.55Q218.625 232.78438 219.10938 232.78438Q219.57812 232.78438 219.98438 232.55Q220.40625 232.3 220.57812 231.87813Q220.76562 231.45625 220.76562 230.65938L220.76562 227.33125L221.8125 227.33125L221.8125 233.55L220.875 233.55ZM227.85938 232.78438Q227.26562 233.28438 226.71875 233.4875Q226.1875 233.69063 225.5625 233.69063Q224.53125 233.69063 223.98438 233.19063Q223.4375 232.69063 223.4375 231.90938Q223.4375 231.45625 223.64062 231.08125Q223.84375 230.69063 224.1875 230.47188Q224.53125 230.2375 224.95312 230.12813Q225.25 230.03438 225.89062 229.95625Q227.15625 229.81563 227.76562 229.59688Q227.76562 229.37813 227.76562 229.33125Q227.76562 228.675 227.46875 228.40938Q227.0625 228.06563 226.26562 228.06563Q225.53125 228.06563 225.17188 228.33125Q224.8125 228.58125 224.64062 229.2375L223.60938 229.09688Q223.75 228.44063 224.07812 228.03438Q224.40625 227.62813 225.01562 227.40938Q225.625 227.19063 226.42188 227.19063Q227.21875 227.19063 227.71875 227.37813Q228.21875 227.56563 228.45312 227.84688Q228.6875 228.12813 228.78125 228.56563Q228.82812 228.83125 228.82812 229.53438L228.82812 230.94063Q228.82812 232.40938 228.89062 232.8Q228.96875 233.19063 229.17188 233.55L228.0625 233.55Q227.90625 233.22188 227.85938 232.78438ZM227.76562 230.425Q227.1875 230.65938 226.04688 230.83125Q225.39062 230.925 225.125 231.05Q224.85938 231.15938 224.70312 231.37813Q224.5625 231.59688 224.5625 231.87813Q224.5625 232.3 224.875 232.58125Q225.20312 232.8625 225.8125 232.8625Q226.42188 232.8625 226.89062 232.59688Q227.375 232.33125 227.59375 231.8625Q227.76562 231.50313 227.76562 230.81563L227.76562 230.425ZM230.78125 233.55L230.78125 227.33125L231.73438 227.33125L231.73438 228.26875Q232.09375 227.6125 232.39062 227.40938Q232.70312 227.19063 233.07812 227.19063Q233.60938 227.19063 234.15625 227.51875L233.79688 228.50313Q233.40625 228.26875 233.03125 228.26875Q232.67188 228.26875 232.39062 228.4875Q232.125 228.69063 232.01562 229.06563Q231.82812 229.62813 231.82812 230.28438L231.82812 233.55L230.78125 233.55ZM234.79688 233.55L234.79688 224.95625L235.85938 224.95625L235.85938 229.8625L238.34375 227.33125L239.71875 227.33125L237.32812 229.62813L239.95312 233.55L238.65625 233.55L236.59375 230.3625L235.85938 231.08125L235.85938 233.55L234.79688 233.55ZM244.875 233.55L244.875 232.62813Q244.14062 233.69063 242.89062 233.69063Q242.34375 233.69063 241.85938 233.4875Q241.39062 233.26875 241.15625 232.95625Q240.92188 232.62813 240.82812 232.15938Q240.76562 231.8625 240.76562 231.175L240.76562 227.33125L241.82812 227.33125L241.82812 230.78438Q241.82812 231.59688 241.89062 231.89375Q241.98438 232.3 242.29688 232.55Q242.625 232.78438 243.10938 232.78438Q243.57812 232.78438 243.98438 232.55Q244.40625 232.3 244.57812 231.87813Q244.76562 231.45625 244.76562 230.65938L244.76562 227.33125L245.8125 227.33125L245.8125 233.55L244.875 233.55ZM247.375 231.69063L248.40625 231.53438Q248.5 232.15938 248.89062 232.4875Q249.29688 232.81563 250.03125 232.81563Q250.75 232.81563 251.09375 232.53438Q251.45312 232.2375 251.45312 231.83125Q251.45312 231.47188 251.14062 231.26875Q250.92188 231.12813 250.0625 230.90938Q248.90625 230.6125 248.45312 230.40938Q248.01562 230.19063 247.78125 229.81563Q247.54688 229.44063 247.54688 228.97188Q247.54688 228.56563 247.73438 228.20625Q247.92188 227.84688 248.25 227.6125Q248.5 227.44063 248.92188 227.31563Q249.34375 227.19063 249.84375 227.19063Q250.5625 227.19063 251.10938 227.40938Q251.67188 227.6125 251.9375 227.97188Q252.20312 228.33125 252.29688 228.925L251.26562 229.06563Q251.20312 228.59688 250.85938 228.33125Q250.53125 228.05 249.90625 228.05Q249.1875 228.05 248.875 228.3Q248.5625 228.53438 248.5625 228.8625Q248.5625 229.06563 248.6875 229.22188Q248.82812 229.39375 249.09375 229.50313Q249.25 229.56563 250.03125 229.76875Q251.15625 230.08125 251.59375 230.26875Q252.03125 230.45625 252.28125 230.81563Q252.53125 231.175 252.53125 231.72188Q252.53125 232.25313 252.21875 232.72188Q251.92188 233.175 251.34375 233.44063Q250.76562 233.69063 250.03125 233.69063Q248.8125 233.69063 248.17188 233.19063Q247.54688 232.675 247.375 231.69063Z" fill-rule="nonzero"/><path fill="#000000" d="M291.89273 232.62813Q292.6896 233.175 293.34586 233.425L293.01773 234.22188Q292.09586 233.87813 291.17398 233.15938Q290.22086 233.69063 289.0646 233.69063Q287.89273 233.69063 286.9396 233.12813Q286.0021 232.56563 285.48648 231.55Q284.97086 230.53438 284.97086 229.25313Q284.97086 227.9875 285.48648 226.94063Q286.0021 225.89375 286.95523 225.34688Q287.90836 224.8 289.08023 224.8Q290.26773 224.8 291.22086 225.37813Q292.1896 225.94063 292.6896 226.95625Q293.1896 227.97188 293.1896 229.25313Q293.1896 230.31563 292.86148 231.15938Q292.54898 232.00313 291.89273 232.62813ZM289.39273 231.175Q290.3771 231.45625 291.01773 232.00313Q292.01773 231.08125 292.01773 229.25313Q292.01773 228.20625 291.65836 227.425Q291.29898 226.64375 290.61148 226.22188Q289.9396 225.78438 289.09586 225.78438Q287.8146 225.78438 286.97086 226.65938Q286.14273 227.51875 286.14273 229.25313Q286.14273 230.925 286.97086 231.83125Q287.79898 232.72188 289.09586 232.72188Q289.70523 232.72188 290.23648 232.4875Q289.70523 232.14375 289.11148 232.00313L289.39273 231.175ZM298.33023 233.55L298.33023 232.62813Q297.59586 233.69063 296.34586 233.69063Q295.79898 233.69063 295.3146 233.4875Q294.84586 233.26875 294.61148 232.95625Q294.3771 232.62813 294.28336 232.15938Q294.22086 231.8625 294.22086 231.175L294.22086 227.33125L295.28336 227.33125L295.28336 230.78438Q295.28336 231.59688 295.34586 231.89375Q295.4396 232.3 295.7521 232.55Q296.08023 232.78438 296.5646 232.78438Q297.03336 232.78438 297.4396 232.55Q297.86148 232.3 298.03336 231.87813Q298.22086 231.45625 298.22086 230.65938L298.22086 227.33125L299.26773 227.33125L299.26773 233.55L298.33023 233.55ZM305.3146 232.78438Q304.72086 233.28438 304.17398 233.4875Q303.64273 233.69063 303.01773 233.69063Q301.98648 233.69063 301.4396 233.19063Q300.89273 232.69063 300.89273 231.90938Q300.89273 231.45625 301.09586 231.08125Q301.29898 230.69063 301.64273 230.47188Q301.98648 230.2375 302.40836 230.12813Q302.70523 230.03438 303.34586 229.95625Q304.61148 229.81563 305.22086 229.59688Q305.22086 229.37813 305.22086 229.33125Q305.22086 228.675 304.92398 228.40938Q304.51773 228.06563 303.72086 228.06563Q302.98648 228.06563 302.6271 228.33125Q302.26773 228.58125 302.09586 229.2375L301.0646 229.09688Q301.20523 228.44063 301.53336 228.03438Q301.86148 227.62813 302.47086 227.40938Q303.08023 227.19063 303.8771 227.19063Q304.67398 227.19063 305.17398 227.37813Q305.67398 227.56563 305.90836 227.84688Q306.14273 228.12813 306.23648 228.56563Q306.28336 228.83125 306.28336 229.53438L306.28336 230.94063Q306.28336 232.40938 306.34586 232.8Q306.42398 233.19063 306.6271 233.55L305.51773 233.55Q305.36148 233.22188 305.3146 232.78438ZM305.22086 230.425Q304.64273 230.65938 303.5021 230.83125Q302.84586 230.925 302.58023 231.05Q302.3146 231.15938 302.15836 231.37813Q302.01773 231.59688 302.01773 231.87813Q302.01773 232.3 302.33023 232.58125Q302.65836 232.8625 303.26773 232.8625Q303.8771 232.8625 304.34586 232.59688Q304.83023 232.33125 305.04898 231.8625Q305.22086 231.50313 305.22086 230.81563L305.22086 230.425ZM308.23648 233.55L308.23648 227.33125L309.1896 227.33125L309.1896 228.26875Q309.54898 227.6125 309.84586 227.40938Q310.15836 227.19063 310.53336 227.19063Q311.0646 227.19063 311.61148 227.51875L311.2521 228.50313Q310.86148 228.26875 310.48648 228.26875Q310.1271 228.26875 309.84586 228.4875Q309.58023 228.69063 309.47086 229.06563Q309.28336 229.62813 309.28336 230.28438L309.28336 233.55L308.23648 233.55ZM312.2521 233.55L312.2521 224.95625L313.3146 224.95625L313.3146 229.8625L315.79898 227.33125L317.17398 227.33125L314.78336 229.62813L317.40836 233.55L316.11148 233.55L314.04898 230.3625L313.3146 231.08125L313.3146 233.55L312.2521 233.55ZM322.33023 233.55L322.33023 232.62813Q321.59586 233.69063 320.34586 233.69063Q319.79898 233.69063 319.3146 233.4875Q318.84586 233.26875 318.61148 232.95625Q318.3771 232.62813 318.28336 232.15938Q318.22086 231.8625 318.22086 231.175L318.22086 227.33125L319.28336 227.33125L319.28336 230.78438Q319.28336 231.59688 319.34586 231.89375Q319.4396 232.3 319.7521 232.55Q320.08023 232.78438 320.5646 232.78438Q321.03336 232.78438 321.4396 232.55Q321.86148 232.3 322.03336 231.87813Q322.22086 231.45625 322.22086 230.65938L322.22086 227.33125L323.26773 227.33125L323.26773 233.55L322.33023 233.55ZM324.83023 231.69063L325.86148 231.53438Q325.95523 232.15938 326.34586 232.4875Q326.7521 232.81563 327.48648 232.81563Q328.20523 232.81563 328.54898 232.53438Q328.90836 232.2375 328.90836 231.83125Q328.90836 231.47188 328.59586 231.26875Q328.3771 231.12813 327.51773 230.90938Q326.36148 230.6125 325.90836 230.40938Q325.47086 230.19063 325.23648 229.81563Q325.0021 229.44063 325.0021 228.97188Q325.0021 228.56563 325.1896 228.20625Q325.3771 227.84688 325.70523 227.6125Q325.95523 227.44063 326.3771 227.31563Q326.79898 227.19063 327.29898 227.19063Q328.01773 227.19063 328.5646 227.40938Q329.1271 227.6125 329.39273 227.97188Q329.65836 228.33125 329.7521 228.925L328.72086 229.06563Q328.65836 228.59688 328.3146 228.33125Q327.98648 228.05 327.36148 228.05Q326.64273 228.05 326.33023 228.3Q326.01773 228.53438 326.01773 228.8625Q326.01773 229.06563 326.14273 229.22188Q326.28336 229.39375 326.54898 229.50313Q326.70523 229.56563 327.48648 229.76875Q328.61148 230.08125 329.04898 230.26875Q329.48648 230.45625 329.73648 230.81563Q329.98648 231.175 329.98648 231.72188Q329.98648 232.25313 329.67398 232.72188Q329.3771 233.175 328.79898 233.44063Q328.22086 233.69063 327.48648 233.69063Q326.26773 233.69063 325.6271 233.19063Q325.0021 232.675 324.83023 231.69063ZM335.2521 233.55L335.2521 227.33125L336.1896 227.33125L336.1896 228.20625Q336.8771 227.19063 338.17398 227.19063Q338.73648 227.19063 339.20523 227.39375Q339.6896 227.59688 339.92398 227.925Q340.15836 228.25313 340.2521 228.69063Q340.29898 228.9875 340.29898 229.72188L340.29898 233.55L339.2521 233.55L339.2521 229.76875Q339.2521 229.1125 339.1271 228.8Q339.0021 228.4875 338.6896 228.3Q338.3771 228.09688 337.95523 228.09688Q337.28336 228.09688 336.78336 228.53438Q336.29898 228.95625 336.29898 230.14375L336.29898 233.55L335.2521 233.55ZM346.3146 232.78438Q345.72086 233.28438 345.17398 233.4875Q344.64273 233.69063 344.01773 233.69063Q342.98648 233.69063 342.4396 233.19063Q341.89273 232.69063 341.89273 231.90938Q341.89273 231.45625 342.09586 231.08125Q342.29898 230.69063 342.64273 230.47188Q342.98648 230.2375 343.40836 230.12813Q343.70523 230.03438 344.34586 229.95625Q345.61148 229.81563 346.22086 229.59688Q346.22086 229.37813 346.22086 229.33125Q346.22086 228.675 345.92398 228.40938Q345.51773 228.06563 344.72086 228.06563Q343.98648 228.06563 343.6271 228.33125Q343.26773 228.58125 343.09586 229.2375L342.0646 229.09688Q342.20523 228.44063 342.53336 228.03438Q342.86148 227.62813 343.47086 227.40938Q344.08023 227.19063 344.8771 227.19063Q345.67398 227.19063 346.17398 227.37813Q346.67398 227.56563 346.90836 227.84688Q347.14273 228.12813 347.23648 228.56563Q347.28336 228.83125 347.28336 229.53438L347.28336 230.94063Q347.28336 232.40938 347.34586 232.8Q347.42398 233.19063 347.6271 233.55L346.51773 233.55Q346.36148 233.22188 346.3146 232.78438ZM346.22086 230.425Q345.64273 230.65938 344.5021 230.83125Q343.84586 230.925 343.58023 231.05Q343.3146 231.15938 343.15836 231.37813Q343.01773 231.59688 343.01773 231.87813Q343.01773 232.3 343.33023 232.58125Q343.65836 232.8625 344.26773 232.8625Q344.8771 232.8625 345.34586 232.59688Q345.83023 232.33125 346.04898 231.8625Q346.22086 231.50313 346.22086 230.81563L346.22086 230.425ZM351.54898 232.6125L351.70523 233.53438Q351.2521 233.62813 350.90836 233.62813Q350.33023 233.62813 350.01773 233.45625Q349.70523 233.26875 349.5646 232.97188Q349.4396 232.675 349.4396 231.72188L349.4396 228.14375L348.67398 228.14375L348.67398 227.33125L349.4396 227.33125L349.4396 225.78438L350.48648 225.15938L350.48648 227.33125L351.54898 227.33125L351.54898 228.14375L350.48648 228.14375L350.48648 231.78438Q350.48648 232.2375 350.53336 232.3625Q350.59586 232.4875 350.72086 232.56563Q350.84586 232.64375 351.08023 232.64375Q351.26773 232.64375 351.54898 232.6125ZM352.2521 226.175L352.2521 224.95625L353.3146 224.95625L353.3146 226.175L352.2521 226.175ZM352.2521 233.55L352.2521 227.33125L353.3146 227.33125L353.3146 233.55L352.2521 233.55ZM356.97086 233.55L354.61148 227.33125L355.72086 227.33125L357.0646 231.05Q357.26773 231.65938 357.45523 232.3Q357.59586 231.81563 357.84586 231.12813L359.23648 227.33125L360.3146 227.33125L357.95523 233.55L356.97086 233.55ZM364.5021 231.55L365.59586 231.675Q365.34586 232.62813 364.64273 233.15938Q363.9396 233.69063 362.86148 233.69063Q361.5021 233.69063 360.6896 232.84688Q359.89273 232.00313 359.89273 230.4875Q359.89273 228.925 360.70523 228.06563Q361.51773 227.19063 362.79898 227.19063Q364.04898 227.19063 364.83023 228.03438Q365.6271 228.87813 365.6271 230.425Q365.6271 230.51875 365.6271 230.70625L360.98648 230.70625Q361.04898 231.7375 361.5646 232.28438Q362.08023 232.81563 362.86148 232.81563Q363.4396 232.81563 363.84586 232.51875Q364.26773 232.20625 364.5021 231.55ZM361.04898 229.84688L364.51773 229.84688Q364.45523 229.05 364.1271 228.65938Q363.61148 228.05 362.8146 228.05Q362.08023 228.05 361.58023 228.53438Q361.09586 229.01875 361.04898 229.84688Z" fill-rule="nonzero"/><path fill="#757575" d="M12.41875 31.45L17.91875 17.1375L19.965626 17.1375L25.825 31.45L23.66875 31.45L21.996876 27.10625L16.0125 27.10625L14.434375 31.45L12.41875 31.45ZM16.559376 25.575L21.403126 25.575L19.91875 21.60625Q19.23125 19.79375 18.903126 18.6375Q18.621876 20.0125 18.121876 21.371876L16.559376 25.575ZM26.7625 35.41875L26.7625 21.075L28.371876 21.075L28.371876 22.41875Q28.934376 21.6375 29.6375 21.246876Q30.35625 20.840626 31.371876 20.840626Q32.7 20.840626 33.715626 21.528126Q34.73125 22.215626 35.246876 23.465626Q35.778126 24.7 35.778126 26.184376Q35.778126 27.778126 35.2 29.059376Q34.6375 30.325 33.54375 31.0125Q32.45 31.684376 31.246876 31.684376Q30.371876 31.684376 29.66875 31.309376Q28.98125 30.934376 28.528126 30.371876L28.528126 35.41875L26.7625 35.41875ZM28.35625 26.325Q28.35625 28.325 29.16875 29.278126Q29.98125 30.23125 31.1375 30.23125Q32.309376 30.23125 33.1375 29.246876Q33.98125 28.2625 33.98125 26.16875Q33.98125 24.2 33.153126 23.215626Q32.340626 22.215626 31.215626 22.215626Q30.090626 22.215626 29.215626 23.278126Q28.35625 24.325 28.35625 26.325ZM37.7625 35.41875L37.7625 21.075L39.371876 21.075L39.371876 22.41875Q39.934376 21.6375 40.6375 21.246876Q41.35625 20.840626 42.371876 20.840626Q43.7 20.840626 44.715626 21.528126Q45.73125 22.215626 46.246876 23.465626Q46.778126 24.7 46.778126 26.184376Q46.778126 27.778126 46.2 29.059376Q45.6375 30.325 44.54375 31.0125Q43.45 31.684376 42.246876 31.684376Q41.371876 31.684376 40.66875 31.309376Q39.98125 30.934376 39.528126 30.371876L39.528126 35.41875L37.7625 35.41875ZM39.35625 26.325Q39.35625 28.325 40.16875 29.278126Q40.98125 30.23125 42.1375 30.23125Q43.309376 30.23125 44.1375 29.246876Q44.98125 28.2625 44.98125 26.16875Q44.98125 24.2 44.153126 23.215626Q43.340626 22.215626 42.215626 22.215626Q41.090626 22.215626 40.215626 23.278126Q39.35625 24.325 39.35625 26.325ZM48.73125 31.45L48.73125 17.1375L50.48125 17.1375L50.48125 31.45L48.73125 31.45ZM52.778126 19.153126L52.778126 17.1375L54.54375 17.1375L54.54375 19.153126L52.778126 19.153126ZM52.778126 31.45L52.778126 21.075L54.54375 21.075L54.54375 31.45L52.778126 31.45ZM63.54375 27.653126L65.2625 27.871876Q64.98125 29.66875 63.809376 30.684376Q62.653126 31.684376 60.95 31.684376Q58.825 31.684376 57.528126 30.29375Q56.23125 28.903126 56.23125 26.309376Q56.23125 24.621876 56.778126 23.371876Q57.340626 22.10625 58.48125 21.48125Q59.621876 20.840626 60.965626 20.840626Q62.653126 20.840626 63.715626 21.7Q64.79375 22.559376 65.10625 24.121876L63.3875 24.3875Q63.153126 23.340626 62.528126 22.825Q61.903126 22.29375 61.028126 22.29375Q59.7 22.29375 58.871876 23.246876Q58.04375 24.2 58.04375 26.246876Q58.04375 28.340626 58.840626 29.29375Q59.6375 30.23125 60.934376 30.23125Q61.965626 30.23125 62.653126 29.60625Q63.35625 28.965626 63.54375 27.653126ZM73.54375 30.16875Q72.55937 30.996876 71.65312 31.340626Q70.74687 31.684376 69.71562 31.684376Q68.0125 31.684376 67.09062 30.85625Q66.16875 30.0125 66.16875 28.715626Q66.16875 27.95 66.5125 27.325Q66.87187 26.7 67.43437 26.325Q67.99687 25.934376 68.7 25.73125Q69.21562 25.60625 70.2625 25.465626Q72.3875 25.215626 73.3875 24.871876Q73.40312 24.5125 73.40312 24.403126Q73.40312 23.340626 72.90312 22.8875Q72.23125 22.29375 70.90312 22.29375Q69.65312 22.29375 69.05937 22.73125Q68.48125 23.16875 68.2 24.278126L66.48125 24.04375Q66.71562 22.934376 67.24687 22.2625Q67.77812 21.575 68.79375 21.215626Q69.80937 20.840626 71.15312 20.840626Q72.48125 20.840626 73.30937 21.153126Q74.1375 21.465626 74.52812 21.95Q74.91875 22.41875 75.075 23.1375Q75.16875 23.590626 75.16875 24.7625L75.16875 27.10625Q75.16875 29.559376 75.27812 30.215626Q75.3875 30.85625 75.73125 31.45L73.8875 31.45Q73.62187 30.903126 73.54375 30.16875ZM73.3875 26.246876Q72.43437 26.6375 70.5125 26.903126Q69.43437 27.059376 68.98125 27.2625Q68.54375 27.45 68.29375 27.825Q68.04375 28.2 68.04375 28.66875Q68.04375 29.371876 68.575 29.840626Q69.10625 30.309376 70.1375 30.309376Q71.15312 30.309376 71.93437 29.871876Q72.73125 29.41875 73.10625 28.653126Q73.3875 28.04375 73.3875 26.8875L73.3875 26.246876ZM81.60625 29.871876L81.85625 31.434376Q81.12187 31.590626 80.52812 31.590626Q79.575 31.590626 79.04375 31.29375Q78.52812 30.98125 78.30937 30.496876Q78.09062 29.996876 78.09062 28.41875L78.09062 22.45L76.80937 22.45L76.80937 21.075L78.09062 21.075L78.09062 18.5125L79.84062 17.45L79.84062 21.075L81.60625 21.075L81.60625 22.45L79.84062 22.45L79.84062 28.5125Q79.84062 29.2625 79.93437 29.48125Q80.02812 29.684376 80.23125 29.825Q80.45 29.95 80.84062 29.95Q81.12187 29.95 81.60625 29.871876ZM83.77812 19.153126L83.77812 17.1375L85.54375 17.1375L85.54375 19.153126L83.77812 19.153126ZM83.77812 31.45L83.77812 21.075L85.54375 21.075L85.54375 31.45L83.77812 31.45ZM87.12187 26.2625Q87.12187 23.3875 88.71562 21.996876Q90.05937 20.840626 91.98125 20.840626Q94.12187 20.840626 95.46562 22.246876Q96.825 23.653126 96.825 26.121876Q96.825 28.121876 96.23125 29.278126Q95.6375 30.41875 94.48125 31.059376Q93.34062 31.684376 91.98125 31.684376Q89.79375 31.684376 88.45 30.29375Q87.12187 28.8875 87.12187 26.2625ZM88.91875 26.2625Q88.91875 28.2625 89.77812 29.246876Q90.65312 30.23125 91.98125 30.23125Q93.29375 30.23125 94.15312 29.246876Q95.02812 28.246876 95.02812 26.2Q95.02812 24.278126 94.15312 23.29375Q93.27812 22.29375 91.98125 22.29375Q90.65312 22.29375 89.77812 23.29375Q88.91875 24.278126 88.91875 26.2625ZM98.7625 31.45L98.7625 21.075L100.35625 21.075L100.35625 22.559376Q101.49687 20.840626 103.65312 20.840626Q104.59062 20.840626 105.37187 21.184376Q106.16875 21.5125 106.55937 22.059376Q106.95 22.60625 107.10625 23.35625Q107.2 23.85625 107.2 25.075L107.2 31.45L105.43437 31.45L105.43437 25.1375Q105.43437 24.059376 105.23125 23.528126Q105.02812 22.996876 104.49687 22.684376Q103.98125 22.371876 103.27812 22.371876Q102.15312 22.371876 101.34062 23.090626Q100.52812 23.79375 100.52812 25.778126L100.52812 31.45L98.7625 31.45ZM114.35625 26.85625L116.1375 26.7Q116.2625 27.7625 116.71562 28.45Q117.18437 29.1375 118.15312 29.575Q119.1375 29.996876 120.37187 29.996876Q121.45 29.996876 122.27812 29.684376Q123.10625 29.35625 123.5125 28.79375Q123.91875 28.23125 123.91875 27.559376Q123.91875 26.8875 123.52812 26.3875Q123.1375 25.8875 122.24687 25.54375Q121.66875 25.309376 119.68437 24.840626Q117.71562 24.371876 116.93437 23.95Q115.90312 23.41875 115.40312 22.621876Q114.90312 21.825 114.90312 20.840626Q114.90312 19.746876 115.5125 18.809376Q116.12187 17.871876 117.30937 17.3875Q118.49687 16.8875 119.93437 16.8875Q121.52812 16.8875 122.74687 17.403126Q123.96562 17.91875 124.60625 18.91875Q125.2625 19.903126 125.30937 21.16875L123.49687 21.309376Q123.35625 19.95 122.5125 19.2625Q121.66875 18.559376 120.0125 18.559376Q118.29375 18.559376 117.49687 19.2Q116.71562 19.825 116.71562 20.7Q116.71562 21.48125 117.27812 21.98125Q117.825 22.48125 120.1375 22.996876Q122.45 23.5125 123.30937 23.903126Q124.55937 24.48125 125.15312 25.371876Q125.74687 26.246876 125.74687 27.403126Q125.74687 28.54375 125.09062 29.559376Q124.43437 30.575 123.2 31.1375Q121.98125 31.7 120.45 31.7Q118.5125 31.7 117.2 31.1375Q115.8875 30.559376 115.1375 29.41875Q114.3875 28.278126 114.35625 26.85625ZM127.77812 19.153126L127.77812 17.1375L129.54375 17.1375L129.54375 19.153126L127.77812 19.153126ZM127.77812 31.45L127.77812 21.075L129.54375 21.075L129.54375 31.45L127.77812 31.45ZM130.84062 31.45L130.84062 30.028126L137.45 22.45Q136.325 22.496876 135.46562 22.496876L131.23125 22.496876L131.23125 21.075L139.71562 21.075L139.71562 22.246876L134.09062 28.825L133.0125 30.028126Q134.18437 29.934376 135.23125 29.934376L140.02812 29.934376L140.02812 31.45L130.84062 31.45ZM147.87187 28.10625L149.68437 28.340626Q149.2625 29.91875 148.09062 30.809376Q146.93437 31.684376 145.12187 31.684376Q142.85625 31.684376 141.5125 30.29375Q140.18437 28.8875 140.18437 26.35625Q140.18437 23.73125 141.52812 22.29375Q142.87187 20.840626 145.02812 20.840626Q147.10625 20.840626 148.41875 22.2625Q149.74687 23.66875 149.74687 26.246876Q149.74687 26.403126 149.73125 26.715626L141.99687 26.715626Q142.09062 28.41875 142.96562 29.325Q143.84062 30.23125 145.1375 30.23125Q146.10625 30.23125 146.77812 29.73125Q147.46562 29.215626 147.87187 28.10625ZM142.09062 25.2625L147.8875 25.2625Q147.77812 23.965626 147.23125 23.309376Q146.3875 22.29375 145.04375 22.29375Q143.84062 22.29375 143.0125 23.10625Q142.18437 23.903126 142.09062 25.2625Z" fill-rule="nonzero"/></svg>