<svg version="1.1" viewBox="0.0 0.0 402.0 249.0" fill="none" stroke="none" stroke-linecap="square" stroke-miterlimit="10" width="402" height="249" xmlns:xlink="http://www.w3.org/1999/xlink" xmlns="http://www.w3.org/2000/svg"><path fill="#ffffff" d="M0 0L402.0 0L402.0 249.0L0 249.0L0 0Z" fill-rule="nonzero"/><path stroke="#333333" stroke-width="1.0" stroke-linecap="butt" d="M71.5 216.5L389.5 216.5" fill-rule="nonzero"/><path stroke="#cccccc" stroke-width="1.0" stroke-linecap="butt" d="M71.5 175.5L389.5 175.5" fill-rule="nonzero"/><path stroke="#cccccc" stroke-width="1.0" stroke-linecap="butt" d="M71.5 134.5L389.5 134.5" fill-rule="nonzero"/><path stroke="#cccccc" stroke-width="1.0" stroke-linecap="butt" d="M71.5 92.5L389.5 92.5" fill-rule="nonzero"/><path stroke="#cccccc" stroke-width="1.0" stroke-linecap="butt" d="M71.5 51.5L389.5 51.5" fill-rule="nonzero"/><clipPath id="id_0"><path d="M71.45 51.75L389.55 51.75L389.55 216.55L71.45 216.55L71.45 51.75Z" clip-rule="nonzero"/></clipPath><path stroke="#000000" stroke-width="2.0" stroke-linecap="butt" stroke-opacity="0.0" clip-path="url(#id_0)" d="M167.0 217.0L105.0 217.0L105.0 171.0C105.0 169.89543 105.89543 169.0 107.0 169.0L165.0 169.0C166.10457 169.0 167.0 169.89543 167.0 171.0Z" fill-rule="nonzero"/><path fill="#34a853" clip-path="url(#id_0)" d="M167.0 217.0L105.0 217.0L105.0 171.0C105.0 169.89543 105.89543 169.0 107.0 169.0L165.0 169.0C166.10457 169.0 167.0 169.89543 167.0 171.0Z" fill-rule="nonzero"/><path stroke="#000000" stroke-width="2.0" stroke-linecap="butt" stroke-opacity="0.0" clip-path="url(#id_0)" d="M262.0 217.0L200.0 217.0L200.0 152.0C200.0 150.89543 200.89543 150.0 202.0 150.0L260.0 150.0C261.10458 150.0 262.0 150.89543 262.0 152.0Z" fill-rule="nonzero"/><path fill="#0000ff" clip-path="url(#id_0)" d="M262.0 217.0L200.0 217.0L200.0 152.0C200.0 150.89543 200.89543 150.0 202.0 150.0L260.0 150.0C261.10458 150.0 262.0 150.89543 262.0 152.0Z" fill-rule="nonzero"/><path stroke="#000000" stroke-width="2.0" stroke-linecap="butt" stroke-opacity="0.0" clip-path="url(#id_0)" d="M356.0 217.0L294.0 217.0L294.0 65.0C294.0 63.89543 294.89542 63.0 296.0 63.0L354.0 63.0C355.10458 63.0 356.0 63.89543 356.0 65.0Z" fill-rule="nonzero"/><path fill="#ff9900" clip-path="url(#id_0)" d="M356.0 217.0L294.0 217.0L294.0 65.0C294.0 63.89543 294.89542 63.0 296.0 63.0L354.0 63.0C355.10458 63.0 356.0 63.89543 356.0 65.0Z" fill-rule="nonzero"/><path stroke="#34a853" stroke-width="3.0" stroke-linejoin="round" stroke-linecap="round" d="M131.92188 185.558L126.078125 185.558L126.078125 184.40175L128.84375 181.44862Q129.40625 180.83925 129.67188 180.3705Q129.95312 179.90175 129.95312 179.4955Q129.95312 178.91737 129.65625 178.60487Q129.375 178.27675 128.84375 178.27675Q128.26562 178.27675 127.9375 178.66737Q127.609375 179.058 127.609375 179.71425L125.90625 179.71425Q125.90625 178.933 126.28125 178.29237Q126.65625 177.63612 127.328125 177.27675Q128.01562 176.90175 128.875 176.90175Q130.1875 176.90175 130.92188 177.54237Q131.65625 178.16737 131.65625 179.32362Q131.65625 179.96425 131.32812 180.6205Q131.0 181.27675 130.20312 182.15175L128.26562 184.19862L131.92188 184.19862L131.92188 185.558ZM134.79688 180.54237L135.70312 180.54237Q136.34375 180.54237 136.65625 180.22987Q136.96875 179.90175 136.96875 179.3705Q136.96875 178.85487 136.65625 178.57362Q136.35938 178.27675 135.8125 178.27675Q135.32812 178.27675 135.0 178.54237Q134.67188 178.808 134.67188 179.22987L132.98438 179.22987Q132.98438 178.57362 133.34375 178.04237Q133.70312 177.51112 134.34375 177.21425Q135.0 176.90175 135.78125 176.90175Q137.125 176.90175 137.89062 177.558Q138.67188 178.19862 138.67188 179.33925Q138.67188 179.933 138.3125 180.433Q137.95312 180.91737 137.375 181.16737Q138.09375 181.433 138.4375 181.94862Q138.79688 182.46425 138.79688 183.16737Q138.79688 184.308 137.96875 184.9955Q137.14062 185.683 135.78125 185.683Q134.5 185.683 133.6875 185.01112Q132.875 184.32362 132.875 183.21425L134.5625 183.21425Q134.5625 183.69862 134.92188 184.01112Q135.29688 184.308 135.8125 184.308Q136.42188 184.308 136.76562 183.9955Q137.10938 183.66737 137.10938 183.13612Q137.10938 181.8705 135.70312 181.8705L134.79688 181.8705L134.79688 180.54237ZM145.92188 185.558L140.07812 185.558L140.07812 184.40175L142.84375 181.44862Q143.40625 180.83925 143.67188 180.3705Q143.95312 179.90175 143.95312 179.4955Q143.95312 178.91737 143.65625 178.60487Q143.375 178.27675 142.84375 178.27675Q142.26562 178.27675 141.9375 178.66737Q141.60938 179.058 141.60938 179.71425L139.90625 179.71425Q139.90625 178.933 140.28125 178.29237Q140.65625 177.63612 141.32812 177.27675Q142.01562 176.90175 142.875 176.90175Q144.1875 176.90175 144.92188 177.54237Q145.65625 178.16737 145.65625 179.32362Q145.65625 179.96425 145.32812 180.6205Q145.0 181.27675 144.20312 182.15175L142.26562 184.19862L145.92188 184.19862L145.92188 185.558Z" fill-rule="nonzero"/><path fill="#ffffff" d="M131.92188 185.558L126.078125 185.558L126.078125 184.40175L128.84375 181.44862Q129.40625 180.83925 129.67188 180.3705Q129.95312 179.90175 129.95312 179.4955Q129.95312 178.91737 129.65625 178.60487Q129.375 178.27675 128.84375 178.27675Q128.26562 178.27675 127.9375 178.66737Q127.609375 179.058 127.609375 179.71425L125.90625 179.71425Q125.90625 178.933 126.28125 178.29237Q126.65625 177.63612 127.328125 177.27675Q128.01562 176.90175 128.875 176.90175Q130.1875 176.90175 130.92188 177.54237Q131.65625 178.16737 131.65625 179.32362Q131.65625 179.96425 131.32812 180.6205Q131.0 181.27675 130.20312 182.15175L128.26562 184.19862L131.92188 184.19862L131.92188 185.558ZM134.79688 180.54237L135.70312 180.54237Q136.34375 180.54237 136.65625 180.22987Q136.96875 179.90175 136.96875 179.3705Q136.96875 178.85487 136.65625 178.57362Q136.35938 178.27675 135.8125 178.27675Q135.32812 178.27675 135.0 178.54237Q134.67188 178.808 134.67188 179.22987L132.98438 179.22987Q132.98438 178.57362 133.34375 178.04237Q133.70312 177.51112 134.34375 177.21425Q135.0 176.90175 135.78125 176.90175Q137.125 176.90175 137.89062 177.558Q138.67188 178.19862 138.67188 179.33925Q138.67188 179.933 138.3125 180.433Q137.95312 180.91737 137.375 181.16737Q138.09375 181.433 138.4375 181.94862Q138.79688 182.46425 138.79688 183.16737Q138.79688 184.308 137.96875 184.9955Q137.14062 185.683 135.78125 185.683Q134.5 185.683 133.6875 185.01112Q132.875 184.32362 132.875 183.21425L134.5625 183.21425Q134.5625 183.69862 134.92188 184.01112Q135.29688 184.308 135.8125 184.308Q136.42188 184.308 136.76562 183.9955Q137.10938 183.66737 137.10938 183.13612Q137.10938 181.8705 135.70312 181.8705L134.79688 181.8705L134.79688 180.54237ZM145.92188 185.558L140.07812 185.558L140.07812 184.40175L142.84375 181.44862Q143.40625 180.83925 143.67188 180.3705Q143.95312 179.90175 143.95312 179.4955Q143.95312 178.91737 143.65625 178.60487Q143.375 178.27675 142.84375 178.27675Q142.26562 178.27675 141.9375 178.66737Q141.60938 179.058 141.60938 179.71425L139.90625 179.71425Q139.90625 178.933 140.28125 178.29237Q140.65625 177.63612 141.32812 177.27675Q142.01562 176.90175 142.875 176.90175Q144.1875 176.90175 144.92188 177.54237Q145.65625 178.16737 145.65625 179.32362Q145.65625 179.96425 145.32812 180.6205Q145.0 181.27675 144.20312 182.15175L142.26562 184.19862L145.92188 184.19862L145.92188 185.558Z" fill-rule="nonzero"/><path stroke="#0000ff" stroke-width="3.0" stroke-linejoin="round" stroke-linecap="round" d="M222.79688 162.00238L223.70312 162.00238Q224.34375 162.00238 224.65625 161.68988Q224.96875 161.36176 224.96875 160.8305Q224.96875 160.31488 224.65625 160.03363Q224.35938 159.73676 223.8125 159.73676Q223.32812 159.73676 223.0 160.00238Q222.67188 160.268 222.67188 160.68988L220.98438 160.68988Q220.98438 160.03363 221.34375 159.50238Q221.70312 158.97113 222.34375 158.67426Q223.0 158.36176 223.78125 158.36176Q225.125 158.36176 225.89062 159.018Q226.67188 159.65863 226.67188 160.79926Q226.67188 161.393 226.3125 161.893Q225.95312 162.37738 225.375 162.62738Q226.09375 162.893 226.4375 163.40863Q226.79688 163.92426 226.79688 164.62738Q226.79688 165.768 225.96875 166.4555Q225.14062 167.143 223.78125 167.143Q222.5 167.143 221.6875 166.47113Q220.875 165.78363 220.875 164.67426L222.5625 164.67426Q222.5625 165.15863 222.92188 165.47113Q223.29688 165.768 223.8125 165.768Q224.42188 165.768 224.76562 165.4555Q225.10938 165.12738 225.10938 164.59613Q225.10938 163.3305 223.70312 163.3305L222.79688 163.3305L222.79688 162.00238ZM233.92188 167.018L228.07812 167.018L228.07812 165.86176L230.84375 162.90863Q231.40625 162.29926 231.67188 161.8305Q231.95312 161.36176 231.95312 160.9555Q231.95312 160.37738 231.65625 160.06488Q231.375 159.73676 230.84375 159.73676Q230.26562 159.73676 229.9375 160.12738Q229.60938 160.518 229.60938 161.17426L227.90625 161.17426Q227.90625 160.393 228.28125 159.75238Q228.65625 159.09613 229.32812 158.73676Q230.01562 158.36176 230.875 158.36176Q232.1875 158.36176 232.92188 159.00238Q233.65625 159.62738 233.65625 160.78363Q233.65625 161.42426 233.32812 162.0805Q233.0 162.73676 232.20312 163.61176L230.26562 165.65863L233.92188 165.65863L233.92188 167.018ZM240.92188 167.018L235.07812 167.018L235.07812 165.86176L237.84375 162.90863Q238.40625 162.29926 238.67188 161.8305Q238.95312 161.36176 238.95312 160.9555Q238.95312 160.37738 238.65625 160.06488Q238.375 159.73676 237.84375 159.73676Q237.26562 159.73676 236.9375 160.12738Q236.60938 160.518 236.60938 161.17426L234.90625 161.17426Q234.90625 160.393 235.28125 159.75238Q235.65625 159.09613 236.32812 158.73676Q237.01562 158.36176 237.875 158.36176Q239.1875 158.36176 239.92188 159.00238Q240.65625 159.62738 240.65625 160.78363Q240.65625 161.42426 240.32812 162.0805Q240.0 162.73676 239.20312 163.61176L237.26562 165.65863L240.92188 165.65863L240.92188 167.018Z" fill-rule="nonzero"/><path fill="#ffffff" d="M222.79688 162.00238L223.70312 162.00238Q224.34375 162.00238 224.65625 161.68988Q224.96875 161.36176 224.96875 160.8305Q224.96875 160.31488 224.65625 160.03363Q224.35938 159.73676 223.8125 159.73676Q223.32812 159.73676 223.0 160.00238Q222.67188 160.268 222.67188 160.68988L220.98438 160.68988Q220.98438 160.03363 221.34375 159.50238Q221.70312 158.97113 222.34375 158.67426Q223.0 158.36176 223.78125 158.36176Q225.125 158.36176 225.89062 159.018Q226.67188 159.65863 226.67188 160.79926Q226.67188 161.393 226.3125 161.893Q225.95312 162.37738 225.375 162.62738Q226.09375 162.893 226.4375 163.40863Q226.79688 163.92426 226.79688 164.62738Q226.79688 165.768 225.96875 166.4555Q225.14062 167.143 223.78125 167.143Q222.5 167.143 221.6875 166.47113Q220.875 165.78363 220.875 164.67426L222.5625 164.67426Q222.5625 165.15863 222.92188 165.47113Q223.29688 165.768 223.8125 165.768Q224.42188 165.768 224.76562 165.4555Q225.10938 165.12738 225.10938 164.59613Q225.10938 163.3305 223.70312 163.3305L222.79688 163.3305L222.79688 162.00238ZM233.92188 167.018L228.07812 167.018L228.07812 165.86176L230.84375 162.90863Q231.40625 162.29926 231.67188 161.8305Q231.95312 161.36176 231.95312 160.9555Q231.95312 160.37738 231.65625 160.06488Q231.375 159.73676 230.84375 159.73676Q230.26562 159.73676 229.9375 160.12738Q229.60938 160.518 229.60938 161.17426L227.90625 161.17426Q227.90625 160.393 228.28125 159.75238Q228.65625 159.09613 229.32812 158.73676Q230.01562 158.36176 230.875 158.36176Q232.1875 158.36176 232.92188 159.00238Q233.65625 159.62738 233.65625 160.78363Q233.65625 161.42426 233.32812 162.0805Q233.0 162.73676 232.20312 163.61176L230.26562 165.65863L233.92188 165.65863L233.92188 167.018ZM240.92188 167.018L235.07812 167.018L235.07812 165.86176L237.84375 162.90863Q238.40625 162.29926 238.67188 161.8305Q238.95312 161.36176 238.95312 160.9555Q238.95312 160.37738 238.65625 160.06488Q238.375 159.73676 237.84375 159.73676Q237.26562 159.73676 236.9375 160.12738Q236.60938 160.518 236.60938 161.17426L234.90625 161.17426Q234.90625 160.393 235.28125 159.75238Q235.65625 159.09613 236.32812 158.73676Q237.01562 158.36176 237.875 158.36176Q239.1875 158.36176 239.92188 159.00238Q240.65625 159.62738 240.65625 160.78363Q240.65625 161.42426 240.32812 162.0805Q240.0 162.73676 239.20312 163.61176L237.26562 165.65863L240.92188 165.65863L240.92188 167.018Z" fill-rule="nonzero"/><path stroke="#ff9900" stroke-width="3.0" stroke-linejoin="round" stroke-linecap="round" d="M320.875 72.09588L317.57812 79.674L315.79688 79.674L319.09375 72.51775L314.85938 72.51775L314.85938 71.14275L320.875 71.14275L320.875 72.09588ZM327.09375 76.45525L328.0625 76.45525L328.0625 77.83025L327.09375 77.83025L327.09375 79.674L325.39062 79.674L325.39062 77.83025L321.90625 77.83025L321.82812 76.76775L325.375 71.14275L327.09375 71.14275L327.09375 76.45525ZM323.51562 76.45525L325.39062 76.45525L325.39062 73.45525L325.28125 73.64275L323.51562 76.45525ZM333.67188 71.049L333.67188 72.45525L333.51562 72.45525Q332.35938 72.47088 331.65625 73.049Q330.96875 73.62713 330.82812 74.65838Q331.5 73.97088 332.53125 73.97088Q333.65625 73.97088 334.3125 74.76775Q334.96875 75.56463 334.96875 76.8615Q334.96875 77.68963 334.60938 78.3615Q334.25 79.03338 333.57812 79.424Q332.92188 79.799 332.09375 79.799Q330.75 79.799 329.92188 78.8615Q329.09375 77.90838 329.09375 76.34588L329.09375 75.7365Q329.09375 74.34588 329.60938 73.28338Q330.14062 72.22088 331.10938 71.64275Q332.09375 71.06463 333.39062 71.049L333.67188 71.049ZM332.01562 75.33025Q331.60938 75.33025 331.26562 75.549Q330.9375 75.75213 330.78125 76.1115L330.78125 76.62713Q330.78125 77.47088 331.10938 77.95525Q331.45312 78.424 332.0625 78.424Q332.60938 78.424 332.9375 78.00213Q333.28125 77.56463 333.28125 76.87713Q333.28125 76.174 332.9375 75.75213Q332.59375 75.33025 332.01562 75.33025Z" fill-rule="nonzero"/><path fill="#000000" d="M320.875 72.09588L317.57812 79.674L315.79688 79.674L319.09375 72.51775L314.85938 72.51775L314.85938 71.14275L320.875 71.14275L320.875 72.09588ZM327.09375 76.45525L328.0625 76.45525L328.0625 77.83025L327.09375 77.83025L327.09375 79.674L325.39062 79.674L325.39062 77.83025L321.90625 77.83025L321.82812 76.76775L325.375 71.14275L327.09375 71.14275L327.09375 76.45525ZM323.51562 76.45525L325.39062 76.45525L325.39062 73.45525L325.28125 73.64275L323.51562 76.45525ZM333.67188 71.049L333.67188 72.45525L333.51562 72.45525Q332.35938 72.47088 331.65625 73.049Q330.96875 73.62713 330.82812 74.65838Q331.5 73.97088 332.53125 73.97088Q333.65625 73.97088 334.3125 74.76775Q334.96875 75.56463 334.96875 76.8615Q334.96875 77.68963 334.60938 78.3615Q334.25 79.03338 333.57812 79.424Q332.92188 79.799 332.09375 79.799Q330.75 79.799 329.92188 78.8615Q329.09375 77.90838 329.09375 76.34588L329.09375 75.7365Q329.09375 74.34588 329.60938 73.28338Q330.14062 72.22088 331.10938 71.64275Q332.09375 71.06463 333.39062 71.049L333.67188 71.049ZM332.01562 75.33025Q331.60938 75.33025 331.26562 75.549Q330.9375 75.75213 330.78125 76.1115L330.78125 76.62713Q330.78125 77.47088 331.10938 77.95525Q331.45312 78.424 332.0625 78.424Q332.60938 78.424 332.9375 78.00213Q333.28125 77.56463 333.28125 76.87713Q333.28125 76.174 332.9375 75.75213Q332.59375 75.33025 332.01562 75.33025Z" fill-rule="nonzero"/><path fill="#000000" d="M23.450003 148.85312L17.231253 148.85312L17.231253 147.91562L18.106253 147.91562Q17.637503 147.61874 17.371878 147.13437Q17.090628 146.65 17.090628 146.025Q17.090628 145.3375 17.371878 144.9Q17.653128 144.44687 18.168753 144.275Q17.090628 143.525 17.090628 142.35312Q17.090628 141.41562 17.606253 140.93124Q18.106253 140.43124 19.184378 140.43124L23.450003 140.43124L23.450003 141.47812L19.528128 141.47812Q18.903128 141.47812 18.621878 141.5875Q18.340628 141.68124 18.168753 141.94687Q17.996878 142.2125 17.996878 142.5875Q17.996878 143.24374 18.434378 143.68124Q18.871878 144.10312 19.840628 144.10312L23.450003 144.10312L23.450003 145.16562L19.403128 145.16562Q18.700003 145.16562 18.356253 145.43124Q17.996878 145.68124 17.996878 146.25937Q17.996878 146.7125 18.231253 147.0875Q18.465628 147.4625 18.918753 147.63437Q19.371878 147.80624 20.215628 147.80624L23.450003 147.80624L23.450003 148.85312ZM21.590628 138.275L21.434378 137.24374Q22.059378 137.15 22.387503 136.75937Q22.715628 136.35312 22.715628 135.61874Q22.715628 134.9 22.434378 134.55624Q22.137503 134.19687 21.731253 134.19687Q21.371878 134.19687 21.168753 134.50937Q21.028128 134.72812 20.809378 135.5875Q20.512503 136.74374 20.309378 137.19687Q20.090628 137.63437 19.715628 137.86874Q19.340628 138.10312 18.871878 138.10312Q18.465628 138.10312 18.106253 137.91562Q17.746878 137.72812 17.512503 137.4Q17.340628 137.15 17.215628 136.72812Q17.090628 136.30624 17.090628 135.80624Q17.090628 135.0875 17.309378 134.54062Q17.512503 133.97812 17.871878 133.7125Q18.231253 133.44687 18.825003 133.35312L18.965628 134.38437Q18.496878 134.44687 18.231253 134.79062Q17.950003 135.11874 17.950003 135.74374Q17.950003 136.4625 18.200003 136.775Q18.434378 137.0875 18.762503 137.0875Q18.965628 137.0875 19.121878 136.9625Q19.293753 136.82187 19.403128 136.55624Q19.465628 136.4 19.668753 135.61874Q19.981253 134.49374 20.168753 134.05624Q20.356253 133.61874 20.715628 133.36874Q21.075003 133.11874 21.621878 133.11874Q22.153128 133.11874 22.621878 133.43124Q23.075003 133.72812 23.340628 134.30624Q23.590628 134.88437 23.590628 135.61874Q23.590628 136.8375 23.090628 137.47812Q22.575003 138.10312 21.590628 138.275Z" fill-rule="nonzero"/><path fill="#000000" d="M58.95 216.31563Q58.95 214.78438 59.2625 213.8625Q59.575 212.925 60.184376 212.425Q60.809376 211.925 61.746876 211.925Q62.434376 211.925 62.95 212.20625Q63.48125 212.4875 63.825 213.01875Q64.16875 213.53438 64.35625 214.28438Q64.54375 215.03438 64.54375 216.31563Q64.54375 217.83125 64.23125 218.75313Q63.934376 219.675 63.309376 220.19063Q62.7 220.69063 61.746876 220.69063Q60.5125 220.69063 59.79375 219.8Q58.95 218.7375 58.95 216.31563ZM60.028126 216.31563Q60.028126 218.425 60.528126 219.12813Q61.028126 219.83125 61.746876 219.83125Q62.48125 219.83125 62.965626 219.12813Q63.465626 218.425 63.465626 216.31563Q63.465626 214.19063 62.965626 213.50313Q62.48125 212.8 61.73125 212.8Q61.0125 212.8 60.575 213.40938Q60.028126 214.19063 60.028126 216.31563Z" fill-rule="nonzero"/><path fill="#000000" d="M50.496876 178.33438L50.496876 179.35L44.809376 179.35Q44.809376 178.975 44.934376 178.61563Q45.153126 178.0375 45.621876 177.475Q46.10625 176.9125 47.0125 176.17813Q48.41875 175.02188 48.903126 174.35Q49.403126 173.67813 49.403126 173.08438Q49.403126 172.45938 48.95 172.0375Q48.496876 171.6 47.778126 171.6Q47.0125 171.6 46.559376 172.05313Q46.10625 172.50626 46.090626 173.31876L45.0125 173.20938Q45.121876 171.99063 45.840626 171.36563Q46.575 170.725 47.809376 170.725Q49.04375 170.725 49.7625 171.4125Q50.48125 172.1 50.48125 173.11563Q50.48125 173.63126 50.2625 174.13126Q50.059376 174.61563 49.559376 175.17813Q49.075 175.725 47.95 176.67813Q46.996876 177.475 46.715626 177.77188Q46.45 178.05313 46.278126 178.33438L50.496876 178.33438ZM51.95 175.11563Q51.95 173.58438 52.2625 172.6625Q52.575 171.725 53.184376 171.225Q53.809376 170.725 54.746876 170.725Q55.434376 170.725 55.95 171.00626Q56.48125 171.2875 56.825 171.81876Q57.16875 172.33438 57.35625 173.08438Q57.54375 173.83438 57.54375 175.11563Q57.54375 176.63126 57.23125 177.55313Q56.934376 178.475 56.309376 178.99063Q55.7 179.49063 54.746876 179.49063Q53.5125 179.49063 52.79375 178.6Q51.95 177.5375 51.95 175.11563ZM53.028126 175.11563Q53.028126 177.225 53.528126 177.92813Q54.028126 178.63126 54.746876 178.63126Q55.48125 178.63126 55.965626 177.92813Q56.465626 177.225 56.465626 175.11563Q56.465626 172.99063 55.965626 172.30313Q55.48125 171.6 54.73125 171.6Q54.0125 171.6 53.575 172.20938Q53.028126 172.99063 53.028126 175.11563ZM58.95 175.11563Q58.95 173.58438 59.2625 172.6625Q59.575 171.725 60.184376 171.225Q60.809376 170.725 61.746876 170.725Q62.434376 170.725 62.95 171.00626Q63.48125 171.2875 63.825 171.81876Q64.16875 172.33438 64.35625 173.08438Q64.54375 173.83438 64.54375 175.11563Q64.54375 176.63126 64.23125 177.55313Q63.934376 178.475 63.309376 178.99063Q62.7 179.49063 61.746876 179.49063Q60.5125 179.49063 59.79375 178.6Q58.95 177.5375 58.95 175.11563ZM60.028126 175.11563Q60.028126 177.225 60.528126 177.92813Q61.028126 178.63126 61.746876 178.63126Q62.48125 178.63126 62.965626 177.92813Q63.465626 177.225 63.465626 175.11563Q63.465626 172.99063 62.965626 172.30313Q62.48125 171.6 61.73125 171.6Q61.0125 171.6 60.575 172.20938Q60.028126 172.99063 60.028126 175.11563Z" fill-rule="nonzero"/><path fill="#000000" d="M48.325 138.15L48.325 136.0875L44.60625 136.0875L44.60625 135.11874L48.528126 129.55624L49.3875 129.55624L49.3875 135.11874L50.54375 135.11874L50.54375 136.0875L49.3875 136.0875L49.3875 138.15L48.325 138.15ZM48.325 135.11874L48.325 131.25937L45.6375 135.11874L48.325 135.11874ZM51.95 133.91562Q51.95 132.38437 52.2625 131.4625Q52.575 130.525 53.184376 130.025Q53.809376 129.525 54.746876 129.525Q55.434376 129.525 55.95 129.80624Q56.48125 130.0875 56.825 130.61874Q57.16875 131.13437 57.35625 131.88437Q57.54375 132.63437 57.54375 133.91562Q57.54375 135.43124 57.23125 136.35312Q56.934376 137.275 56.309376 137.79062Q55.7 138.29062 54.746876 138.29062Q53.5125 138.29062 52.79375 137.4Q51.95 136.3375 51.95 133.91562ZM53.028126 133.91562Q53.028126 136.025 53.528126 136.72812Q54.028126 137.43124 54.746876 137.43124Q55.48125 137.43124 55.965626 136.72812Q56.465626 136.025 56.465626 133.91562Q56.465626 131.79062 55.965626 131.10312Q55.48125 130.4 54.73125 130.4Q54.0125 130.4 53.575 131.00937Q53.028126 131.79062 53.028126 133.91562ZM58.95 133.91562Q58.95 132.38437 59.2625 131.4625Q59.575 130.525 60.184376 130.025Q60.809376 129.525 61.746876 129.525Q62.434376 129.525 62.95 129.80624Q63.48125 130.0875 63.825 130.61874Q64.16875 131.13437 64.35625 131.88437Q64.54375 132.63437 64.54375 133.91562Q64.54375 135.43124 64.23125 136.35312Q63.934376 137.275 63.309376 137.79062Q62.7 138.29062 61.746876 138.29062Q60.5125 138.29062 59.79375 137.4Q58.95 136.3375 58.95 133.91562ZM60.028126 133.91562Q60.028126 136.025 60.528126 136.72812Q61.028126 137.43124 61.746876 137.43124Q62.48125 137.43124 62.965626 136.72812Q63.465626 136.025 63.465626 133.91562Q63.465626 131.79062 62.965626 131.10312Q62.48125 130.4 61.73125 130.4Q61.0125 130.4 60.575 131.00937Q60.028126 131.79062 60.028126 133.91562Z" fill-rule="nonzero"/><path fill="#000000" d="M50.41875 90.46562L49.371876 90.54375Q49.23125 89.91875 48.98125 89.6375Q48.54375 89.18437 47.91875 89.18437Q47.41875 89.18437 47.028126 89.46562Q46.54375 89.84062 46.246876 90.54375Q45.965626 91.23125 45.95 92.5125Q46.325 91.93437 46.871876 91.65312Q47.434376 91.37187 48.04375 91.37187Q49.090626 91.37187 49.825 92.15312Q50.575 92.93437 50.575 94.15312Q50.575 94.96562 50.215626 95.66875Q49.871876 96.35625 49.2625 96.73125Q48.653126 97.09062 47.8875 97.09062Q46.559376 97.09062 45.73125 96.12187Q44.903126 95.15312 44.903126 92.93437Q44.903126 90.43437 45.825 89.30937Q46.621876 88.325 47.98125 88.325Q48.996876 88.325 49.6375 88.90312Q50.29375 89.46562 50.41875 90.46562ZM46.121876 94.16875Q46.121876 94.71562 46.340626 95.21562Q46.575 95.7 46.98125 95.96562Q47.403126 96.23125 47.871876 96.23125Q48.528126 96.23125 49.0125 95.7Q49.496876 95.15312 49.496876 94.23125Q49.496876 93.34062 49.0125 92.825Q48.54375 92.30937 47.825 92.30937Q47.10625 92.30937 46.60625 92.825Q46.121876 93.34062 46.121876 94.16875ZM51.95 92.71562Q51.95 91.18437 52.2625 90.2625Q52.575 89.325 53.184376 88.825Q53.809376 88.325 54.746876 88.325Q55.434376 88.325 55.95 88.60625Q56.48125 88.8875 56.825 89.41875Q57.16875 89.93437 57.35625 90.68437Q57.54375 91.43437 57.54375 92.71562Q57.54375 94.23125 57.23125 95.15312Q56.934376 96.075 56.309376 96.59062Q55.7 97.09062 54.746876 97.09062Q53.5125 97.09062 52.79375 96.2Q51.95 95.1375 51.95 92.71562ZM53.028126 92.71562Q53.028126 94.825 53.528126 95.52812Q54.028126 96.23125 54.746876 96.23125Q55.48125 96.23125 55.965626 95.52812Q56.465626 94.825 56.465626 92.71562Q56.465626 90.59062 55.965626 89.90312Q55.48125 89.2 54.73125 89.2Q54.0125 89.2 53.575 89.80937Q53.028126 90.59062 53.028126 92.71562ZM58.95 92.71562Q58.95 91.18437 59.2625 90.2625Q59.575 89.325 60.184376 88.825Q60.809376 88.325 61.746876 88.325Q62.434376 88.325 62.95 88.60625Q63.48125 88.8875 63.825 89.41875Q64.16875 89.93437 64.35625 90.68437Q64.54375 91.43437 64.54375 92.71562Q64.54375 94.23125 64.23125 95.15312Q63.934376 96.075 63.309376 96.59062Q62.7 97.09062 61.746876 97.09062Q60.5125 97.09062 59.79375 96.2Q58.95 95.1375 58.95 92.71562ZM60.028126 92.71562Q60.028126 94.825 60.528126 95.52812Q61.028126 96.23125 61.746876 96.23125Q62.48125 96.23125 62.965626 95.52812Q63.465626 94.825 63.465626 92.71562Q63.465626 90.59062 62.965626 89.90312Q62.48125 89.2 61.73125 89.2Q61.0125 89.2 60.575 89.80937Q60.028126 90.59062 60.028126 92.71562Z" fill-rule="nonzero"/><path fill="#000000" d="M46.575 51.09375Q45.91875 50.84375 45.590626 50.40625Q45.278126 49.953125 45.278126 49.34375Q45.278126 48.40625 45.95 47.765625Q46.6375 47.125 47.746876 47.125Q48.871876 47.125 49.559376 47.78125Q50.246876 48.4375 50.246876 49.375Q50.246876 49.96875 49.934376 50.40625Q49.621876 50.84375 48.98125 51.09375Q49.778126 51.34375 50.184376 51.921875Q50.590626 52.5 50.590626 53.296875Q50.590626 54.390625 49.809376 55.140625Q49.04375 55.890625 47.7625 55.890625Q46.496876 55.890625 45.715626 55.140625Q44.934376 54.390625 44.934376 53.265625Q44.934376 52.421875 45.35625 51.859375Q45.79375 51.296875 46.575 51.09375ZM46.35625 49.296875Q46.35625 49.90625 46.746876 50.296875Q47.153126 50.6875 47.778126 50.6875Q48.3875 50.6875 48.778126 50.3125Q49.16875 49.921875 49.16875 49.359375Q49.16875 48.78125 48.7625 48.390625Q48.35625 47.984375 47.7625 47.984375Q47.153126 47.984375 46.746876 48.375Q46.35625 48.765625 46.35625 49.296875ZM46.028126 53.265625Q46.028126 53.71875 46.23125 54.140625Q46.45 54.5625 46.871876 54.796875Q47.29375 55.03125 47.778126 55.03125Q48.528126 55.03125 49.0125 54.546875Q49.5125 54.0625 49.5125 53.3125Q49.5125 52.546875 49.0125 52.046875Q48.5125 51.546875 47.746876 51.546875Q46.996876 51.546875 46.5125 52.046875Q46.028126 52.53125 46.028126 53.265625ZM51.95 51.515625Q51.95 49.984375 52.2625 49.0625Q52.575 48.125 53.184376 47.625Q53.809376 47.125 54.746876 47.125Q55.434376 47.125 55.95 47.40625Q56.48125 47.6875 56.825 48.21875Q57.16875 48.734375 57.35625 49.484375Q57.54375 50.234375 57.54375 51.515625Q57.54375 53.03125 57.23125 53.953125Q56.934376 54.875 56.309376 55.390625Q55.7 55.890625 54.746876 55.890625Q53.5125 55.890625 52.79375 55.0Q51.95 53.9375 51.95 51.515625ZM53.028126 51.515625Q53.028126 53.625 53.528126 54.328125Q54.028126 55.03125 54.746876 55.03125Q55.48125 55.03125 55.965626 54.328125Q56.465626 53.625 56.465626 51.515625Q56.465626 49.390625 55.965626 48.703125Q55.48125 48.0 54.73125 48.0Q54.0125 48.0 53.575 48.609375Q53.028126 49.390625 53.028126 51.515625ZM58.95 51.515625Q58.95 49.984375 59.2625 49.0625Q59.575 48.125 60.184376 47.625Q60.809376 47.125 61.746876 47.125Q62.434376 47.125 62.95 47.40625Q63.48125 47.6875 63.825 48.21875Q64.16875 48.734375 64.35625 49.484375Q64.54375 50.234375 64.54375 51.515625Q64.54375 53.03125 64.23125 53.953125Q63.934376 54.875 63.309376 55.390625Q62.7 55.890625 61.746876 55.890625Q60.5125 55.890625 59.79375 55.0Q58.95 53.9375 58.95 51.515625ZM60.028126 51.515625Q60.028126 53.625 60.528126 54.328125Q61.028126 55.03125 61.746876 55.03125Q62.48125 55.03125 62.965626 54.328125Q63.465626 53.625 63.465626 51.515625Q63.465626 49.390625 62.965626 48.703125Q62.48125 48.0 61.73125 48.0Q61.0125 48.0 60.575 48.609375Q60.028126 49.390625 60.028126 51.515625Z" fill-rule="nonzero"/><path fill="#000000" d="M104.09165 230.78438L105.15415 230.69063Q105.23228 231.34688 105.51353 231.75313Q105.79478 232.15938 106.3729 232.425Q106.96665 232.675 107.70103 232.675Q108.34165 232.675 108.84165 232.4875Q109.34165 232.28438 109.57603 231.95625Q109.82603 231.6125 109.82603 231.22188Q109.82603 230.81563 109.59165 230.51875Q109.35728 230.20625 108.82603 230.00313Q108.46665 229.8625 107.27915 229.58125Q106.10728 229.3 105.63853 229.05Q105.01353 228.72188 104.71665 228.25313Q104.41978 227.76875 104.41978 227.175Q104.41978 226.53438 104.77915 225.97188Q105.15415 225.39375 105.85728 225.1125Q106.57603 224.81563 107.4354 224.81563Q108.38853 224.81563 109.1229 225.12813Q109.85728 225.425 110.2479 226.03438Q110.63853 226.62813 110.66978 227.37813L109.57603 227.45625Q109.48228 226.64375 108.96665 226.2375Q108.46665 225.81563 107.48228 225.81563Q106.45103 225.81563 105.98228 226.19063Q105.51353 226.56563 105.51353 227.09688Q105.51353 227.56563 105.84165 227.8625Q106.16978 228.15938 107.54478 228.47188Q108.9354 228.78438 109.45103 229.01875Q110.20103 229.37813 110.5604 229.90938Q110.91978 230.425 110.91978 231.12813Q110.91978 231.81563 110.52915 232.425Q110.13853 233.01875 109.40415 233.3625Q108.66978 233.69063 107.7479 233.69063Q106.57603 233.69063 105.77915 233.3625Q104.9979 233.01875 104.54478 232.33125Q104.10728 231.64375 104.09165 230.78438ZM112.34165 235.94063L112.34165 227.33125L113.29478 227.33125L113.29478 228.12813Q113.63853 227.65938 114.0604 227.425Q114.4979 227.19063 115.10728 227.19063Q115.90415 227.19063 116.51353 227.59688Q117.1229 228.00313 117.41978 228.75313Q117.73228 229.50313 117.73228 230.39375Q117.73228 231.34688 117.38853 232.1125Q117.0604 232.87813 116.40415 233.28438Q115.7479 233.69063 115.02915 233.69063Q114.4979 233.69063 114.07603 233.47188Q113.65415 233.2375 113.38853 232.90938L113.38853 235.94063L112.34165 235.94063ZM113.29478 230.47188Q113.29478 231.675 113.77915 232.25313Q114.26353 232.81563 114.95103 232.81563Q115.65415 232.81563 116.15415 232.22188Q116.65415 231.62813 116.65415 230.37813Q116.65415 229.19063 116.16978 228.6125Q115.6854 228.01875 114.9979 228.01875Q114.32603 228.01875 113.8104 228.64375Q113.29478 229.26875 113.29478 230.47188ZM119.32603 233.55L119.32603 227.33125L120.27915 227.33125L120.27915 228.26875Q120.63853 227.6125 120.9354 227.40938Q121.2479 227.19063 121.6229 227.19063Q122.15415 227.19063 122.70103 227.51875L122.34165 228.50313Q121.95103 228.26875 121.57603 228.26875Q121.21665 228.26875 120.9354 228.4875Q120.66978 228.69063 120.5604 229.06563Q120.3729 229.62813 120.3729 230.28438L120.3729 233.55L119.32603 233.55ZM123.34165 226.175L123.34165 224.95625L124.40415 224.95625L124.40415 226.175L123.34165 226.175ZM123.34165 233.55L123.34165 227.33125L124.40415 227.33125L124.40415 233.55L123.34165 233.55ZM126.34165 233.55L126.34165 227.33125L127.27915 227.33125L127.27915 228.20625Q127.96665 227.19063 129.26352 227.19063Q129.82602 227.19063 130.29477 227.39375Q130.77914 227.59688 131.01352 227.925Q131.2479 228.25313 131.34164 228.69063Q131.38852 228.9875 131.38852 229.72188L131.38852 233.55L130.34164 233.55L130.34164 229.76875Q130.34164 229.1125 130.21664 228.8Q130.09164 228.4875 129.77914 228.3Q129.46664 228.09688 129.04477 228.09688Q128.3729 228.09688 127.8729 228.53438Q127.38853 228.95625 127.38853 230.14375L127.38853 233.55L126.34165 233.55ZM133.13852 234.06563L134.16977 234.22188Q134.23227 234.69063 134.52914 234.90938Q134.91977 235.20625 135.59164 235.20625Q136.32602 235.20625 136.71664 234.90938Q137.1229 234.6125 137.26352 234.09688Q137.35727 233.76875 137.34164 232.7375Q136.65414 233.55 135.6229 233.55Q134.34164 233.55 133.63852 232.62813Q132.9354 231.69063 132.9354 230.40938Q132.9354 229.51875 133.2479 228.76875Q133.57602 228.00313 134.1854 227.59688Q134.79477 227.19063 135.6229 227.19063Q136.73227 227.19063 137.45102 228.08125L137.45102 227.33125L138.41977 227.33125L138.41977 232.70625Q138.41977 234.15938 138.1229 234.76875Q137.82602 235.37813 137.1854 235.72188Q136.54477 236.08125 135.60727 236.08125Q134.4979 236.08125 133.8104 235.58125Q133.1229 235.08125 133.13852 234.06563ZM134.01352 230.33125Q134.01352 231.55 134.4979 232.1125Q134.98227 232.675 135.71664 232.675Q136.45102 232.675 136.9354 232.1125Q137.4354 231.55 137.4354 230.3625Q137.4354 229.22188 136.91977 228.64375Q136.41977 228.06563 135.70102 228.06563Q134.9979 228.06563 134.4979 228.64375Q134.01352 229.20625 134.01352 230.33125ZM143.41977 233.55L143.41977 224.95625L146.65414 224.95625Q147.63852 224.95625 148.23227 225.22188Q148.82602 225.4875 149.15414 226.03438Q149.4979 226.56563 149.4979 227.15938Q149.4979 227.70625 149.20102 228.19063Q148.90414 228.675 148.29477 228.97188Q149.07602 229.20625 149.48227 229.76875Q149.90414 230.31563 149.90414 231.06563Q149.90414 231.65938 149.65414 232.19063Q149.40414 232.70625 149.02914 232.9875Q148.65414 233.26875 148.07602 233.40938Q147.51352 233.55 146.70102 233.55L143.41977 233.55ZM144.5604 228.56563L146.41977 228.56563Q147.16977 228.56563 147.4979 228.47188Q147.9354 228.34688 148.15414 228.05Q148.3729 227.7375 148.3729 227.28438Q148.3729 226.8625 148.16977 226.53438Q147.96664 226.20625 147.57602 226.09688Q147.20102 225.97188 146.27914 225.97188L144.5604 225.97188L144.5604 228.56563ZM144.5604 232.53438L146.70102 232.53438Q147.2479 232.53438 147.46664 232.4875Q147.8729 232.425 148.1229 232.26875Q148.38852 232.09688 148.5604 231.78438Q148.73227 231.47188 148.73227 231.06563Q148.73227 230.58125 148.48227 230.22188Q148.2479 229.8625 147.8104 229.72188Q147.3729 229.58125 146.54477 229.58125L144.5604 229.58125L144.5604 232.53438ZM150.95102 230.44063Q150.95102 228.70625 151.90414 227.87813Q152.70102 227.19063 153.85727 227.19063Q155.13852 227.19063 155.95102 228.03438Q156.77914 228.8625 156.77914 230.34688Q156.77914 231.55 156.41977 232.2375Q156.0604 232.925 155.35727 233.31563Q154.66977 233.69063 153.85727 233.69063Q152.5604 233.69063 151.7479 232.8625Q150.95102 232.01875 150.95102 230.44063ZM152.02914 230.44063Q152.02914 231.62813 152.54477 232.22188Q153.07602 232.81563 153.85727 232.81563Q154.65414 232.81563 155.16977 232.22188Q155.6854 231.62813 155.6854 230.40938Q155.6854 229.25313 155.15414 228.65938Q154.63852 228.06563 153.85727 228.06563Q153.07602 228.06563 152.54477 228.65938Q152.02914 229.2375 152.02914 230.44063ZM157.95102 230.44063Q157.95102 228.70625 158.90414 227.87813Q159.70102 227.19063 160.85727 227.19063Q162.13852 227.19063 162.95102 228.03438Q163.77914 228.8625 163.77914 230.34688Q163.77914 231.55 163.41977 232.2375Q163.0604 232.925 162.35727 233.31563Q161.66977 233.69063 160.85727 233.69063Q159.5604 233.69063 158.7479 232.8625Q157.95102 232.01875 157.95102 230.44063ZM159.02914 230.44063Q159.02914 231.62813 159.54477 232.22188Q160.07602 232.81563 160.85727 232.81563Q161.65414 232.81563 162.16977 232.22188Q162.6854 231.62813 162.6854 230.40938Q162.6854 229.25313 162.15414 228.65938Q161.63852 228.06563 160.85727 228.06563Q160.07602 228.06563 159.54477 228.65938Q159.02914 229.2375 159.02914 230.44063ZM167.63852 232.6125L167.79477 233.53438Q167.34164 233.62813 166.9979 233.62813Q166.41977 233.62813 166.10727 233.45625Q165.79477 233.26875 165.65414 232.97188Q165.52914 232.675 165.52914 231.72188L165.52914 228.14375L164.76352 228.14375L164.76352 227.33125L165.52914 227.33125L165.52914 225.78438L166.57602 225.15938L166.57602 227.33125L167.63852 227.33125L167.63852 228.14375L166.57602 228.14375L166.57602 231.78438Q166.57602 232.2375 166.6229 232.3625Q166.6854 232.4875 166.8104 232.56563Q166.9354 232.64375 167.16977 232.64375Q167.35727 232.64375 167.63852 232.6125Z" fill-rule="nonzero"/><path fill="#000000" d="M214.4375 232.62813Q215.23438 233.175 215.89062 233.425L215.5625 234.22188Q214.64062 233.87813 213.71875 233.15938Q212.76562 233.69063 211.60938 233.69063Q210.4375 233.69063 209.48438 233.12813Q208.54688 232.56563 208.03125 231.55Q207.51562 230.53438 207.51562 229.25313Q207.51562 227.9875 208.03125 226.94063Q208.54688 225.89375 209.5 225.34688Q210.45312 224.8 211.625 224.8Q212.8125 224.8 213.76562 225.37813Q214.73438 225.94063 215.23438 226.95625Q215.73438 227.97188 215.73438 229.25313Q215.73438 230.31563 215.40625 231.15938Q215.09375 232.00313 214.4375 232.62813ZM211.9375 231.175Q212.92188 231.45625 213.5625 232.00313Q214.5625 231.08125 214.5625 229.25313Q214.5625 228.20625 214.20312 227.425Q213.84375 226.64375 213.15625 226.22188Q212.48438 225.78438 211.64062 225.78438Q210.35938 225.78438 209.51562 226.65938Q208.6875 227.51875 208.6875 229.25313Q208.6875 230.925 209.51562 231.83125Q210.34375 232.72188 211.64062 232.72188Q212.25 232.72188 212.78125 232.4875Q212.25 232.14375 211.65625 232.00313L211.9375 231.175ZM220.875 233.55L220.875 232.62813Q220.14062 233.69063 218.89062 233.69063Q218.34375 233.69063 217.85938 233.4875Q217.39062 233.26875 217.15625 232.95625Q216.92188 232.62813 216.82812 232.15938Q216.76562 231.8625 216.76562 231.175L216.76562 227.33125L217.82812 227.33125L217.82812 230.78438Q217.82812 231.59688 217.89062 231.89375Q217.98438 232.3 218.29688 232.55Q218.625 232.78438 219.10938 232.78438Q219.57812 232.78438 219.98438 232.55Q220.40625 232.3 220.57812 231.87813Q220.76562 231.45625 220.76562 230.65938L220.76562 227.33125L221.8125 227.33125L221.8125 233.55L220.875 233.55ZM227.85938 232.78438Q227.26562 233.28438 226.71875 233.4875Q226.1875 233.69063 225.5625 233.69063Q224.53125 233.69063 223.98438 233.19063Q223.4375 232.69063 223.4375 231.90938Q223.4375 231.45625 223.64062 231.08125Q223.84375 230.69063 224.1875 230.47188Q224.53125 230.2375 224.95312 230.12813Q225.25 230.03438 225.89062 229.95625Q227.15625 229.81563 227.76562 229.59688Q227.76562 229.37813 227.76562 229.33125Q227.76562 228.675 227.46875 228.40938Q227.0625 228.06563 226.26562 228.06563Q225.53125 228.06563 225.17188 228.33125Q224.8125 228.58125 224.64062 229.2375L223.60938 229.09688Q223.75 228.44063 224.07812 228.03438Q224.40625 227.62813 225.01562 227.40938Q225.625 227.19063 226.42188 227.19063Q227.21875 227.19063 227.71875 227.37813Q228.21875 227.56563 228.45312 227.84688Q228.6875 228.12813 228.78125 228.56563Q228.82812 228.83125 228.82812 229.53438L228.82812 230.94063Q228.82812 232.40938 228.89062 232.8Q228.96875 233.19063 229.17188 233.55L228.0625 233.55Q227.90625 233.22188 227.85938 232.78438ZM227.76562 230.425Q227.1875 230.65938 226.04688 230.83125Q225.39062 230.925 225.125 231.05Q224.85938 231.15938 224.70312 231.37813Q224.5625 231.59688 224.5625 231.87813Q224.5625 232.3 224.875 232.58125Q225.20312 232.8625 225.8125 232.8625Q226.42188 232.8625 226.89062 232.59688Q227.375 232.33125 227.59375 231.8625Q227.76562 231.50313 227.76562 230.81563L227.76562 230.425ZM230.78125 233.55L230.78125 227.33125L231.73438 227.33125L231.73438 228.26875Q232.09375 227.6125 232.39062 227.40938Q232.70312 227.19063 233.07812 227.19063Q233.60938 227.19063 234.15625 227.51875L233.79688 228.50313Q233.40625 228.26875 233.03125 228.26875Q232.67188 228.26875 232.39062 228.4875Q232.125 228.69063 232.01562 229.06563Q231.82812 229.62813 231.82812 230.28438L231.82812 233.55L230.78125 233.55ZM234.79688 233.55L234.79688 224.95625L235.85938 224.95625L235.85938 229.8625L238.34375 227.33125L239.71875 227.33125L237.32812 229.62813L239.95312 233.55L238.65625 233.55L236.59375 230.3625L235.85938 231.08125L235.85938 233.55L234.79688 233.55ZM244.875 233.55L244.875 232.62813Q244.14062 233.69063 242.89062 233.69063Q242.34375 233.69063 241.85938 233.4875Q241.39062 233.26875 241.15625 232.95625Q240.92188 232.62813 240.82812 232.15938Q240.76562 231.8625 240.76562 231.175L240.76562 227.33125L241.82812 227.33125L241.82812 230.78438Q241.82812 231.59688 241.89062 231.89375Q241.98438 232.3 242.29688 232.55Q242.625 232.78438 243.10938 232.78438Q243.57812 232.78438 243.98438 232.55Q244.40625 232.3 244.57812 231.87813Q244.76562 231.45625 244.76562 230.65938L244.76562 227.33125L245.8125 227.33125L245.8125 233.55L244.875 233.55ZM247.375 231.69063L248.40625 231.53438Q248.5 232.15938 248.89062 232.4875Q249.29688 232.81563 250.03125 232.81563Q250.75 232.81563 251.09375 232.53438Q251.45312 232.2375 251.45312 231.83125Q251.45312 231.47188 251.14062 231.26875Q250.92188 231.12813 250.0625 230.90938Q248.90625 230.6125 248.45312 230.40938Q248.01562 230.19063 247.78125 229.81563Q247.54688 229.44063 247.54688 228.97188Q247.54688 228.56563 247.73438 228.20625Q247.92188 227.84688 248.25 227.6125Q248.5 227.44063 248.92188 227.31563Q249.34375 227.19063 249.84375 227.19063Q250.5625 227.19063 251.10938 227.40938Q251.67188 227.6125 251.9375 227.97188Q252.20312 228.33125 252.29688 228.925L251.26562 229.06563Q251.20312 228.59688 250.85938 228.33125Q250.53125 228.05 249.90625 228.05Q249.1875 228.05 248.875 228.3Q248.5625 228.53438 248.5625 228.8625Q248.5625 229.06563 248.6875 229.22188Q248.82812 229.39375 249.09375 229.50313Q249.25 229.56563 250.03125 229.76875Q251.15625 230.08125 251.59375 230.26875Q252.03125 230.45625 252.28125 230.81563Q252.53125 231.175 252.53125 231.72188Q252.53125 232.25313 252.21875 232.72188Q251.92188 233.175 251.34375 233.44063Q250.76562 233.69063 250.03125 233.69063Q248.8125 233.69063 248.17188 233.19063Q247.54688 232.675 247.375 231.69063Z" fill-rule="nonzero"/><path fill="#000000" d="M291.89273 232.62813Q292.6896 233.175 293.34586 233.425L293.01773 234.22188Q292.09586 233.87813 291.17398 233.15938Q290.22086 233.69063 289.0646 233.69063Q287.89273 233.69063 286.9396 233.12813Q286.0021 232.56563 285.48648 231.55Q284.97086 230.53438 284.97086 229.25313Q284.97086 227.9875 285.48648 226.94063Q286.0021 225.89375 286.95523 225.34688Q287.90836 224.8 289.08023 224.8Q290.26773 224.8 291.22086 225.37813Q292.1896 225.94063 292.6896 226.95625Q293.1896 227.97188 293.1896 229.25313Q293.1896 230.31563 292.86148 231.15938Q292.54898 232.00313 291.89273 232.62813ZM289.39273 231.175Q290.3771 231.45625 291.01773 232.00313Q292.01773 231.08125 292.01773 229.25313Q292.01773 228.20625 291.65836 227.425Q291.29898 226.64375 290.61148 226.22188Q289.9396 225.78438 289.09586 225.78438Q287.8146 225.78438 286.97086 226.65938Q286.14273 227.51875 286.14273 229.25313Q286.14273 230.925 286.97086 231.83125Q287.79898 232.72188 289.09586 232.72188Q289.70523 232.72188 290.23648 232.4875Q289.70523 232.14375 289.11148 232.00313L289.39273 231.175ZM298.33023 233.55L298.33023 232.62813Q297.59586 233.69063 296.34586 233.69063Q295.79898 233.69063 295.3146 233.4875Q294.84586 233.26875 294.61148 232.95625Q294.3771 232.62813 294.28336 232.15938Q294.22086 231.8625 294.22086 231.175L294.22086 227.33125L295.28336 227.33125L295.28336 230.78438Q295.28336 231.59688 295.34586 231.89375Q295.4396 232.3 295.7521 232.55Q296.08023 232.78438 296.5646 232.78438Q297.03336 232.78438 297.4396 232.55Q297.86148 232.3 298.03336 231.87813Q298.22086 231.45625 298.22086 230.65938L298.22086 227.33125L299.26773 227.33125L299.26773 233.55L298.33023 233.55ZM305.3146 232.78438Q304.72086 233.28438 304.17398 233.4875Q303.64273 233.69063 303.01773 233.69063Q301.98648 233.69063 301.4396 233.19063Q300.89273 232.69063 300.89273 231.90938Q300.89273 231.45625 301.09586 231.08125Q301.29898 230.69063 301.64273 230.47188Q301.98648 230.2375 302.40836 230.12813Q302.70523 230.03438 303.34586 229.95625Q304.61148 229.81563 305.22086 229.59688Q305.22086 229.37813 305.22086 229.33125Q305.22086 228.675 304.92398 228.40938Q304.51773 228.06563 303.72086 228.06563Q302.98648 228.06563 302.6271 228.33125Q302.26773 228.58125 302.09586 229.2375L301.0646 229.09688Q301.20523 228.44063 301.53336 228.03438Q301.86148 227.62813 302.47086 227.40938Q303.08023 227.19063 303.8771 227.19063Q304.67398 227.19063 305.17398 227.37813Q305.67398 227.56563 305.90836 227.84688Q306.14273 228.12813 306.23648 228.56563Q306.28336 228.83125 306.28336 229.53438L306.28336 230.94063Q306.28336 232.40938 306.34586 232.8Q306.42398 233.19063 306.6271 233.55L305.51773 233.55Q305.36148 233.22188 305.3146 232.78438ZM305.22086 230.425Q304.64273 230.65938 303.5021 230.83125Q302.84586 230.925 302.58023 231.05Q302.3146 231.15938 302.15836 231.37813Q302.01773 231.59688 302.01773 231.87813Q302.01773 232.3 302.33023 232.58125Q302.65836 232.8625 303.26773 232.8625Q303.8771 232.8625 304.34586 232.59688Q304.83023 232.33125 305.04898 231.8625Q305.22086 231.50313 305.22086 230.81563L305.22086 230.425ZM308.23648 233.55L308.23648 227.33125L309.1896 227.33125L309.1896 228.26875Q309.54898 227.6125 309.84586 227.40938Q310.15836 227.19063 310.53336 227.19063Q311.0646 227.19063 311.61148 227.51875L311.2521 228.50313Q310.86148 228.26875 310.48648 228.26875Q310.1271 228.26875 309.84586 228.4875Q309.58023 228.69063 309.47086 229.06563Q309.28336 229.62813 309.28336 230.28438L309.28336 233.55L308.23648 233.55ZM312.2521 233.55L312.2521 224.95625L313.3146 224.95625L313.3146 229.8625L315.79898 227.33125L317.17398 227.33125L314.78336 229.62813L317.40836 233.55L316.11148 233.55L314.04898 230.3625L313.3146 231.08125L313.3146 233.55L312.2521 233.55ZM322.33023 233.55L322.33023 232.62813Q321.59586 233.69063 320.34586 233.69063Q319.79898 233.69063 319.3146 233.4875Q318.84586 233.26875 318.61148 232.95625Q318.3771 232.62813 318.28336 232.15938Q318.22086 231.8625 318.22086 231.175L318.22086 227.33125L319.28336 227.33125L319.28336 230.78438Q319.28336 231.59688 319.34586 231.89375Q319.4396 232.3 319.7521 232.55Q320.08023 232.78438 320.5646 232.78438Q321.03336 232.78438 321.4396 232.55Q321.86148 232.3 322.03336 231.87813Q322.22086 231.45625 322.22086 230.65938L322.22086 227.33125L323.26773 227.33125L323.26773 233.55L322.33023 233.55ZM324.83023 231.69063L325.86148 231.53438Q325.95523 232.15938 326.34586 232.4875Q326.7521 232.81563 327.48648 232.81563Q328.20523 232.81563 328.54898 232.53438Q328.90836 232.2375 328.90836 231.83125Q328.90836 231.47188 328.59586 231.26875Q328.3771 231.12813 327.51773 230.90938Q326.36148 230.6125 325.90836 230.40938Q325.47086 230.19063 325.23648 229.81563Q325.0021 229.44063 325.0021 228.97188Q325.0021 228.56563 325.1896 228.20625Q325.3771 227.84688 325.70523 227.6125Q325.95523 227.44063 326.3771 227.31563Q326.79898 227.19063 327.29898 227.19063Q328.01773 227.19063 328.5646 227.40938Q329.1271 227.6125 329.39273 227.97188Q329.65836 228.33125 329.7521 228.925L328.72086 229.06563Q328.65836 228.59688 328.3146 228.33125Q327.98648 228.05 327.36148 228.05Q326.64273 228.05 326.33023 228.3Q326.01773 228.53438 326.01773 228.8625Q326.01773 229.06563 326.14273 229.22188Q326.28336 229.39375 326.54898 229.50313Q326.70523 229.56563 327.48648 229.76875Q328.61148 230.08125 329.04898 230.26875Q329.48648 230.45625 329.73648 230.81563Q329.98648 231.175 329.98648 231.72188Q329.98648 232.25313 329.67398 232.72188Q329.3771 233.175 328.79898 233.44063Q328.22086 233.69063 327.48648 233.69063Q326.26773 233.69063 325.6271 233.19063Q325.0021 232.675 324.83023 231.69063ZM335.2521 233.55L335.2521 227.33125L336.1896 227.33125L336.1896 228.20625Q336.8771 227.19063 338.17398 227.19063Q338.73648 227.19063 339.20523 227.39375Q339.6896 227.59688 339.92398 227.925Q340.15836 228.25313 340.2521 228.69063Q340.29898 228.9875 340.29898 229.72188L340.29898 233.55L339.2521 233.55L339.2521 229.76875Q339.2521 229.1125 339.1271 228.8Q339.0021 228.4875 338.6896 228.3Q338.3771 228.09688 337.95523 228.09688Q337.28336 228.09688 336.78336 228.53438Q336.29898 228.95625 336.29898 230.14375L336.29898 233.55L335.2521 233.55ZM346.3146 232.78438Q345.72086 233.28438 345.17398 233.4875Q344.64273 233.69063 344.01773 233.69063Q342.98648 233.69063 342.4396 233.19063Q341.89273 232.69063 341.89273 231.90938Q341.89273 231.45625 342.09586 231.08125Q342.29898 230.69063 342.64273 230.47188Q342.98648 230.2375 343.40836 230.12813Q343.70523 230.03438 344.34586 229.95625Q345.61148 229.81563 346.22086 229.59688Q346.22086 229.37813 346.22086 229.33125Q346.22086 228.675 345.92398 228.40938Q345.51773 228.06563 344.72086 228.06563Q343.98648 228.06563 343.6271 228.33125Q343.26773 228.58125 343.09586 229.2375L342.0646 229.09688Q342.20523 228.44063 342.53336 228.03438Q342.86148 227.62813 343.47086 227.40938Q344.08023 227.19063 344.8771 227.19063Q345.67398 227.19063 346.17398 227.37813Q346.67398 227.56563 346.90836 227.84688Q347.14273 228.12813 347.23648 228.56563Q347.28336 228.83125 347.28336 229.53438L347.28336 230.94063Q347.28336 232.40938 347.34586 232.8Q347.42398 233.19063 347.6271 233.55L346.51773 233.55Q346.36148 233.22188 346.3146 232.78438ZM346.22086 230.425Q345.64273 230.65938 344.5021 230.83125Q343.84586 230.925 343.58023 231.05Q343.3146 231.15938 343.15836 231.37813Q343.01773 231.59688 343.01773 231.87813Q343.01773 232.3 343.33023 232.58125Q343.65836 232.8625 344.26773 232.8625Q344.8771 232.8625 345.34586 232.59688Q345.83023 232.33125 346.04898 231.8625Q346.22086 231.50313 346.22086 230.81563L346.22086 230.425ZM351.54898 232.6125L351.70523 233.53438Q351.2521 233.62813 350.90836 233.62813Q350.33023 233.62813 350.01773 233.45625Q349.70523 233.26875 349.5646 232.97188Q349.4396 232.675 349.4396 231.72188L349.4396 228.14375L348.67398 228.14375L348.67398 227.33125L349.4396 227.33125L349.4396 225.78438L350.48648 225.15938L350.48648 227.33125L351.54898 227.33125L351.54898 228.14375L350.48648 228.14375L350.48648 231.78438Q350.48648 232.2375 350.53336 232.3625Q350.59586 232.4875 350.72086 232.56563Q350.84586 232.64375 351.08023 232.64375Q351.26773 232.64375 351.54898 232.6125ZM352.2521 226.175L352.2521 224.95625L353.3146 224.95625L353.3146 226.175L352.2521 226.175ZM352.2521 233.55L352.2521 227.33125L353.3146 227.33125L353.3146 233.55L352.2521 233.55ZM356.97086 233.55L354.61148 227.33125L355.72086 227.33125L357.0646 231.05Q357.26773 231.65938 357.45523 232.3Q357.59586 231.81563 357.84586 231.12813L359.23648 227.33125L360.3146 227.33125L357.95523 233.55L356.97086 233.55ZM364.5021 231.55L365.59586 231.675Q365.34586 232.62813 364.64273 233.15938Q363.9396 233.69063 362.86148 233.69063Q361.5021 233.69063 360.6896 232.84688Q359.89273 232.00313 359.89273 230.4875Q359.89273 228.925 360.70523 228.06563Q361.51773 227.19063 362.79898 227.19063Q364.04898 227.19063 364.83023 228.03438Q365.6271 228.87813 365.6271 230.425Q365.6271 230.51875 365.6271 230.70625L360.98648 230.70625Q361.04898 231.7375 361.5646 232.28438Q362.08023 232.81563 362.86148 232.81563Q363.4396 232.81563 363.84586 232.51875Q364.26773 232.20625 364.5021 231.55ZM361.04898 229.84688L364.51773 229.84688Q364.45523 229.05 364.1271 228.65938Q363.61148 228.05 362.8146 228.05Q362.08023 228.05 361.58023 228.53438Q361.09586 229.01875 361.04898 229.84688Z" fill-rule="nonzero"/><path fill="#757575" d="M12.41875 31.45L17.91875 17.1375L19.965626 17.1375L25.825 31.45L23.66875 31.45L21.996876 27.10625L16.0125 27.10625L14.434375 31.45L12.41875 31.45ZM16.559376 25.575L21.403126 25.575L19.91875 21.60625Q19.23125 19.79375 18.903126 18.6375Q18.621876 20.0125 18.121876 21.371876L16.559376 25.575ZM29.653126 31.45L25.7 21.075L27.559376 21.075L29.79375 27.29375Q30.153126 28.29375 30.45 29.371876Q30.684376 28.559376 31.10625 27.403126L33.403126 21.075L35.215626 21.075L31.29375 31.45L29.653126 31.45ZM42.871876 28.10625L44.684376 28.340626Q44.2625 29.91875 43.090626 30.809376Q41.934376 31.684376 40.121876 31.684376Q37.85625 31.684376 36.5125 30.29375Q35.184376 28.8875 35.184376 26.35625Q35.184376 23.73125 36.528126 22.29375Q37.871876 20.840626 40.028126 20.840626Q42.10625 20.840626 43.41875 22.2625Q44.746876 23.66875 44.746876 26.246876Q44.746876 26.403126 44.73125 26.715626L36.996876 26.715626Q37.090626 28.41875 37.965626 29.325Q38.840626 30.23125 40.1375 30.23125Q41.10625 30.23125 41.778126 29.73125Q42.465626 29.215626 42.871876 28.10625ZM37.090626 25.2625L42.8875 25.2625Q42.778126 23.965626 42.23125 23.309376Q41.3875 22.29375 40.04375 22.29375Q38.840626 22.29375 38.0125 23.10625Q37.184376 23.903126 37.090626 25.2625ZM46.746876 31.45L46.746876 21.075L48.325 21.075L48.325 22.653126Q48.934376 21.54375 49.45 21.2Q49.965626 20.840626 50.575 20.840626Q51.465626 20.840626 52.3875 21.403126L51.778126 23.04375Q51.1375 22.653126 50.496876 22.653126Q49.91875 22.653126 49.45 23.0125Q48.996876 23.35625 48.79375 23.965626Q48.5125 24.903126 48.5125 26.0125L48.5125 31.45L46.746876 31.45ZM60.54375 30.16875Q59.559376 30.996876 58.653126 31.340626Q57.746876 31.684376 56.715626 31.684376Q55.0125 31.684376 54.090626 30.85625Q53.16875 30.0125 53.16875 28.715626Q53.16875 27.95 53.5125 27.325Q53.871876 26.7 54.434376 26.325Q54.996876 25.934376 55.7 25.73125Q56.215626 25.60625 57.2625 25.465626Q59.3875 25.215626 60.3875 24.871876Q60.403126 24.5125 60.403126 24.403126Q60.403126 23.340626 59.903126 22.8875Q59.23125 22.29375 57.903126 22.29375Q56.653126 22.29375 56.059376 22.73125Q55.48125 23.16875 55.2 24.278126L53.48125 24.04375Q53.715626 22.934376 54.246876 22.2625Q54.778126 21.575 55.79375 21.215626Q56.809376 20.840626 58.153126 20.840626Q59.48125 20.840626 60.309376 21.153126Q61.1375 21.465626 61.528126 21.95Q61.91875 22.41875 62.075 23.1375Q62.16875 23.590626 62.16875 24.7625L62.16875 27.10625Q62.16875 29.559376 62.278126 30.215626Q62.3875 30.85625 62.73125 31.45L60.8875 31.45Q60.621876 30.903126 60.54375 30.16875ZM60.3875 26.246876Q59.434376 26.6375 57.5125 26.903126Q56.434376 27.059376 55.98125 27.2625Q55.54375 27.45 55.29375 27.825Q55.04375 28.2 55.04375 28.66875Q55.04375 29.371876 55.575 29.840626Q56.10625 30.309376 57.1375 30.309376Q58.153126 30.309376 58.934376 29.871876Q59.73125 29.41875 60.10625 28.653126Q60.3875 28.04375 60.3875 26.8875L60.3875 26.246876ZM64.45 32.309376L66.15312 32.559376Q66.2625 33.35625 66.74687 33.715626Q67.40312 34.2 68.54375 34.2Q69.7625 34.2 70.41875 33.715626Q71.09062 33.23125 71.325 32.35625Q71.46562 31.809376 71.45 30.090626Q70.29375 31.45 68.575 31.45Q66.43437 31.45 65.2625 29.903126Q64.09062 28.35625 64.09062 26.2Q64.09062 24.715626 64.62187 23.465626Q65.16875 22.215626 66.18437 21.528126Q67.21562 20.840626 68.59062 20.840626Q70.41875 20.840626 71.62187 22.325L71.62187 21.075L73.23125 21.075L73.23125 30.04375Q73.23125 32.465626 72.73125 33.465626Q72.24687 34.48125 71.16875 35.059376Q70.10625 35.653126 68.54375 35.653126Q66.7 35.653126 65.54375 34.825Q64.40312 33.996876 64.45 32.309376ZM65.90312 26.075Q65.90312 28.121876 66.71562 29.059376Q67.52812 29.996876 68.74687 29.996876Q69.95 29.996876 70.7625 29.059376Q71.59062 28.121876 71.59062 26.1375Q71.59062 24.23125 70.74687 23.2625Q69.90312 22.29375 68.71562 22.29375Q67.54375 22.29375 66.71562 23.246876Q65.90312 24.2 65.90312 26.075ZM82.87187 28.10625L84.68437 28.340626Q84.2625 29.91875 83.09062 30.809376Q81.93437 31.684376 80.12187 31.684376Q77.85625 31.684376 76.5125 30.29375Q75.18437 28.8875 75.18437 26.35625Q75.18437 23.73125 76.52812 22.29375Q77.87187 20.840626 80.02812 20.840626Q82.10625 20.840626 83.41875 22.2625Q84.74687 23.66875 84.74687 26.246876Q84.74687 26.403126 84.73125 26.715626L76.99687 26.715626Q77.09062 28.41875 77.96562 29.325Q78.84062 30.23125 80.1375 30.23125Q81.10625 30.23125 81.77812 29.73125Q82.46562 29.215626 82.87187 28.10625ZM77.09062 25.2625L82.8875 25.2625Q82.77812 23.965626 82.23125 23.309376Q81.3875 22.29375 80.04375 22.29375Q78.84062 22.29375 78.0125 23.10625Q77.18437 23.903126 77.09062 25.2625ZM93.02812 31.45L93.02812 17.1375L99.37187 17.1375Q101.27812 17.1375 102.27812 17.528126Q103.27812 17.903126 103.87187 18.8875Q104.46562 19.85625 104.46562 21.04375Q104.46562 22.559376 103.48125 23.60625Q102.49687 24.653126 100.43437 24.934376Q101.18437 25.29375 101.575 25.653126Q102.40312 26.403126 103.15312 27.559376L105.6375 31.45L103.2625 31.45L101.35625 28.465626Q100.52812 27.184376 99.99687 26.496876Q99.46562 25.809376 99.02812 25.54375Q98.60625 25.2625 98.16875 25.153126Q97.84062 25.090626 97.12187 25.090626L94.91875 25.090626L94.91875 31.45L93.02812 31.45ZM94.91875 23.45L98.99687 23.45Q100.29375 23.45 101.0125 23.184376Q101.74687 22.91875 102.12187 22.325Q102.5125 21.73125 102.5125 21.04375Q102.5125 20.028126 101.77812 19.371876Q101.04375 18.715626 99.45 18.715626L94.91875 18.715626L94.91875 23.45ZM113.87187 28.10625L115.68437 28.340626Q115.2625 29.91875 114.09062 30.809376Q112.93437 31.684376 111.12187 31.684376Q108.85625 31.684376 107.5125 30.29375Q106.18437 28.8875 106.18437 26.35625Q106.18437 23.73125 107.52812 22.29375Q108.87187 20.840626 111.02812 20.840626Q113.10625 20.840626 114.41875 22.2625Q115.74687 23.66875 115.74687 26.246876Q115.74687 26.403126 115.73125 26.715626L107.99687 26.715626Q108.09062 28.41875 108.96562 29.325Q109.84062 30.23125 111.1375 30.23125Q112.10625 30.23125 112.77812 29.73125Q113.46562 29.215626 113.87187 28.10625ZM108.09062 25.2625L113.8875 25.2625Q113.77812 23.965626 113.23125 23.309376Q112.3875 22.29375 111.04375 22.29375Q109.84062 22.29375 109.0125 23.10625Q108.18437 23.903126 108.09062 25.2625ZM117.05937 28.35625L118.80937 28.075Q118.95 29.121876 119.62187 29.684376Q120.29375 30.23125 121.49687 30.23125Q122.7 30.23125 123.27812 29.746876Q123.87187 29.246876 123.87187 28.590626Q123.87187 27.996876 123.35625 27.653126Q122.99687 27.41875 121.55937 27.059376Q119.62187 26.559376 118.87187 26.215626Q118.1375 25.85625 117.74687 25.23125Q117.35625 24.590626 117.35625 23.825Q117.35625 23.1375 117.66875 22.54375Q117.99687 21.95 118.54375 21.559376Q118.95 21.2625 119.65312 21.059376Q120.37187 20.840626 121.18437 20.840626Q122.40312 20.840626 123.325 21.2Q124.24687 21.54375 124.68437 22.153126Q125.12187 22.746876 125.29375 23.746876L123.575 23.98125Q123.45 23.184376 122.8875 22.746876Q122.325 22.29375 121.30937 22.29375Q120.09062 22.29375 119.575 22.7Q119.05937 23.090626 119.05937 23.621876Q119.05937 23.965626 119.27812 24.246876Q119.48125 24.528126 119.95 24.715626Q120.21562 24.809376 121.49687 25.153126Q123.37187 25.653126 124.10625 25.98125Q124.84062 26.29375 125.2625 26.903126Q125.68437 27.496876 125.68437 28.403126Q125.68437 29.278126 125.16875 30.059376Q124.65312 30.840626 123.68437 31.2625Q122.71562 31.684376 121.49687 31.684376Q119.48125 31.684376 118.41875 30.840626Q117.35625 29.996876 117.05937 28.35625ZM127.7625 35.41875L127.7625 21.075L129.37187 21.075L129.37187 22.41875Q129.93437 21.6375 130.6375 21.246876Q131.35625 20.840626 132.37187 20.840626Q133.7 20.840626 134.71562 21.528126Q135.73125 22.215626 136.24687 23.465626Q136.77812 24.7 136.77812 26.184376Q136.77812 27.778126 136.2 29.059376Q135.6375 30.325 134.54375 31.0125Q133.45 31.684376 132.24687 31.684376Q131.37187 31.684376 130.66875 31.309376Q129.98125 30.934376 129.52812 30.371876L129.52812 35.41875L127.7625 35.41875ZM129.35625 26.325Q129.35625 28.325 130.16875 29.278126Q130.98125 30.23125 132.1375 30.23125Q133.30937 30.23125 134.1375 29.246876Q134.98125 28.2625 134.98125 26.16875Q134.98125 24.2 134.15312 23.215626Q133.34062 22.215626 132.21562 22.215626Q131.09062 22.215626 130.21562 23.278126Q129.35625 24.325 129.35625 26.325ZM138.12187 26.2625Q138.12187 23.3875 139.71562 21.996876Q141.05937 20.840626 142.98125 20.840626Q145.12187 20.840626 146.46562 22.246876Q147.825 23.653126 147.825 26.121876Q147.825 28.121876 147.23125 29.278126Q146.6375 30.41875 145.48125 31.059376Q144.34062 31.684376 142.98125 31.684376Q140.79375 31.684376 139.45 30.29375Q138.12187 28.8875 138.12187 26.2625ZM139.91875 26.2625Q139.91875 28.2625 140.77812 29.246876Q141.65312 30.23125 142.98125 30.23125Q144.29375 30.23125 145.15312 29.246876Q146.02812 28.246876 146.02812 26.2Q146.02812 24.278126 145.15312 23.29375Q144.27812 22.29375 142.98125 22.29375Q141.65312 22.29375 140.77812 23.29375Q139.91875 24.278126 139.91875 26.2625ZM149.7625 31.45L149.7625 21.075L151.35625 21.075L151.35625 22.559376Q152.49687 20.840626 154.65312 20.840626Q155.59062 20.840626 156.37187 21.184376Q157.16875 21.5125 157.55937 22.059376Q157.95 22.60625 158.10625 23.35625Q158.2 23.85625 158.2 25.075L158.2 31.45L156.43437 31.45L156.43437 25.1375Q156.43437 24.059376 156.23125 23.528126Q156.02812 22.996876 155.49687 22.684376Q154.98125 22.371876 154.27812 22.371876Q153.15312 22.371876 152.34062 23.090626Q151.52812 23.79375 151.52812 25.778126L151.52812 31.45L149.7625 31.45ZM159.05937 28.35625L160.80937 28.075Q160.95 29.121876 161.62187 29.684376Q162.29375 30.23125 163.49687 30.23125Q164.7 30.23125 165.27812 29.746876Q165.87187 29.246876 165.87187 28.590626Q165.87187 27.996876 165.35625 27.653126Q164.99687 27.41875 163.55937 27.059376Q161.62187 26.559376 160.87187 26.215626Q160.1375 25.85625 159.74687 25.23125Q159.35625 24.590626 159.35625 23.825Q159.35625 23.1375 159.66875 22.54375Q159.99687 21.95 160.54375 21.559376Q160.95 21.2625 161.65312 21.059376Q162.37187 20.840626 163.18437 20.840626Q164.40312 20.840626 165.325 21.2Q166.24687 21.54375 166.68437 22.153126Q167.12187 22.746876 167.29375 23.746876L165.575 23.98125Q165.45 23.184376 164.8875 22.746876Q164.325 22.29375 163.30937 22.29375Q162.09062 22.29375 161.575 22.7Q161.05937 23.090626 161.05937 23.621876Q161.05937 23.965626 161.27812 24.246876Q161.48125 24.528126 161.95 24.715626Q162.21562 24.809376 163.49687 25.153126Q165.37187 25.653126 166.10625 25.98125Q166.84062 26.29375 167.2625 26.903126Q167.68437 27.496876 167.68437 28.403126Q167.68437 29.278126 167.16875 30.059376Q166.65312 30.840626 165.68437 31.2625Q164.71562 31.684376 163.49687 31.684376Q161.48125 31.684376 160.41875 30.840626Q159.35625 29.996876 159.05937 28.35625ZM176.87187 28.10625L178.68437 28.340626Q178.2625 29.91875 177.09062 30.809376Q175.93437 31.684376 174.12187 31.684376Q171.85625 31.684376 170.5125 30.29375Q169.18437 28.8875 169.18437 26.35625Q169.18437 23.73125 170.52812 22.29375Q171.87187 20.840626 174.02812 20.840626Q176.10625 20.840626 177.41875 22.2625Q178.74687 23.66875 178.74687 26.246876Q178.74687 26.403126 178.73125 26.715626L170.99687 26.715626Q171.09062 28.41875 171.96562 29.325Q172.84062 30.23125 174.1375 30.23125Q175.10625 30.23125 175.77812 29.73125Q176.46562 29.215626 176.87187 28.10625ZM171.09062 25.2625L176.8875 25.2625Q176.77812 23.965626 176.23125 23.309376Q175.3875 22.29375 174.04375 22.29375Q172.84062 22.29375 172.0125 23.10625Q171.18437 23.903126 171.09062 25.2625ZM190.6375 31.45L190.6375 18.825L185.91875 18.825L185.91875 17.1375L197.2625 17.1375L197.2625 18.825L192.52812 18.825L192.52812 31.45L190.6375 31.45ZM198.77812 19.153126L198.77812 17.1375L200.54375 17.1375L200.54375 19.153126L198.77812 19.153126ZM198.77812 31.45L198.77812 21.075L200.54375 21.075L200.54375 31.45L198.77812 31.45ZM202.7625 31.45L202.7625 21.075L204.34062 21.075L204.34062 22.528126Q204.825 21.778126 205.6375 21.309376Q206.45 20.840626 207.48125 20.840626Q208.6375 20.840626 209.37187 21.325Q210.10625 21.79375 210.41875 22.653126Q211.65312 20.840626 213.62187 20.840626Q215.16875 20.840626 215.99687 21.7Q216.825 22.559376 216.825 24.325L216.825 31.45L215.075 31.45L215.075 24.91875Q215.075 23.85625 214.90312 23.403126Q214.73125 22.934376 214.27812 22.653126Q213.84062 22.371876 213.23125 22.371876Q212.1375 22.371876 211.40312 23.10625Q210.68437 23.825 210.68437 25.41875L210.68437 31.45L208.93437 31.45L208.93437 24.715626Q208.93437 23.54375 208.49687 22.965626Q208.075 22.371876 207.09062 22.371876Q206.35625 22.371876 205.71562 22.7625Q205.09062 23.153126 204.80937 23.903126Q204.52812 24.653126 204.52812 26.075L204.52812 31.45L202.7625 31.45ZM225.87187 28.10625L227.68437 28.340626Q227.2625 29.91875 226.09062 30.809376Q224.93437 31.684376 223.12187 31.684376Q220.85625 31.684376 219.5125 30.29375Q218.18437 28.8875 218.18437 26.35625Q218.18437 23.73125 219.52812 22.29375Q220.87187 20.840626 223.02812 20.840626Q225.10625 20.840626 226.41875 22.2625Q227.74687 23.66875 227.74687 26.246876Q227.74687 26.403126 227.73125 26.715626L219.99687 26.715626Q220.09062 28.41875 220.96562 29.325Q221.84062 30.23125 223.1375 30.23125Q224.10625 30.23125 224.77812 29.73125Q225.46562 29.215626 225.87187 28.10625ZM220.09062 25.2625L225.8875 25.2625Q225.77812 23.965626 225.23125 23.309376Q224.3875 22.29375 223.04375 22.29375Q221.84062 22.29375 221.0125 23.10625Q220.18437 23.903126 220.09062 25.2625Z" fill-rule="nonzero"/></svg>