<svg version="1.1" viewBox="0.0 0.0 402.0 249.0" fill="none" stroke="none" stroke-linecap="square" stroke-miterlimit="10" width="402" height="249" xmlns:xlink="http://www.w3.org/1999/xlink" xmlns="http://www.w3.org/2000/svg"><path fill="#ffffff" d="M0 0L402.0 0L402.0 249.0L0 249.0L0 0Z" fill-rule="nonzero"/><path stroke="#333333" stroke-width="1.0" stroke-linecap="butt" d="M71.5 216.5L389.5 216.5" fill-rule="nonzero"/><path stroke="#cccccc" stroke-width="1.0" stroke-linecap="butt" d="M71.5 183.5L389.5 183.5" fill-rule="nonzero"/><path stroke="#cccccc" stroke-width="1.0" stroke-linecap="butt" d="M71.5 150.5L389.5 150.5" fill-rule="nonzero"/><path stroke="#cccccc" stroke-width="1.0" stroke-linecap="butt" d="M71.5 117.5L389.5 117.5" fill-rule="nonzero"/><path stroke="#cccccc" stroke-width="1.0" stroke-linecap="butt" d="M71.5 84.5L389.5 84.5" fill-rule="nonzero"/><path stroke="#cccccc" stroke-width="1.0" stroke-linecap="butt" d="M71.5 51.5L389.5 51.5" fill-rule="nonzero"/><clipPath id="id_0"><path d="M71.45 51.75L389.55 51.75L389.55 216.55L71.45 216.55L71.45 51.75Z" clip-rule="nonzero"/></clipPath><path stroke="#000000" stroke-width="2.0" stroke-linecap="butt" stroke-opacity="0.0" clip-path="url(#id_0)" d="M167.0 217.0L105.0 217.0L105.0 214.0C105.0 212.89543 105.89543 212.0 107.0 212.0L165.0 212.0C166.10457 212.0 167.0 212.89543 167.0 214.0Z" fill-rule="nonzero"/><path fill="#34a853" clip-path="url(#id_0)" d="M167.0 217.0L105.0 217.0L105.0 214.0C105.0 212.89543 105.89543 212.0 107.0 212.0L165.0 212.0C166.10457 212.0 167.0 212.89543 167.0 214.0Z" fill-rule="nonzero"/><path stroke="#000000" stroke-width="2.0" stroke-linecap="butt" stroke-opacity="0.0" clip-path="url(#id_0)" d="M262.0 217.0L200.0 217.0L200.0 207.0C200.0 205.89543 200.89543 205.0 202.0 205.0L260.0 205.0C261.10458 205.0 262.0 205.89543 262.0 207.0Z" fill-rule="nonzero"/><path fill="#0000ff" clip-path="url(#id_0)" d="M262.0 217.0L200.0 217.0L200.0 207.0C200.0 205.89543 200.89543 205.0 202.0 205.0L260.0 205.0C261.10458 205.0 262.0 205.89543 262.0 207.0Z" fill-rule="nonzero"/><path stroke="#000000" stroke-width="2.0" stroke-linecap="butt" stroke-opacity="0.0" clip-path="url(#id_0)" d="M356.0 217.0L294.0 217.0L294.0 79.0C294.0 77.89543 294.89542 77.0 296.0 77.0L354.0 77.0C355.10458 77.0 356.0 77.89543 356.0 79.0Z" fill-rule="nonzero"/><path fill="#ff9900" clip-path="url(#id_0)" d="M356.0 217.0L294.0 217.0L294.0 79.0C294.0 77.89543 294.89542 77.0 296.0 77.0L354.0 77.0C355.10458 77.0 356.0 77.89543 356.0 79.0Z" fill-rule="nonzero"/><path stroke="#ffffff" stroke-width="3.0" stroke-linejoin="round" stroke-linecap="round" d="M125.1875 196.99823L123.5 196.99823L123.5 190.46698L121.484375 191.09198L121.484375 189.71698L125.015625 188.45135L125.1875 188.45135L125.1875 196.99823ZM128.59375 199.13885L127.703125 198.6701L127.921875 198.2951Q128.3125 197.57635 128.32812 196.87323L128.32812 195.56073L129.75 195.56073L129.75 196.7326Q129.73438 197.37323 129.40625 198.02948Q129.09375 198.70135 128.59375 199.13885ZM132.79688 191.9826L133.70312 191.9826Q134.34375 191.9826 134.65625 191.6701Q134.96875 191.34198 134.96875 190.81073Q134.96875 190.2951 134.65625 190.01385Q134.35938 189.71698 133.8125 189.71698Q133.32812 189.71698 133.0 189.9826Q132.67188 190.24823 132.67188 190.6701L130.98438 190.6701Q130.98438 190.01385 131.34375 189.4826Q131.70312 188.95135 132.34375 188.65448Q133.0 188.34198 133.78125 188.34198Q135.125 188.34198 135.89062 188.99823Q136.67188 189.63885 136.67188 190.77948Q136.67188 191.37323 136.3125 191.87323Q135.95312 192.3576 135.375 192.6076Q136.09375 192.87323 136.4375 193.38885Q136.79688 193.90448 136.79688 194.6076Q136.79688 195.74823 135.96875 196.43573Q135.14062 197.12323 133.78125 197.12323Q132.5 197.12323 131.6875 196.45135Q130.875 195.76385 130.875 194.65448L132.5625 194.65448Q132.5625 195.13885 132.92188 195.45135Q133.29688 195.74823 133.8125 195.74823Q134.42188 195.74823 134.76562 195.43573Q135.10938 195.1076 135.10938 194.57635Q135.10938 193.31073 133.70312 193.31073L132.79688 193.31073L132.79688 191.9826ZM143.64062 190.7326Q143.64062 191.3576 143.32812 191.84198Q143.01562 192.31073 142.46875 192.6076Q143.09375 192.90448 143.45312 193.43573Q143.82812 193.95135 143.82812 194.65448Q143.82812 195.7951 143.04688 196.46698Q142.28125 197.12323 140.9375 197.12323Q139.60938 197.12323 138.82812 196.46698Q138.0625 195.7951 138.0625 194.65448Q138.0625 193.95135 138.42188 193.4201Q138.78125 192.88885 139.40625 192.6076Q138.85938 192.31073 138.54688 191.84198Q138.23438 191.3576 138.23438 190.7326Q138.23438 189.63885 138.95312 188.99823Q139.6875 188.34198 140.9375 188.34198Q142.1875 188.34198 142.90625 188.99823Q143.64062 189.63885 143.64062 190.7326ZM142.125 194.52948Q142.125 193.9826 141.79688 193.65448Q141.48438 193.31073 140.9375 193.31073Q140.39062 193.31073 140.0625 193.63885Q139.75 193.96698 139.75 194.52948Q139.75 195.07635 140.0625 195.4201Q140.39062 195.74823 140.95312 195.74823Q141.5 195.74823 141.8125 195.43573Q142.125 195.1076 142.125 194.52948ZM141.95312 190.81073Q141.95312 190.31073 141.6875 190.01385Q141.42188 189.71698 140.9375 189.71698Q140.46875 189.71698 140.20312 190.01385Q139.9375 190.2951 139.9375 190.81073Q139.9375 191.32635 140.20312 191.63885Q140.46875 191.95135 140.9375 191.95135Q141.42188 191.95135 141.6875 191.63885Q141.95312 191.32635 141.95312 190.81073ZM149.1875 196.99823L147.5 196.99823L147.5 190.46698L145.48438 191.09198L145.48438 189.71698L149.01562 188.45135L149.1875 188.45135L149.1875 196.99823Z" fill-rule="nonzero"/><path fill="#34a853" d="M125.1875 196.99823L123.5 196.99823L123.5 190.46698L121.484375 191.09198L121.484375 189.71698L125.015625 188.45135L125.1875 188.45135L125.1875 196.99823ZM128.59375 199.13885L127.703125 198.6701L127.921875 198.2951Q128.3125 197.57635 128.32812 196.87323L128.32812 195.56073L129.75 195.56073L129.75 196.7326Q129.73438 197.37323 129.40625 198.02948Q129.09375 198.70135 128.59375 199.13885ZM132.79688 191.9826L133.70312 191.9826Q134.34375 191.9826 134.65625 191.6701Q134.96875 191.34198 134.96875 190.81073Q134.96875 190.2951 134.65625 190.01385Q134.35938 189.71698 133.8125 189.71698Q133.32812 189.71698 133.0 189.9826Q132.67188 190.24823 132.67188 190.6701L130.98438 190.6701Q130.98438 190.01385 131.34375 189.4826Q131.70312 188.95135 132.34375 188.65448Q133.0 188.34198 133.78125 188.34198Q135.125 188.34198 135.89062 188.99823Q136.67188 189.63885 136.67188 190.77948Q136.67188 191.37323 136.3125 191.87323Q135.95312 192.3576 135.375 192.6076Q136.09375 192.87323 136.4375 193.38885Q136.79688 193.90448 136.79688 194.6076Q136.79688 195.74823 135.96875 196.43573Q135.14062 197.12323 133.78125 197.12323Q132.5 197.12323 131.6875 196.45135Q130.875 195.76385 130.875 194.65448L132.5625 194.65448Q132.5625 195.13885 132.92188 195.45135Q133.29688 195.74823 133.8125 195.74823Q134.42188 195.74823 134.76562 195.43573Q135.10938 195.1076 135.10938 194.57635Q135.10938 193.31073 133.70312 193.31073L132.79688 193.31073L132.79688 191.9826ZM143.64062 190.7326Q143.64062 191.3576 143.32812 191.84198Q143.01562 192.31073 142.46875 192.6076Q143.09375 192.90448 143.45312 193.43573Q143.82812 193.95135 143.82812 194.65448Q143.82812 195.7951 143.04688 196.46698Q142.28125 197.12323 140.9375 197.12323Q139.60938 197.12323 138.82812 196.46698Q138.0625 195.7951 138.0625 194.65448Q138.0625 193.95135 138.42188 193.4201Q138.78125 192.88885 139.40625 192.6076Q138.85938 192.31073 138.54688 191.84198Q138.23438 191.3576 138.23438 190.7326Q138.23438 189.63885 138.95312 188.99823Q139.6875 188.34198 140.9375 188.34198Q142.1875 188.34198 142.90625 188.99823Q143.64062 189.63885 143.64062 190.7326ZM142.125 194.52948Q142.125 193.9826 141.79688 193.65448Q141.48438 193.31073 140.9375 193.31073Q140.39062 193.31073 140.0625 193.63885Q139.75 193.96698 139.75 194.52948Q139.75 195.07635 140.0625 195.4201Q140.39062 195.74823 140.95312 195.74823Q141.5 195.74823 141.8125 195.43573Q142.125 195.1076 142.125 194.52948ZM141.95312 190.81073Q141.95312 190.31073 141.6875 190.01385Q141.42188 189.71698 140.9375 189.71698Q140.46875 189.71698 140.20312 190.01385Q139.9375 190.2951 139.9375 190.81073Q139.9375 191.32635 140.20312 191.63885Q140.46875 191.95135 140.9375 191.95135Q141.42188 191.95135 141.6875 191.63885Q141.95312 191.32635 141.95312 190.81073ZM149.1875 196.99823L147.5 196.99823L147.5 190.46698L145.48438 191.09198L145.48438 189.71698L149.01562 188.45135L149.1875 188.45135L149.1875 196.99823Z" fill-rule="nonzero"/><path stroke="#ffffff" stroke-width="3.0" stroke-linejoin="round" stroke-linecap="round" d="M217.79688 184.8171L218.70312 184.8171Q219.34375 184.8171 219.65625 184.5046Q219.96875 184.17647 219.96875 183.64522Q219.96875 183.1296 219.65625 182.84834Q219.35938 182.55147 218.8125 182.55147Q218.32812 182.55147 218.0 182.8171Q217.67188 183.08272 217.67188 183.5046L215.98438 183.5046Q215.98438 182.84834 216.34375 182.3171Q216.70312 181.78584 217.34375 181.48897Q218.0 181.17647 218.78125 181.17647Q220.125 181.17647 220.89062 181.83272Q221.67188 182.47334 221.67188 183.61397Q221.67188 184.20772 221.3125 184.70772Q220.95312 185.1921 220.375 185.4421Q221.09375 185.70772 221.4375 186.22334Q221.79688 186.73897 221.79688 187.4421Q221.79688 188.58272 220.96875 189.27022Q220.14062 189.95772 218.78125 189.95772Q217.5 189.95772 216.6875 189.28584Q215.875 188.59834 215.875 187.48897L217.5625 187.48897Q217.5625 187.97334 217.92188 188.28584Q218.29688 188.58272 218.8125 188.58272Q219.42188 188.58272 219.76562 188.27022Q220.10938 187.9421 220.10938 187.41084Q220.10938 186.14522 218.70312 186.14522L217.79688 186.14522L217.79688 184.8171ZM223.59375 191.97334L222.70312 191.5046L222.92188 191.1296Q223.3125 190.41084 223.32812 189.70772L223.32812 188.39522L224.75 188.39522L224.75 189.5671Q224.73438 190.20772 224.40625 190.86397Q224.09375 191.53584 223.59375 191.97334ZM226.32812 185.6296L226.82812 181.30147L231.60938 181.30147L231.60938 182.70772L228.21875 182.70772L228.0 184.55147Q228.60938 184.22334 229.28125 184.22334Q230.5 184.22334 231.1875 184.98897Q231.89062 185.73897 231.89062 187.09834Q231.89062 187.92647 231.53125 188.58272Q231.1875 189.22334 230.53125 189.59834Q229.89062 189.95772 229.0 189.95772Q228.23438 189.95772 227.5625 189.64522Q226.90625 189.3171 226.51562 188.7546Q226.14062 188.1921 226.10938 187.45772L227.79688 187.45772Q227.84375 187.98897 228.15625 188.28584Q228.48438 188.58272 229.0 188.58272Q229.57812 188.58272 229.875 188.17647Q230.1875 187.7546 230.1875 187.0046Q230.1875 186.27022 229.82812 185.89522Q229.48438 185.5046 228.82812 185.5046Q228.21875 185.5046 227.84375 185.8171L227.6875 185.97334L226.32812 185.6296ZM233.32812 185.6296L233.82812 181.30147L238.60938 181.30147L238.60938 182.70772L235.21875 182.70772L235.0 184.55147Q235.60938 184.22334 236.28125 184.22334Q237.5 184.22334 238.1875 184.98897Q238.89062 185.73897 238.89062 187.09834Q238.89062 187.92647 238.53125 188.58272Q238.1875 189.22334 237.53125 189.59834Q236.89062 189.95772 236.0 189.95772Q235.23438 189.95772 234.5625 189.64522Q233.90625 189.3171 233.51562 188.7546Q233.14062 188.1921 233.10938 187.45772L234.79688 187.45772Q234.84375 187.98897 235.15625 188.28584Q235.48438 188.58272 236.0 188.58272Q236.57812 188.58272 236.875 188.17647Q237.1875 187.7546 237.1875 187.0046Q237.1875 186.27022 236.82812 185.89522Q236.48438 185.5046 235.82812 185.5046Q235.21875 185.5046 234.84375 185.8171L234.6875 185.97334L233.32812 185.6296ZM240.32812 185.6296L240.82812 181.30147L245.60938 181.30147L245.60938 182.70772L242.21875 182.70772L242.0 184.55147Q242.60938 184.22334 243.28125 184.22334Q244.5 184.22334 245.1875 184.98897Q245.89062 185.73897 245.89062 187.09834Q245.89062 187.92647 245.53125 188.58272Q245.1875 189.22334 244.53125 189.59834Q243.89062 189.95772 243.0 189.95772Q242.23438 189.95772 241.5625 189.64522Q240.90625 189.3171 240.51562 188.7546Q240.14062 188.1921 240.10938 187.45772L241.79688 187.45772Q241.84375 187.98897 242.15625 188.28584Q242.48438 188.58272 243.0 188.58272Q243.57812 188.58272 243.875 188.17647Q244.1875 187.7546 244.1875 187.0046Q244.1875 186.27022 243.82812 185.89522Q243.48438 185.5046 242.82812 185.5046Q242.21875 185.5046 241.84375 185.8171L241.6875 185.97334L240.32812 185.6296Z" fill-rule="nonzero"/><path fill="#0000ff" d="M217.79688 184.8171L218.70312 184.8171Q219.34375 184.8171 219.65625 184.5046Q219.96875 184.17647 219.96875 183.64522Q219.96875 183.1296 219.65625 182.84834Q219.35938 182.55147 218.8125 182.55147Q218.32812 182.55147 218.0 182.8171Q217.67188 183.08272 217.67188 183.5046L215.98438 183.5046Q215.98438 182.84834 216.34375 182.3171Q216.70312 181.78584 217.34375 181.48897Q218.0 181.17647 218.78125 181.17647Q220.125 181.17647 220.89062 181.83272Q221.67188 182.47334 221.67188 183.61397Q221.67188 184.20772 221.3125 184.70772Q220.95312 185.1921 220.375 185.4421Q221.09375 185.70772 221.4375 186.22334Q221.79688 186.73897 221.79688 187.4421Q221.79688 188.58272 220.96875 189.27022Q220.14062 189.95772 218.78125 189.95772Q217.5 189.95772 216.6875 189.28584Q215.875 188.59834 215.875 187.48897L217.5625 187.48897Q217.5625 187.97334 217.92188 188.28584Q218.29688 188.58272 218.8125 188.58272Q219.42188 188.58272 219.76562 188.27022Q220.10938 187.9421 220.10938 187.41084Q220.10938 186.14522 218.70312 186.14522L217.79688 186.14522L217.79688 184.8171ZM223.59375 191.97334L222.70312 191.5046L222.92188 191.1296Q223.3125 190.41084 223.32812 189.70772L223.32812 188.39522L224.75 188.39522L224.75 189.5671Q224.73438 190.20772 224.40625 190.86397Q224.09375 191.53584 223.59375 191.97334ZM226.32812 185.6296L226.82812 181.30147L231.60938 181.30147L231.60938 182.70772L228.21875 182.70772L228.0 184.55147Q228.60938 184.22334 229.28125 184.22334Q230.5 184.22334 231.1875 184.98897Q231.89062 185.73897 231.89062 187.09834Q231.89062 187.92647 231.53125 188.58272Q231.1875 189.22334 230.53125 189.59834Q229.89062 189.95772 229.0 189.95772Q228.23438 189.95772 227.5625 189.64522Q226.90625 189.3171 226.51562 188.7546Q226.14062 188.1921 226.10938 187.45772L227.79688 187.45772Q227.84375 187.98897 228.15625 188.28584Q228.48438 188.58272 229.0 188.58272Q229.57812 188.58272 229.875 188.17647Q230.1875 187.7546 230.1875 187.0046Q230.1875 186.27022 229.82812 185.89522Q229.48438 185.5046 228.82812 185.5046Q228.21875 185.5046 227.84375 185.8171L227.6875 185.97334L226.32812 185.6296ZM233.32812 185.6296L233.82812 181.30147L238.60938 181.30147L238.60938 182.70772L235.21875 182.70772L235.0 184.55147Q235.60938 184.22334 236.28125 184.22334Q237.5 184.22334 238.1875 184.98897Q238.89062 185.73897 238.89062 187.09834Q238.89062 187.92647 238.53125 188.58272Q238.1875 189.22334 237.53125 189.59834Q236.89062 189.95772 236.0 189.95772Q235.23438 189.95772 234.5625 189.64522Q233.90625 189.3171 233.51562 188.7546Q233.14062 188.1921 233.10938 187.45772L234.79688 187.45772Q234.84375 187.98897 235.15625 188.28584Q235.48438 188.58272 236.0 188.58272Q236.57812 188.58272 236.875 188.17647Q237.1875 187.7546 237.1875 187.0046Q237.1875 186.27022 236.82812 185.89522Q236.48438 185.5046 235.82812 185.5046Q235.21875 185.5046 234.84375 185.8171L234.6875 185.97334L233.32812 185.6296ZM240.32812 185.6296L240.82812 181.30147L245.60938 181.30147L245.60938 182.70772L242.21875 182.70772L242.0 184.55147Q242.60938 184.22334 243.28125 184.22334Q244.5 184.22334 245.1875 184.98897Q245.89062 185.73897 245.89062 187.09834Q245.89062 187.92647 245.53125 188.58272Q245.1875 189.22334 244.53125 189.59834Q243.89062 189.95772 243.0 189.95772Q242.23438 189.95772 241.5625 189.64522Q240.90625 189.3171 240.51562 188.7546Q240.14062 188.1921 240.10938 187.45772L241.79688 187.45772Q241.84375 187.98897 242.15625 188.28584Q242.48438 188.58272 243.0 188.58272Q243.57812 188.58272 243.875 188.17647Q244.1875 187.7546 244.1875 187.0046Q244.1875 186.27022 243.82812 185.89522Q243.48438 185.5046 242.82812 185.5046Q242.21875 185.5046 241.84375 185.8171L241.6875 185.97334L240.32812 185.6296Z" fill-rule="nonzero"/><path stroke="#ff9900" stroke-width="3.0" stroke-linejoin="round" stroke-linecap="round" d="M311.59375 90.28856L312.5625 90.28856L312.5625 91.66356L311.59375 91.66356L311.59375 93.50731L309.89062 93.50731L309.89062 91.66356L306.40625 91.66356L306.32812 90.60106L309.875 84.97606L311.59375 84.97606L311.59375 90.28856ZM308.01562 90.28856L309.89062 90.28856L309.89062 87.28856L309.78125 87.47606L308.01562 90.28856ZM319.42188 93.50731L313.57812 93.50731L313.57812 92.35106L316.34375 89.397934Q316.90625 88.78856 317.17188 88.31981Q317.45312 87.85106 317.45312 87.44481Q317.45312 86.866684 317.15625 86.554184Q316.875 86.22606 316.34375 86.22606Q315.76562 86.22606 315.4375 86.616684Q315.10938 87.00731 315.10938 87.66356L313.40625 87.66356Q313.40625 86.88231 313.78125 86.241684Q314.15625 85.585434 314.82812 85.22606Q315.51562 84.85106 316.375 84.85106Q317.6875 84.85106 318.42188 85.491684Q319.15625 86.116684 319.15625 87.272934Q319.15625 87.91356 318.82812 88.56981Q318.5 89.22606 317.70312 90.10106L315.76562 92.147934L319.42188 92.147934L319.42188 93.50731ZM321.09375 95.647934L320.20312 95.179184L320.42188 94.804184Q320.8125 94.085434 320.82812 93.38231L320.82812 92.06981L322.25 92.06981L322.25 93.241684Q322.23438 93.88231 321.90625 94.53856Q321.59375 95.210434 321.09375 95.647934ZM328.59375 90.28856L329.5625 90.28856L329.5625 91.66356L328.59375 91.66356L328.59375 93.50731L326.89062 93.50731L326.89062 91.66356L323.40625 91.66356L323.32812 90.60106L326.875 84.97606L328.59375 84.97606L328.59375 90.28856ZM325.01562 90.28856L326.89062 90.28856L326.89062 87.28856L326.78125 87.47606L325.01562 90.28856ZM336.42188 93.50731L330.57812 93.50731L330.57812 92.35106L333.34375 89.397934Q333.90625 88.78856 334.17188 88.31981Q334.45312 87.85106 334.45312 87.44481Q334.45312 86.866684 334.15625 86.554184Q333.875 86.22606 333.34375 86.22606Q332.76562 86.22606 332.4375 86.616684Q332.10938 87.00731 332.10938 87.66356L330.40625 87.66356Q330.40625 86.88231 330.78125 86.241684Q331.15625 85.585434 331.82812 85.22606Q332.51562 84.85106 333.375 84.85106Q334.6875 84.85106 335.42188 85.491684Q336.15625 86.116684 336.15625 87.272934Q336.15625 87.91356 335.82812 88.56981Q335.5 89.22606 334.70312 90.10106L332.76562 92.147934L336.42188 92.147934L336.42188 93.50731ZM343.14062 87.241684Q343.14062 87.866684 342.82812 88.35106Q342.51562 88.81981 341.96875 89.116684Q342.59375 89.41356 342.95312 89.94481Q343.32812 90.460434 343.32812 91.16356Q343.32812 92.304184 342.54688 92.97606Q341.78125 93.63231 340.4375 93.63231Q339.10938 93.63231 338.32812 92.97606Q337.5625 92.304184 337.5625 91.16356Q337.5625 90.460434 337.92188 89.929184Q338.28125 89.397934 338.90625 89.116684Q338.35938 88.81981 338.04688 88.35106Q337.73438 87.866684 337.73438 87.241684Q337.73438 86.147934 338.45312 85.50731Q339.1875 84.85106 340.4375 84.85106Q341.6875 84.85106 342.40625 85.50731Q343.14062 86.147934 343.14062 87.241684ZM341.625 91.03856Q341.625 90.491684 341.29688 90.16356Q340.98438 89.81981 340.4375 89.81981Q339.89062 89.81981 339.5625 90.147934Q339.25 90.47606 339.25 91.03856Q339.25 91.585434 339.5625 91.929184Q339.89062 92.25731 340.45312 92.25731Q341.0 92.25731 341.3125 91.94481Q341.625 91.616684 341.625 91.03856ZM341.45312 87.31981Q341.45312 86.81981 341.1875 86.522934Q340.92188 86.22606 340.4375 86.22606Q339.96875 86.22606 339.70312 86.522934Q339.4375 86.804184 339.4375 87.31981Q339.4375 87.835434 339.70312 88.147934Q339.96875 88.460434 340.4375 88.460434Q340.92188 88.460434 341.1875 88.147934Q341.45312 87.835434 341.45312 87.31981Z" fill-rule="nonzero"/><path fill="#000000" d="M311.59375 90.28856L312.5625 90.28856L312.5625 91.66356L311.59375 91.66356L311.59375 93.50731L309.89062 93.50731L309.89062 91.66356L306.40625 91.66356L306.32812 90.60106L309.875 84.97606L311.59375 84.97606L311.59375 90.28856ZM308.01562 90.28856L309.89062 90.28856L309.89062 87.28856L309.78125 87.47606L308.01562 90.28856ZM319.42188 93.50731L313.57812 93.50731L313.57812 92.35106L316.34375 89.397934Q316.90625 88.78856 317.17188 88.31981Q317.45312 87.85106 317.45312 87.44481Q317.45312 86.866684 317.15625 86.554184Q316.875 86.22606 316.34375 86.22606Q315.76562 86.22606 315.4375 86.616684Q315.10938 87.00731 315.10938 87.66356L313.40625 87.66356Q313.40625 86.88231 313.78125 86.241684Q314.15625 85.585434 314.82812 85.22606Q315.51562 84.85106 316.375 84.85106Q317.6875 84.85106 318.42188 85.491684Q319.15625 86.116684 319.15625 87.272934Q319.15625 87.91356 318.82812 88.56981Q318.5 89.22606 317.70312 90.10106L315.76562 92.147934L319.42188 92.147934L319.42188 93.50731ZM321.09375 95.647934L320.20312 95.179184L320.42188 94.804184Q320.8125 94.085434 320.82812 93.38231L320.82812 92.06981L322.25 92.06981L322.25 93.241684Q322.23438 93.88231 321.90625 94.53856Q321.59375 95.210434 321.09375 95.647934ZM328.59375 90.28856L329.5625 90.28856L329.5625 91.66356L328.59375 91.66356L328.59375 93.50731L326.89062 93.50731L326.89062 91.66356L323.40625 91.66356L323.32812 90.60106L326.875 84.97606L328.59375 84.97606L328.59375 90.28856ZM325.01562 90.28856L326.89062 90.28856L326.89062 87.28856L326.78125 87.47606L325.01562 90.28856ZM336.42188 93.50731L330.57812 93.50731L330.57812 92.35106L333.34375 89.397934Q333.90625 88.78856 334.17188 88.31981Q334.45312 87.85106 334.45312 87.44481Q334.45312 86.866684 334.15625 86.554184Q333.875 86.22606 333.34375 86.22606Q332.76562 86.22606 332.4375 86.616684Q332.10938 87.00731 332.10938 87.66356L330.40625 87.66356Q330.40625 86.88231 330.78125 86.241684Q331.15625 85.585434 331.82812 85.22606Q332.51562 84.85106 333.375 84.85106Q334.6875 84.85106 335.42188 85.491684Q336.15625 86.116684 336.15625 87.272934Q336.15625 87.91356 335.82812 88.56981Q335.5 89.22606 334.70312 90.10106L332.76562 92.147934L336.42188 92.147934L336.42188 93.50731ZM343.14062 87.241684Q343.14062 87.866684 342.82812 88.35106Q342.51562 88.81981 341.96875 89.116684Q342.59375 89.41356 342.95312 89.94481Q343.32812 90.460434 343.32812 91.16356Q343.32812 92.304184 342.54688 92.97606Q341.78125 93.63231 340.4375 93.63231Q339.10938 93.63231 338.32812 92.97606Q337.5625 92.304184 337.5625 91.16356Q337.5625 90.460434 337.92188 89.929184Q338.28125 89.397934 338.90625 89.116684Q338.35938 88.81981 338.04688 88.35106Q337.73438 87.866684 337.73438 87.241684Q337.73438 86.147934 338.45312 85.50731Q339.1875 84.85106 340.4375 84.85106Q341.6875 84.85106 342.40625 85.50731Q343.14062 86.147934 343.14062 87.241684ZM341.625 91.03856Q341.625 90.491684 341.29688 90.16356Q340.98438 89.81981 340.4375 89.81981Q339.89062 89.81981 339.5625 90.147934Q339.25 90.47606 339.25 91.03856Q339.25 91.585434 339.5625 91.929184Q339.89062 92.25731 340.45312 92.25731Q341.0 92.25731 341.3125 91.94481Q341.625 91.616684 341.625 91.03856ZM341.45312 87.31981Q341.45312 86.81981 341.1875 86.522934Q340.92188 86.22606 340.4375 86.22606Q339.96875 86.22606 339.70312 86.522934Q339.4375 86.804184 339.4375 87.31981Q339.4375 87.835434 339.70312 88.147934Q339.96875 88.460434 340.4375 88.460434Q340.92188 88.460434 341.1875 88.147934Q341.45312 87.835434 341.45312 87.31981Z" fill-rule="nonzero"/><path fill="#000000" d="M20.684378 164.60312L20.590628 163.54062Q21.246878 163.4625 21.653128 163.18124Q22.059378 162.9 22.325003 162.32187Q22.575003 161.72812 22.575003 160.99374Q22.575003 160.35312 22.387503 159.85312Q22.184378 159.35312 21.856253 159.11874Q21.512503 158.86874 21.121878 158.86874Q20.715628 158.86874 20.418753 159.10312Q20.106253 159.3375 19.903128 159.86874Q19.762503 160.22812 19.481253 161.41562Q19.200003 162.5875 18.950003 163.05624Q18.621878 163.68124 18.153128 163.97812Q17.668753 164.275 17.075003 164.275Q16.434378 164.275 15.871878 163.91562Q15.293753 163.54062 15.012503 162.8375Q14.715628 162.11874 14.715628 161.25937Q14.715628 160.30624 15.028128 159.57187Q15.325003 158.8375 15.934378 158.44687Q16.528128 158.05624 17.278128 158.025L17.356253 159.11874Q16.543753 159.2125 16.137503 159.72812Q15.715628 160.22812 15.715628 161.2125Q15.715628 162.24374 16.090628 162.7125Q16.465628 163.18124 16.996878 163.18124Q17.465628 163.18124 17.762503 162.85312Q18.059378 162.525 18.371878 161.15Q18.684378 159.75937 18.918753 159.24374Q19.278128 158.49374 19.809378 158.13437Q20.325003 157.775 21.028128 157.775Q21.715628 157.775 22.325003 158.16562Q22.918753 158.55624 23.262503 159.29062Q23.590628 160.025 23.590628 160.94687Q23.590628 162.11874 23.262503 162.91562Q22.918753 163.69687 22.231253 164.15Q21.543753 164.5875 20.684378 164.60312ZM21.450003 152.10312L21.575003 151.00937Q22.528128 151.25937 23.059378 151.9625Q23.590628 152.66562 23.590628 153.74374Q23.590628 155.10312 22.746878 155.91562Q21.903128 156.7125 20.387503 156.7125Q18.825003 156.7125 17.965628 155.9Q17.090628 155.0875 17.090628 153.80624Q17.090628 152.55624 17.934378 151.775Q18.778128 150.97812 20.325003 150.97812Q20.418753 150.97812 20.606253 150.97812L20.606253 155.61874Q21.637503 155.55624 22.184378 155.04062Q22.715628 154.525 22.715628 153.74374Q22.715628 153.16562 22.418753 152.75937Q22.106253 152.3375 21.450003 152.10312ZM19.746878 155.55624L19.746878 152.0875Q18.950003 152.15 18.559378 152.47812Q17.950003 152.99374 17.950003 153.79062Q17.950003 154.525 18.434378 155.025Q18.918753 155.50937 19.746878 155.55624ZM21.168753 145.29062L21.309378 144.25937Q22.371878 144.43124 22.981253 145.13437Q23.590628 145.8375 23.590628 146.85312Q23.590628 148.13437 22.762503 148.91562Q21.918753 149.68124 20.356253 149.68124Q19.356253 149.68124 18.606253 149.35312Q17.840628 149.00937 17.465628 148.3375Q17.090628 147.65 17.090628 146.8375Q17.090628 145.8375 17.606253 145.19687Q18.106253 144.54062 19.059378 144.35312L19.215628 145.38437Q18.590628 145.525 18.278128 145.9Q17.950003 146.275 17.950003 146.80624Q17.950003 147.60312 18.528128 148.10312Q19.090628 148.60312 20.325003 148.60312Q21.590628 148.60312 22.153128 148.11874Q22.715628 147.63437 22.715628 146.86874Q22.715628 146.24374 22.340628 145.8375Q21.965628 145.41562 21.168753 145.29062ZM20.340628 143.74374Q18.606253 143.74374 17.778128 142.79062Q17.090628 141.99374 17.090628 140.8375Q17.090628 139.55624 17.934378 138.74374Q18.762503 137.91562 20.246878 137.91562Q21.450003 137.91562 22.137503 138.275Q22.825003 138.63437 23.215628 139.3375Q23.590628 140.025 23.590628 140.8375Q23.590628 142.13437 22.762503 142.94687Q21.918753 143.74374 20.340628 143.74374ZM20.340628 142.66562Q21.528128 142.66562 22.121878 142.15Q22.715628 141.61874 22.715628 140.8375Q22.715628 140.04062 22.121878 139.525Q21.528128 139.00937 20.309378 139.00937Q19.153128 139.00937 18.559378 139.54062Q17.965628 140.05624 17.965628 140.8375Q17.965628 141.61874 18.559378 142.15Q19.137503 142.66562 20.340628 142.66562ZM23.450003 136.35312L17.231253 136.35312L17.231253 135.41562L18.106253 135.41562Q17.090628 134.72812 17.090628 133.43124Q17.090628 132.86874 17.293753 132.4Q17.496878 131.91562 17.825003 131.68124Q18.153128 131.44687 18.590628 131.35312Q18.887503 131.30624 19.621878 131.30624L23.450003 131.30624L23.450003 132.35312L19.668753 132.35312Q19.012503 132.35312 18.700003 132.47812Q18.387503 132.60312 18.200003 132.91562Q17.996878 133.22812 17.996878 133.65Q17.996878 134.32187 18.434378 134.82187Q18.856253 135.30624 20.043753 135.30624L23.450003 135.30624L23.450003 136.35312ZM23.450003 125.32188L22.668753 125.32188Q23.590628 125.91563 23.590628 127.05625Q23.590628 127.80625 23.184378 128.43124Q22.762503 129.05624 22.028128 129.4Q21.293753 129.74374 20.340628 129.74374Q19.418753 129.74374 18.653128 129.43124Q17.887503 129.11874 17.496878 128.49374Q17.090628 127.86875 17.090628 127.10313Q17.090628 126.54063 17.325003 126.10313Q17.559378 125.66563 17.934378 125.38438L14.856253 125.38438L14.856253 124.3375L23.450003 124.3375L23.450003 125.32188ZM20.340628 128.65Q21.543753 128.65 22.137503 128.15Q22.715628 127.65 22.715628 126.9625Q22.715628 126.275 22.153128 125.79063Q21.590628 125.30625 20.434378 125.30625Q19.153128 125.30625 18.559378 125.80625Q17.965628 126.29063 17.965628 127.00938Q17.965628 127.7125 18.543753 128.18124Q19.106253 128.65 20.340628 128.65ZM21.590628 122.775L21.434378 121.74375Q22.059378 121.65 22.387503 121.25938Q22.715628 120.85312 22.715628 120.118744Q22.715628 119.399994 22.434378 119.056244Q22.137503 118.69687 21.731253 118.69687Q21.371878 118.69687 21.168753 119.00937Q21.028128 119.22812 20.809378 120.087494Q20.512503 121.24375 20.309378 121.69688Q20.090628 122.13438 19.715628 122.36875Q19.340628 122.60313 18.871878 122.60313Q18.465628 122.60313 18.106253 122.41563Q17.746878 122.22813 17.512503 121.9Q17.340628 121.65 17.215628 121.22813Q17.090628 120.806244 17.090628 120.306244Q17.090628 119.587494 17.309378 119.04062Q17.512503 118.47812 17.871878 118.212494Q18.231253 117.94687 18.825003 117.85312L18.965628 118.88437Q18.496878 118.94687 18.231253 119.29062Q17.950003 119.618744 17.950003 120.243744Q17.950003 120.962494 18.200003 121.275Q18.434378 121.5875 18.762503 121.5875Q18.965628 121.5875 19.121878 121.4625Q19.293753 121.32188 19.403128 121.05625Q19.465628 120.899994 19.668753 120.118744Q19.981253 118.993744 20.168753 118.556244Q20.356253 118.118744 20.715628 117.868744Q21.075003 117.618744 21.621878 117.618744Q22.153128 117.618744 22.621878 117.931244Q23.075003 118.22812 23.340628 118.806244Q23.590628 119.38437 23.590628 120.118744Q23.590628 121.3375 23.090628 121.97813Q22.575003 122.60313 21.590628 122.775Z" fill-rule="nonzero"/><path fill="#000000" d="M58.95 216.31563Q58.95 214.78438 59.2625 213.8625Q59.575 212.925 60.184376 212.425Q60.809376 211.925 61.746876 211.925Q62.434376 211.925 62.95 212.20625Q63.48125 212.4875 63.825 213.01875Q64.16875 213.53438 64.35625 214.28438Q64.54375 215.03438 64.54375 216.31563Q64.54375 217.83125 64.23125 218.75313Q63.934376 219.675 63.309376 220.19063Q62.7 220.69063 61.746876 220.69063Q60.5125 220.69063 59.79375 219.8Q58.95 218.7375 58.95 216.31563ZM60.028126 216.31563Q60.028126 218.425 60.528126 219.12813Q61.028126 219.83125 61.746876 219.83125Q62.48125 219.83125 62.965626 219.12813Q63.465626 218.425 63.465626 216.31563Q63.465626 214.19063 62.965626 213.50313Q62.48125 212.8 61.73125 212.8Q61.0125 212.8 60.575 213.40938Q60.028126 214.19063 60.028126 216.31563Z" fill-rule="nonzero"/><path fill="#000000" d="M55.91875 187.59L54.871876 187.59L54.871876 180.87125Q54.48125 181.23062 53.85625 181.60562Q53.246876 181.965 52.7625 182.13687L52.7625 181.12125Q53.6375 180.69937 54.29375 180.12125Q54.965626 179.5275 55.246876 178.965L55.91875 178.965L55.91875 187.59ZM58.95 183.35562Q58.95 181.82437 59.2625 180.9025Q59.575 179.965 60.184376 179.465Q60.809376 178.965 61.746876 178.965Q62.434376 178.965 62.95 179.24625Q63.48125 179.5275 63.825 180.05875Q64.16875 180.57437 64.35625 181.32437Q64.54375 182.07437 64.54375 183.35562Q64.54375 184.87125 64.23125 185.79312Q63.934376 186.715 63.309376 187.23062Q62.7 187.73062 61.746876 187.73062Q60.5125 187.73062 59.79375 186.84Q58.95 185.7775 58.95 183.35562ZM60.028126 183.35562Q60.028126 185.465 60.528126 186.16812Q61.028126 186.87125 61.746876 186.87125Q62.48125 186.87125 62.965626 186.16812Q63.465626 185.465 63.465626 183.35562Q63.465626 181.23062 62.965626 180.54312Q62.48125 179.84 61.73125 179.84Q61.0125 179.84 60.575 180.44937Q60.028126 181.23062 60.028126 183.35562Z" fill-rule="nonzero"/><path fill="#000000" d="M57.496876 153.61438L57.496876 154.63L51.809376 154.63Q51.809376 154.255 51.934376 153.89563Q52.153126 153.3175 52.621876 152.755Q53.10625 152.1925 54.0125 151.45813Q55.41875 150.30188 55.903126 149.63Q56.403126 148.95813 56.403126 148.36438Q56.403126 147.73938 55.95 147.3175Q55.496876 146.88 54.778126 146.88Q54.0125 146.88 53.559376 147.33313Q53.10625 147.78625 53.090626 148.59875L52.0125 148.48938Q52.121876 147.27063 52.840626 146.64563Q53.575 146.005 54.809376 146.005Q56.04375 146.005 56.7625 146.6925Q57.48125 147.38 57.48125 148.39563Q57.48125 148.91125 57.2625 149.41125Q57.059376 149.89563 56.559376 150.45813Q56.075 151.005 54.95 151.95813Q53.996876 152.755 53.715626 153.05188Q53.45 153.33313 53.278126 153.61438L57.496876 153.61438ZM58.95 150.39563Q58.95 148.86438 59.2625 147.9425Q59.575 147.005 60.184376 146.505Q60.809376 146.005 61.746876 146.005Q62.434376 146.005 62.95 146.28625Q63.48125 146.5675 63.825 147.09875Q64.16875 147.61438 64.35625 148.36438Q64.54375 149.11438 64.54375 150.39563Q64.54375 151.91125 64.23125 152.83313Q63.934376 153.755 63.309376 154.27063Q62.7 154.77063 61.746876 154.77063Q60.5125 154.77063 59.79375 153.88Q58.95 152.8175 58.95 150.39563ZM60.028126 150.39563Q60.028126 152.505 60.528126 153.20813Q61.028126 153.91125 61.746876 153.91125Q62.48125 153.91125 62.965626 153.20813Q63.465626 152.505 63.465626 150.39563Q63.465626 148.27063 62.965626 147.58313Q62.48125 146.88 61.73125 146.88Q61.0125 146.88 60.575 147.48938Q60.028126 148.27063 60.028126 150.39563Z" fill-rule="nonzero"/><path fill="#000000" d="M51.95 119.40437L53.0125 119.26375Q53.184376 120.15437 53.621876 120.56062Q54.059376 120.95125 54.684376 120.95125Q55.434376 120.95125 55.95 120.43562Q56.465626 119.92 56.465626 119.15437Q56.465626 118.43562 55.98125 117.96687Q55.5125 117.4825 54.778126 117.4825Q54.48125 117.4825 54.028126 117.6075L54.153126 116.67Q54.2625 116.68562 54.325 116.68562Q54.996876 116.68562 55.528126 116.34187Q56.075 115.9825 56.075 115.24812Q56.075 114.67 55.684376 114.295Q55.29375 113.90437 54.66875 113.90437Q54.059376 113.90437 53.6375 114.295Q53.23125 114.68562 53.121876 115.45125L52.059376 115.26375Q52.246876 114.21687 52.934376 113.63875Q53.621876 113.045 54.6375 113.045Q55.340626 113.045 55.934376 113.3575Q56.528126 113.65437 56.840626 114.17Q57.153126 114.68562 57.153126 115.27937Q57.153126 115.82625 56.85625 116.295Q56.559376 116.74812 55.98125 117.01375Q56.73125 117.18562 57.153126 117.74812Q57.575 118.295 57.575 119.13875Q57.575 120.26375 56.746876 121.045Q55.934376 121.82625 54.684376 121.82625Q53.559376 121.82625 52.809376 121.15437Q52.059376 120.46687 51.95 119.40437ZM58.95 117.43562Q58.95 115.90437 59.2625 114.9825Q59.575 114.045 60.184376 113.545Q60.809376 113.045 61.746876 113.045Q62.434376 113.045 62.95 113.32625Q63.48125 113.6075 63.825 114.13875Q64.16875 114.65437 64.35625 115.40437Q64.54375 116.15437 64.54375 117.43562Q64.54375 118.95125 64.23125 119.87312Q63.934376 120.795 63.309376 121.31062Q62.7 121.81062 61.746876 121.81062Q60.5125 121.81062 59.79375 120.92Q58.95 119.8575 58.95 117.43562ZM60.028126 117.43562Q60.028126 119.545 60.528126 120.24812Q61.028126 120.95125 61.746876 120.95125Q62.48125 120.95125 62.965626 120.24812Q63.465626 119.545 63.465626 117.43562Q63.465626 115.31062 62.965626 114.62312Q62.48125 113.92 61.73125 113.92Q61.0125 113.92 60.575 114.52937Q60.028126 115.31062 60.028126 117.43562Z" fill-rule="nonzero"/><path fill="#000000" d="M55.325 88.71L55.325 86.6475L51.60625 86.6475L51.60625 85.67875L55.528126 80.11625L56.3875 80.11625L56.3875 85.67875L57.54375 85.67875L57.54375 86.6475L56.3875 86.6475L56.3875 88.71L55.325 88.71ZM55.325 85.67875L55.325 81.819374L52.6375 85.67875L55.325 85.67875ZM58.95 84.475624Q58.95 82.944374 59.2625 82.0225Q59.575 81.085 60.184376 80.585Q60.809376 80.085 61.746876 80.085Q62.434376 80.085 62.95 80.36625Q63.48125 80.6475 63.825 81.17875Q64.16875 81.694374 64.35625 82.444374Q64.54375 83.194374 64.54375 84.475624Q64.54375 85.99125 64.23125 86.913124Q63.934376 87.835 63.309376 88.350624Q62.7 88.850624 61.746876 88.850624Q60.5125 88.850624 59.79375 87.96Q58.95 86.8975 58.95 84.475624ZM60.028126 84.475624Q60.028126 86.585 60.528126 87.288124Q61.028126 87.99125 61.746876 87.99125Q62.48125 87.99125 62.965626 87.288124Q63.465626 86.585 63.465626 84.475624Q63.465626 82.350624 62.965626 81.663124Q62.48125 80.96 61.73125 80.96Q61.0125 80.96 60.575 81.569374Q60.028126 82.350624 60.028126 84.475624Z" fill-rule="nonzero"/><path fill="#000000" d="M51.95 53.5L53.059376 53.40625Q53.184376 54.21875 53.621876 54.625Q54.075 55.03125 54.715626 55.03125Q55.465626 55.03125 55.996876 54.453125Q56.528126 53.875 56.528126 52.9375Q56.528126 52.03125 56.0125 51.515625Q55.5125 50.984375 54.684376 50.984375Q54.184376 50.984375 53.7625 51.21875Q53.35625 51.453125 53.121876 51.8125L52.1375 51.6875L52.965626 47.28125L57.246876 47.28125L57.246876 48.28125L53.809376 48.28125L53.35625 50.59375Q54.121876 50.046875 54.965626 50.046875Q56.090626 50.046875 56.85625 50.828125Q57.6375 51.609375 57.6375 52.84375Q57.6375 54.0 56.965626 54.859375Q56.1375 55.890625 54.715626 55.890625Q53.54375 55.890625 52.79375 55.234375Q52.059376 54.578125 51.95 53.5ZM58.95 51.515625Q58.95 49.984375 59.2625 49.0625Q59.575 48.125 60.184376 47.625Q60.809376 47.125 61.746876 47.125Q62.434376 47.125 62.95 47.40625Q63.48125 47.6875 63.825 48.21875Q64.16875 48.734375 64.35625 49.484375Q64.54375 50.234375 64.54375 51.515625Q64.54375 53.03125 64.23125 53.953125Q63.934376 54.875 63.309376 55.390625Q62.7 55.890625 61.746876 55.890625Q60.5125 55.890625 59.79375 55.0Q58.95 53.9375 58.95 51.515625ZM60.028126 51.515625Q60.028126 53.625 60.528126 54.328125Q61.028126 55.03125 61.746876 55.03125Q62.48125 55.03125 62.965626 54.328125Q63.465626 53.625 63.465626 51.515625Q63.465626 49.390625 62.965626 48.703125Q62.48125 48.0 61.73125 48.0Q61.0125 48.0 60.575 48.609375Q60.028126 49.390625 60.028126 51.515625Z" fill-rule="nonzero"/><path fill="#000000" d="M104.09165 230.78438L105.15415 230.69063Q105.23228 231.34688 105.51353 231.75313Q105.79478 232.15938 106.3729 232.425Q106.96665 232.675 107.70103 232.675Q108.34165 232.675 108.84165 232.4875Q109.34165 232.28438 109.57603 231.95625Q109.82603 231.6125 109.82603 231.22188Q109.82603 230.81563 109.59165 230.51875Q109.35728 230.20625 108.82603 230.00313Q108.46665 229.8625 107.27915 229.58125Q106.10728 229.3 105.63853 229.05Q105.01353 228.72188 104.71665 228.25313Q104.41978 227.76875 104.41978 227.175Q104.41978 226.53438 104.77915 225.97188Q105.15415 225.39375 105.85728 225.1125Q106.57603 224.81563 107.4354 224.81563Q108.38853 224.81563 109.1229 225.12813Q109.85728 225.425 110.2479 226.03438Q110.63853 226.62813 110.66978 227.37813L109.57603 227.45625Q109.48228 226.64375 108.96665 226.2375Q108.46665 225.81563 107.48228 225.81563Q106.45103 225.81563 105.98228 226.19063Q105.51353 226.56563 105.51353 227.09688Q105.51353 227.56563 105.84165 227.8625Q106.16978 228.15938 107.54478 228.47188Q108.9354 228.78438 109.45103 229.01875Q110.20103 229.37813 110.5604 229.90938Q110.91978 230.425 110.91978 231.12813Q110.91978 231.81563 110.52915 232.425Q110.13853 233.01875 109.40415 233.3625Q108.66978 233.69063 107.7479 233.69063Q106.57603 233.69063 105.77915 233.3625Q104.9979 233.01875 104.54478 232.33125Q104.10728 231.64375 104.09165 230.78438ZM112.34165 235.94063L112.34165 227.33125L113.29478 227.33125L113.29478 228.12813Q113.63853 227.65938 114.0604 227.425Q114.4979 227.19063 115.10728 227.19063Q115.90415 227.19063 116.51353 227.59688Q117.1229 228.00313 117.41978 228.75313Q117.73228 229.50313 117.73228 230.39375Q117.73228 231.34688 117.38853 232.1125Q117.0604 232.87813 116.40415 233.28438Q115.7479 233.69063 115.02915 233.69063Q114.4979 233.69063 114.07603 233.47188Q113.65415 233.2375 113.38853 232.90938L113.38853 235.94063L112.34165 235.94063ZM113.29478 230.47188Q113.29478 231.675 113.77915 232.25313Q114.26353 232.81563 114.95103 232.81563Q115.65415 232.81563 116.15415 232.22188Q116.65415 231.62813 116.65415 230.37813Q116.65415 229.19063 116.16978 228.6125Q115.6854 228.01875 114.9979 228.01875Q114.32603 228.01875 113.8104 228.64375Q113.29478 229.26875 113.29478 230.47188ZM119.32603 233.55L119.32603 227.33125L120.27915 227.33125L120.27915 228.26875Q120.63853 227.6125 120.9354 227.40938Q121.2479 227.19063 121.6229 227.19063Q122.15415 227.19063 122.70103 227.51875L122.34165 228.50313Q121.95103 228.26875 121.57603 228.26875Q121.21665 228.26875 120.9354 228.4875Q120.66978 228.69063 120.5604 229.06563Q120.3729 229.62813 120.3729 230.28438L120.3729 233.55L119.32603 233.55ZM123.34165 226.175L123.34165 224.95625L124.40415 224.95625L124.40415 226.175L123.34165 226.175ZM123.34165 233.55L123.34165 227.33125L124.40415 227.33125L124.40415 233.55L123.34165 233.55ZM126.34165 233.55L126.34165 227.33125L127.27915 227.33125L127.27915 228.20625Q127.96665 227.19063 129.26352 227.19063Q129.82602 227.19063 130.29477 227.39375Q130.77914 227.59688 131.01352 227.925Q131.2479 228.25313 131.34164 228.69063Q131.38852 228.9875 131.38852 229.72188L131.38852 233.55L130.34164 233.55L130.34164 229.76875Q130.34164 229.1125 130.21664 228.8Q130.09164 228.4875 129.77914 228.3Q129.46664 228.09688 129.04477 228.09688Q128.3729 228.09688 127.8729 228.53438Q127.38853 228.95625 127.38853 230.14375L127.38853 233.55L126.34165 233.55ZM133.13852 234.06563L134.16977 234.22188Q134.23227 234.69063 134.52914 234.90938Q134.91977 235.20625 135.59164 235.20625Q136.32602 235.20625 136.71664 234.90938Q137.1229 234.6125 137.26352 234.09688Q137.35727 233.76875 137.34164 232.7375Q136.65414 233.55 135.6229 233.55Q134.34164 233.55 133.63852 232.62813Q132.9354 231.69063 132.9354 230.40938Q132.9354 229.51875 133.2479 228.76875Q133.57602 228.00313 134.1854 227.59688Q134.79477 227.19063 135.6229 227.19063Q136.73227 227.19063 137.45102 228.08125L137.45102 227.33125L138.41977 227.33125L138.41977 232.70625Q138.41977 234.15938 138.1229 234.76875Q137.82602 235.37813 137.1854 235.72188Q136.54477 236.08125 135.60727 236.08125Q134.4979 236.08125 133.8104 235.58125Q133.1229 235.08125 133.13852 234.06563ZM134.01352 230.33125Q134.01352 231.55 134.4979 232.1125Q134.98227 232.675 135.71664 232.675Q136.45102 232.675 136.9354 232.1125Q137.4354 231.55 137.4354 230.3625Q137.4354 229.22188 136.91977 228.64375Q136.41977 228.06563 135.70102 228.06563Q134.9979 228.06563 134.4979 228.64375Q134.01352 229.20625 134.01352 230.33125ZM143.41977 233.55L143.41977 224.95625L146.65414 224.95625Q147.63852 224.95625 148.23227 225.22188Q148.82602 225.4875 149.15414 226.03438Q149.4979 226.56563 149.4979 227.15938Q149.4979 227.70625 149.20102 228.19063Q148.90414 228.675 148.29477 228.97188Q149.07602 229.20625 149.48227 229.76875Q149.90414 230.31563 149.90414 231.06563Q149.90414 231.65938 149.65414 232.19063Q149.40414 232.70625 149.02914 232.9875Q148.65414 233.26875 148.07602 233.40938Q147.51352 233.55 146.70102 233.55L143.41977 233.55ZM144.5604 228.56563L146.41977 228.56563Q147.16977 228.56563 147.4979 228.47188Q147.9354 228.34688 148.15414 228.05Q148.3729 227.7375 148.3729 227.28438Q148.3729 226.8625 148.16977 226.53438Q147.96664 226.20625 147.57602 226.09688Q147.20102 225.97188 146.27914 225.97188L144.5604 225.97188L144.5604 228.56563ZM144.5604 232.53438L146.70102 232.53438Q147.2479 232.53438 147.46664 232.4875Q147.8729 232.425 148.1229 232.26875Q148.38852 232.09688 148.5604 231.78438Q148.73227 231.47188 148.73227 231.06563Q148.73227 230.58125 148.48227 230.22188Q148.2479 229.8625 147.8104 229.72188Q147.3729 229.58125 146.54477 229.58125L144.5604 229.58125L144.5604 232.53438ZM150.95102 230.44063Q150.95102 228.70625 151.90414 227.87813Q152.70102 227.19063 153.85727 227.19063Q155.13852 227.19063 155.95102 228.03438Q156.77914 228.8625 156.77914 230.34688Q156.77914 231.55 156.41977 232.2375Q156.0604 232.925 155.35727 233.31563Q154.66977 233.69063 153.85727 233.69063Q152.5604 233.69063 151.7479 232.8625Q150.95102 232.01875 150.95102 230.44063ZM152.02914 230.44063Q152.02914 231.62813 152.54477 232.22188Q153.07602 232.81563 153.85727 232.81563Q154.65414 232.81563 155.16977 232.22188Q155.6854 231.62813 155.6854 230.40938Q155.6854 229.25313 155.15414 228.65938Q154.63852 228.06563 153.85727 228.06563Q153.07602 228.06563 152.54477 228.65938Q152.02914 229.2375 152.02914 230.44063ZM157.95102 230.44063Q157.95102 228.70625 158.90414 227.87813Q159.70102 227.19063 160.85727 227.19063Q162.13852 227.19063 162.95102 228.03438Q163.77914 228.8625 163.77914 230.34688Q163.77914 231.55 163.41977 232.2375Q163.0604 232.925 162.35727 233.31563Q161.66977 233.69063 160.85727 233.69063Q159.5604 233.69063 158.7479 232.8625Q157.95102 232.01875 157.95102 230.44063ZM159.02914 230.44063Q159.02914 231.62813 159.54477 232.22188Q160.07602 232.81563 160.85727 232.81563Q161.65414 232.81563 162.16977 232.22188Q162.6854 231.62813 162.6854 230.40938Q162.6854 229.25313 162.15414 228.65938Q161.63852 228.06563 160.85727 228.06563Q160.07602 228.06563 159.54477 228.65938Q159.02914 229.2375 159.02914 230.44063ZM167.63852 232.6125L167.79477 233.53438Q167.34164 233.62813 166.9979 233.62813Q166.41977 233.62813 166.10727 233.45625Q165.79477 233.26875 165.65414 232.97188Q165.52914 232.675 165.52914 231.72188L165.52914 228.14375L164.76352 228.14375L164.76352 227.33125L165.52914 227.33125L165.52914 225.78438L166.57602 225.15938L166.57602 227.33125L167.63852 227.33125L167.63852 228.14375L166.57602 228.14375L166.57602 231.78438Q166.57602 232.2375 166.6229 232.3625Q166.6854 232.4875 166.8104 232.56563Q166.9354 232.64375 167.16977 232.64375Q167.35727 232.64375 167.63852 232.6125Z" fill-rule="nonzero"/><path fill="#000000" d="M214.4375 232.62813Q215.23438 233.175 215.89062 233.425L215.5625 234.22188Q214.64062 233.87813 213.71875 233.15938Q212.76562 233.69063 211.60938 233.69063Q210.4375 233.69063 209.48438 233.12813Q208.54688 232.56563 208.03125 231.55Q207.51562 230.53438 207.51562 229.25313Q207.51562 227.9875 208.03125 226.94063Q208.54688 225.89375 209.5 225.34688Q210.45312 224.8 211.625 224.8Q212.8125 224.8 213.76562 225.37813Q214.73438 225.94063 215.23438 226.95625Q215.73438 227.97188 215.73438 229.25313Q215.73438 230.31563 215.40625 231.15938Q215.09375 232.00313 214.4375 232.62813ZM211.9375 231.175Q212.92188 231.45625 213.5625 232.00313Q214.5625 231.08125 214.5625 229.25313Q214.5625 228.20625 214.20312 227.425Q213.84375 226.64375 213.15625 226.22188Q212.48438 225.78438 211.64062 225.78438Q210.35938 225.78438 209.51562 226.65938Q208.6875 227.51875 208.6875 229.25313Q208.6875 230.925 209.51562 231.83125Q210.34375 232.72188 211.64062 232.72188Q212.25 232.72188 212.78125 232.4875Q212.25 232.14375 211.65625 232.00313L211.9375 231.175ZM220.875 233.55L220.875 232.62813Q220.14062 233.69063 218.89062 233.69063Q218.34375 233.69063 217.85938 233.4875Q217.39062 233.26875 217.15625 232.95625Q216.92188 232.62813 216.82812 232.15938Q216.76562 231.8625 216.76562 231.175L216.76562 227.33125L217.82812 227.33125L217.82812 230.78438Q217.82812 231.59688 217.89062 231.89375Q217.98438 232.3 218.29688 232.55Q218.625 232.78438 219.10938 232.78438Q219.57812 232.78438 219.98438 232.55Q220.40625 232.3 220.57812 231.87813Q220.76562 231.45625 220.76562 230.65938L220.76562 227.33125L221.8125 227.33125L221.8125 233.55L220.875 233.55ZM227.85938 232.78438Q227.26562 233.28438 226.71875 233.4875Q226.1875 233.69063 225.5625 233.69063Q224.53125 233.69063 223.98438 233.19063Q223.4375 232.69063 223.4375 231.90938Q223.4375 231.45625 223.64062 231.08125Q223.84375 230.69063 224.1875 230.47188Q224.53125 230.2375 224.95312 230.12813Q225.25 230.03438 225.89062 229.95625Q227.15625 229.81563 227.76562 229.59688Q227.76562 229.37813 227.76562 229.33125Q227.76562 228.675 227.46875 228.40938Q227.0625 228.06563 226.26562 228.06563Q225.53125 228.06563 225.17188 228.33125Q224.8125 228.58125 224.64062 229.2375L223.60938 229.09688Q223.75 228.44063 224.07812 228.03438Q224.40625 227.62813 225.01562 227.40938Q225.625 227.19063 226.42188 227.19063Q227.21875 227.19063 227.71875 227.37813Q228.21875 227.56563 228.45312 227.84688Q228.6875 228.12813 228.78125 228.56563Q228.82812 228.83125 228.82812 229.53438L228.82812 230.94063Q228.82812 232.40938 228.89062 232.8Q228.96875 233.19063 229.17188 233.55L228.0625 233.55Q227.90625 233.22188 227.85938 232.78438ZM227.76562 230.425Q227.1875 230.65938 226.04688 230.83125Q225.39062 230.925 225.125 231.05Q224.85938 231.15938 224.70312 231.37813Q224.5625 231.59688 224.5625 231.87813Q224.5625 232.3 224.875 232.58125Q225.20312 232.8625 225.8125 232.8625Q226.42188 232.8625 226.89062 232.59688Q227.375 232.33125 227.59375 231.8625Q227.76562 231.50313 227.76562 230.81563L227.76562 230.425ZM230.78125 233.55L230.78125 227.33125L231.73438 227.33125L231.73438 228.26875Q232.09375 227.6125 232.39062 227.40938Q232.70312 227.19063 233.07812 227.19063Q233.60938 227.19063 234.15625 227.51875L233.79688 228.50313Q233.40625 228.26875 233.03125 228.26875Q232.67188 228.26875 232.39062 228.4875Q232.125 228.69063 232.01562 229.06563Q231.82812 229.62813 231.82812 230.28438L231.82812 233.55L230.78125 233.55ZM234.79688 233.55L234.79688 224.95625L235.85938 224.95625L235.85938 229.8625L238.34375 227.33125L239.71875 227.33125L237.32812 229.62813L239.95312 233.55L238.65625 233.55L236.59375 230.3625L235.85938 231.08125L235.85938 233.55L234.79688 233.55ZM244.875 233.55L244.875 232.62813Q244.14062 233.69063 242.89062 233.69063Q242.34375 233.69063 241.85938 233.4875Q241.39062 233.26875 241.15625 232.95625Q240.92188 232.62813 240.82812 232.15938Q240.76562 231.8625 240.76562 231.175L240.76562 227.33125L241.82812 227.33125L241.82812 230.78438Q241.82812 231.59688 241.89062 231.89375Q241.98438 232.3 242.29688 232.55Q242.625 232.78438 243.10938 232.78438Q243.57812 232.78438 243.98438 232.55Q244.40625 232.3 244.57812 231.87813Q244.76562 231.45625 244.76562 230.65938L244.76562 227.33125L245.8125 227.33125L245.8125 233.55L244.875 233.55ZM247.375 231.69063L248.40625 231.53438Q248.5 232.15938 248.89062 232.4875Q249.29688 232.81563 250.03125 232.81563Q250.75 232.81563 251.09375 232.53438Q251.45312 232.2375 251.45312 231.83125Q251.45312 231.47188 251.14062 231.26875Q250.92188 231.12813 250.0625 230.90938Q248.90625 230.6125 248.45312 230.40938Q248.01562 230.19063 247.78125 229.81563Q247.54688 229.44063 247.54688 228.97188Q247.54688 228.56563 247.73438 228.20625Q247.92188 227.84688 248.25 227.6125Q248.5 227.44063 248.92188 227.31563Q249.34375 227.19063 249.84375 227.19063Q250.5625 227.19063 251.10938 227.40938Q251.67188 227.6125 251.9375 227.97188Q252.20312 228.33125 252.29688 228.925L251.26562 229.06563Q251.20312 228.59688 250.85938 228.33125Q250.53125 228.05 249.90625 228.05Q249.1875 228.05 248.875 228.3Q248.5625 228.53438 248.5625 228.8625Q248.5625 229.06563 248.6875 229.22188Q248.82812 229.39375 249.09375 229.50313Q249.25 229.56563 250.03125 229.76875Q251.15625 230.08125 251.59375 230.26875Q252.03125 230.45625 252.28125 230.81563Q252.53125 231.175 252.53125 231.72188Q252.53125 232.25313 252.21875 232.72188Q251.92188 233.175 251.34375 233.44063Q250.76562 233.69063 250.03125 233.69063Q248.8125 233.69063 248.17188 233.19063Q247.54688 232.675 247.375 231.69063Z" fill-rule="nonzero"/><path fill="#000000" d="M291.89273 232.62813Q292.6896 233.175 293.34586 233.425L293.01773 234.22188Q292.09586 233.87813 291.17398 233.15938Q290.22086 233.69063 289.0646 233.69063Q287.89273 233.69063 286.9396 233.12813Q286.0021 232.56563 285.48648 231.55Q284.97086 230.53438 284.97086 229.25313Q284.97086 227.9875 285.48648 226.94063Q286.0021 225.89375 286.95523 225.34688Q287.90836 224.8 289.08023 224.8Q290.26773 224.8 291.22086 225.37813Q292.1896 225.94063 292.6896 226.95625Q293.1896 227.97188 293.1896 229.25313Q293.1896 230.31563 292.86148 231.15938Q292.54898 232.00313 291.89273 232.62813ZM289.39273 231.175Q290.3771 231.45625 291.01773 232.00313Q292.01773 231.08125 292.01773 229.25313Q292.01773 228.20625 291.65836 227.425Q291.29898 226.64375 290.61148 226.22188Q289.9396 225.78438 289.09586 225.78438Q287.8146 225.78438 286.97086 226.65938Q286.14273 227.51875 286.14273 229.25313Q286.14273 230.925 286.97086 231.83125Q287.79898 232.72188 289.09586 232.72188Q289.70523 232.72188 290.23648 232.4875Q289.70523 232.14375 289.11148 232.00313L289.39273 231.175ZM298.33023 233.55L298.33023 232.62813Q297.59586 233.69063 296.34586 233.69063Q295.79898 233.69063 295.3146 233.4875Q294.84586 233.26875 294.61148 232.95625Q294.3771 232.62813 294.28336 232.15938Q294.22086 231.8625 294.22086 231.175L294.22086 227.33125L295.28336 227.33125L295.28336 230.78438Q295.28336 231.59688 295.34586 231.89375Q295.4396 232.3 295.7521 232.55Q296.08023 232.78438 296.5646 232.78438Q297.03336 232.78438 297.4396 232.55Q297.86148 232.3 298.03336 231.87813Q298.22086 231.45625 298.22086 230.65938L298.22086 227.33125L299.26773 227.33125L299.26773 233.55L298.33023 233.55ZM305.3146 232.78438Q304.72086 233.28438 304.17398 233.4875Q303.64273 233.69063 303.01773 233.69063Q301.98648 233.69063 301.4396 233.19063Q300.89273 232.69063 300.89273 231.90938Q300.89273 231.45625 301.09586 231.08125Q301.29898 230.69063 301.64273 230.47188Q301.98648 230.2375 302.40836 230.12813Q302.70523 230.03438 303.34586 229.95625Q304.61148 229.81563 305.22086 229.59688Q305.22086 229.37813 305.22086 229.33125Q305.22086 228.675 304.92398 228.40938Q304.51773 228.06563 303.72086 228.06563Q302.98648 228.06563 302.6271 228.33125Q302.26773 228.58125 302.09586 229.2375L301.0646 229.09688Q301.20523 228.44063 301.53336 228.03438Q301.86148 227.62813 302.47086 227.40938Q303.08023 227.19063 303.8771 227.19063Q304.67398 227.19063 305.17398 227.37813Q305.67398 227.56563 305.90836 227.84688Q306.14273 228.12813 306.23648 228.56563Q306.28336 228.83125 306.28336 229.53438L306.28336 230.94063Q306.28336 232.40938 306.34586 232.8Q306.42398 233.19063 306.6271 233.55L305.51773 233.55Q305.36148 233.22188 305.3146 232.78438ZM305.22086 230.425Q304.64273 230.65938 303.5021 230.83125Q302.84586 230.925 302.58023 231.05Q302.3146 231.15938 302.15836 231.37813Q302.01773 231.59688 302.01773 231.87813Q302.01773 232.3 302.33023 232.58125Q302.65836 232.8625 303.26773 232.8625Q303.8771 232.8625 304.34586 232.59688Q304.83023 232.33125 305.04898 231.8625Q305.22086 231.50313 305.22086 230.81563L305.22086 230.425ZM308.23648 233.55L308.23648 227.33125L309.1896 227.33125L309.1896 228.26875Q309.54898 227.6125 309.84586 227.40938Q310.15836 227.19063 310.53336 227.19063Q311.0646 227.19063 311.61148 227.51875L311.2521 228.50313Q310.86148 228.26875 310.48648 228.26875Q310.1271 228.26875 309.84586 228.4875Q309.58023 228.69063 309.47086 229.06563Q309.28336 229.62813 309.28336 230.28438L309.28336 233.55L308.23648 233.55ZM312.2521 233.55L312.2521 224.95625L313.3146 224.95625L313.3146 229.8625L315.79898 227.33125L317.17398 227.33125L314.78336 229.62813L317.40836 233.55L316.11148 233.55L314.04898 230.3625L313.3146 231.08125L313.3146 233.55L312.2521 233.55ZM322.33023 233.55L322.33023 232.62813Q321.59586 233.69063 320.34586 233.69063Q319.79898 233.69063 319.3146 233.4875Q318.84586 233.26875 318.61148 232.95625Q318.3771 232.62813 318.28336 232.15938Q318.22086 231.8625 318.22086 231.175L318.22086 227.33125L319.28336 227.33125L319.28336 230.78438Q319.28336 231.59688 319.34586 231.89375Q319.4396 232.3 319.7521 232.55Q320.08023 232.78438 320.5646 232.78438Q321.03336 232.78438 321.4396 232.55Q321.86148 232.3 322.03336 231.87813Q322.22086 231.45625 322.22086 230.65938L322.22086 227.33125L323.26773 227.33125L323.26773 233.55L322.33023 233.55ZM324.83023 231.69063L325.86148 231.53438Q325.95523 232.15938 326.34586 232.4875Q326.7521 232.81563 327.48648 232.81563Q328.20523 232.81563 328.54898 232.53438Q328.90836 232.2375 328.90836 231.83125Q328.90836 231.47188 328.59586 231.26875Q328.3771 231.12813 327.51773 230.90938Q326.36148 230.6125 325.90836 230.40938Q325.47086 230.19063 325.23648 229.81563Q325.0021 229.44063 325.0021 228.97188Q325.0021 228.56563 325.1896 228.20625Q325.3771 227.84688 325.70523 227.6125Q325.95523 227.44063 326.3771 227.31563Q326.79898 227.19063 327.29898 227.19063Q328.01773 227.19063 328.5646 227.40938Q329.1271 227.6125 329.39273 227.97188Q329.65836 228.33125 329.7521 228.925L328.72086 229.06563Q328.65836 228.59688 328.3146 228.33125Q327.98648 228.05 327.36148 228.05Q326.64273 228.05 326.33023 228.3Q326.01773 228.53438 326.01773 228.8625Q326.01773 229.06563 326.14273 229.22188Q326.28336 229.39375 326.54898 229.50313Q326.70523 229.56563 327.48648 229.76875Q328.61148 230.08125 329.04898 230.26875Q329.48648 230.45625 329.73648 230.81563Q329.98648 231.175 329.98648 231.72188Q329.98648 232.25313 329.67398 232.72188Q329.3771 233.175 328.79898 233.44063Q328.22086 233.69063 327.48648 233.69063Q326.26773 233.69063 325.6271 233.19063Q325.0021 232.675 324.83023 231.69063ZM335.2521 233.55L335.2521 227.33125L336.1896 227.33125L336.1896 228.20625Q336.8771 227.19063 338.17398 227.19063Q338.73648 227.19063 339.20523 227.39375Q339.6896 227.59688 339.92398 227.925Q340.15836 228.25313 340.2521 228.69063Q340.29898 228.9875 340.29898 229.72188L340.29898 233.55L339.2521 233.55L339.2521 229.76875Q339.2521 229.1125 339.1271 228.8Q339.0021 228.4875 338.6896 228.3Q338.3771 228.09688 337.95523 228.09688Q337.28336 228.09688 336.78336 228.53438Q336.29898 228.95625 336.29898 230.14375L336.29898 233.55L335.2521 233.55ZM346.3146 232.78438Q345.72086 233.28438 345.17398 233.4875Q344.64273 233.69063 344.01773 233.69063Q342.98648 233.69063 342.4396 233.19063Q341.89273 232.69063 341.89273 231.90938Q341.89273 231.45625 342.09586 231.08125Q342.29898 230.69063 342.64273 230.47188Q342.98648 230.2375 343.40836 230.12813Q343.70523 230.03438 344.34586 229.95625Q345.61148 229.81563 346.22086 229.59688Q346.22086 229.37813 346.22086 229.33125Q346.22086 228.675 345.92398 228.40938Q345.51773 228.06563 344.72086 228.06563Q343.98648 228.06563 343.6271 228.33125Q343.26773 228.58125 343.09586 229.2375L342.0646 229.09688Q342.20523 228.44063 342.53336 228.03438Q342.86148 227.62813 343.47086 227.40938Q344.08023 227.19063 344.8771 227.19063Q345.67398 227.19063 346.17398 227.37813Q346.67398 227.56563 346.90836 227.84688Q347.14273 228.12813 347.23648 228.56563Q347.28336 228.83125 347.28336 229.53438L347.28336 230.94063Q347.28336 232.40938 347.34586 232.8Q347.42398 233.19063 347.6271 233.55L346.51773 233.55Q346.36148 233.22188 346.3146 232.78438ZM346.22086 230.425Q345.64273 230.65938 344.5021 230.83125Q343.84586 230.925 343.58023 231.05Q343.3146 231.15938 343.15836 231.37813Q343.01773 231.59688 343.01773 231.87813Q343.01773 232.3 343.33023 232.58125Q343.65836 232.8625 344.26773 232.8625Q344.8771 232.8625 345.34586 232.59688Q345.83023 232.33125 346.04898 231.8625Q346.22086 231.50313 346.22086 230.81563L346.22086 230.425ZM351.54898 232.6125L351.70523 233.53438Q351.2521 233.62813 350.90836 233.62813Q350.33023 233.62813 350.01773 233.45625Q349.70523 233.26875 349.5646 232.97188Q349.4396 232.675 349.4396 231.72188L349.4396 228.14375L348.67398 228.14375L348.67398 227.33125L349.4396 227.33125L349.4396 225.78438L350.48648 225.15938L350.48648 227.33125L351.54898 227.33125L351.54898 228.14375L350.48648 228.14375L350.48648 231.78438Q350.48648 232.2375 350.53336 232.3625Q350.59586 232.4875 350.72086 232.56563Q350.84586 232.64375 351.08023 232.64375Q351.26773 232.64375 351.54898 232.6125ZM352.2521 226.175L352.2521 224.95625L353.3146 224.95625L353.3146 226.175L352.2521 226.175ZM352.2521 233.55L352.2521 227.33125L353.3146 227.33125L353.3146 233.55L352.2521 233.55ZM356.97086 233.55L354.61148 227.33125L355.72086 227.33125L357.0646 231.05Q357.26773 231.65938 357.45523 232.3Q357.59586 231.81563 357.84586 231.12813L359.23648 227.33125L360.3146 227.33125L357.95523 233.55L356.97086 233.55ZM364.5021 231.55L365.59586 231.675Q365.34586 232.62813 364.64273 233.15938Q363.9396 233.69063 362.86148 233.69063Q361.5021 233.69063 360.6896 232.84688Q359.89273 232.00313 359.89273 230.4875Q359.89273 228.925 360.70523 228.06563Q361.51773 227.19063 362.79898 227.19063Q364.04898 227.19063 364.83023 228.03438Q365.6271 228.87813 365.6271 230.425Q365.6271 230.51875 365.6271 230.70625L360.98648 230.70625Q361.04898 231.7375 361.5646 232.28438Q362.08023 232.81563 362.86148 232.81563Q363.4396 232.81563 363.84586 232.51875Q364.26773 232.20625 364.5021 231.55ZM361.04898 229.84688L364.51773 229.84688Q364.45523 229.05 364.1271 228.65938Q363.61148 228.05 362.8146 228.05Q362.08023 228.05 361.58023 228.53438Q361.09586 229.01875 361.04898 229.84688Z" fill-rule="nonzero"/><path fill="#757575" d="M13.91875 31.45L13.91875 17.1375L19.29375 17.1375Q20.934376 17.1375 21.91875 17.575Q22.903126 17.996876 23.465626 18.903126Q24.028126 19.809376 24.028126 20.79375Q24.028126 21.715626 23.528126 22.528126Q23.04375 23.340626 22.028126 23.825Q23.325 24.215626 24.028126 25.1375Q24.73125 26.04375 24.73125 27.29375Q24.73125 28.309376 24.29375 29.16875Q23.871876 30.028126 23.246876 30.496876Q22.621876 30.965626 21.684376 31.215626Q20.746876 31.45 19.371876 31.45L13.91875 31.45ZM15.809375 23.153126L18.903126 23.153126Q20.16875 23.153126 20.715626 22.98125Q21.434376 22.7625 21.79375 22.278126Q22.16875 21.778126 22.16875 21.0125Q22.16875 20.309376 21.825 19.7625Q21.48125 19.215626 20.840626 19.028126Q20.215626 18.825 18.66875 18.825L15.809375 18.825L15.809375 23.153126ZM15.809375 29.7625L19.371876 29.7625Q20.29375 29.7625 20.66875 29.684376Q21.325 29.575 21.7625 29.309376Q22.2 29.028126 22.48125 28.5125Q22.7625 27.98125 22.7625 27.29375Q22.7625 26.496876 22.35625 25.903126Q21.95 25.309376 21.215626 25.075Q20.48125 24.840626 19.121876 24.840626L15.809375 24.840626L15.809375 29.7625ZM33.559376 31.45L33.559376 29.91875Q32.35625 31.684376 30.278126 31.684376Q29.35625 31.684376 28.559376 31.340626Q27.7625 30.98125 27.371876 30.45Q26.996876 29.91875 26.840626 29.1375Q26.73125 28.621876 26.73125 27.496876L26.73125 21.075L28.48125 21.075L28.48125 26.825Q28.48125 28.2 28.590626 28.684376Q28.7625 29.371876 29.29375 29.778126Q29.840626 30.16875 30.621876 30.16875Q31.41875 30.16875 32.10625 29.7625Q32.809376 29.35625 33.090626 28.66875Q33.3875 27.965626 33.3875 26.6375L33.3875 21.075L35.1375 21.075L35.1375 31.45L33.559376 31.45ZM36.778126 19.153126L36.778126 17.1375L38.54375 17.1375L38.54375 19.153126L36.778126 19.153126ZM36.778126 31.45L36.778126 21.075L38.54375 21.075L38.54375 31.45L36.778126 31.45ZM40.73125 31.45L40.73125 17.1375L42.48125 17.1375L42.48125 31.45L40.73125 31.45ZM51.496876 31.45L51.496876 30.1375Q50.5125 31.684376 48.590626 31.684376Q47.35625 31.684376 46.309376 30.996876Q45.278126 30.309376 44.7 29.090626Q44.1375 27.871876 44.1375 26.278126Q44.1375 24.715626 44.653126 23.45Q45.16875 22.184376 46.2 21.5125Q47.246876 20.840626 48.5125 20.840626Q49.45 20.840626 50.184376 21.246876Q50.91875 21.6375 51.3875 22.2625L51.3875 17.1375L53.121876 17.1375L53.121876 31.45L51.496876 31.45ZM45.934376 26.278126Q45.934376 28.2625 46.778126 29.246876Q47.621876 30.23125 48.7625 30.23125Q49.91875 30.23125 50.715626 29.29375Q51.528126 28.35625 51.528126 26.41875Q51.528126 24.29375 50.7 23.29375Q49.8875 22.29375 48.684376 22.29375Q47.5125 22.29375 46.715626 23.2625Q45.934376 24.215626 45.934376 26.278126ZM65.6375 31.45L65.6375 18.825L60.91875 18.825L60.91875 17.1375L72.2625 17.1375L72.2625 18.825L67.52812 18.825L67.52812 31.45L65.6375 31.45ZM73.77812 19.153126L73.77812 17.1375L75.54375 17.1375L75.54375 19.153126L73.77812 19.153126ZM73.77812 31.45L73.77812 21.075L75.54375 21.075L75.54375 31.45L73.77812 31.45ZM77.7625 31.45L77.7625 21.075L79.34062 21.075L79.34062 22.528126Q79.825 21.778126 80.6375 21.309376Q81.45 20.840626 82.48125 20.840626Q83.6375 20.840626 84.37187 21.325Q85.10625 21.79375 85.41875 22.653126Q86.65312 20.840626 88.62187 20.840626Q90.16875 20.840626 90.99687 21.7Q91.825 22.559376 91.825 24.325L91.825 31.45L90.075 31.45L90.075 24.91875Q90.075 23.85625 89.90312 23.403126Q89.73125 22.934376 89.27812 22.653126Q88.84062 22.371876 88.23125 22.371876Q87.1375 22.371876 86.40312 23.10625Q85.68437 23.825 85.68437 25.41875L85.68437 31.45L83.93437 31.45L83.93437 24.715626Q83.93437 23.54375 83.49687 22.965626Q83.075 22.371876 82.09062 22.371876Q81.35625 22.371876 80.71562 22.7625Q80.09062 23.153126 79.80937 23.903126Q79.52812 24.653126 79.52812 26.075L79.52812 31.45L77.7625 31.45ZM100.87187 28.10625L102.68437 28.340626Q102.2625 29.91875 101.09062 30.809376Q99.93437 31.684376 98.12187 31.684376Q95.85625 31.684376 94.5125 30.29375Q93.18437 28.8875 93.18437 26.35625Q93.18437 23.73125 94.52812 22.29375Q95.87187 20.840626 98.02812 20.840626Q100.10625 20.840626 101.41875 22.2625Q102.74687 23.66875 102.74687 26.246876Q102.74687 26.403126 102.73125 26.715626L94.99687 26.715626Q95.09062 28.41875 95.96562 29.325Q96.84062 30.23125 98.1375 30.23125Q99.10625 30.23125 99.77812 29.73125Q100.46562 29.215626 100.87187 28.10625ZM95.09062 25.2625L100.8875 25.2625Q100.77812 23.965626 100.23125 23.309376Q99.3875 22.29375 98.04375 22.29375Q96.84062 22.29375 96.0125 23.10625Q95.18437 23.903126 95.09062 25.2625Z" fill-rule="nonzero"/></svg>