<svg version="1.1" viewBox="0.0 0.0 402.0 249.0" fill="none" stroke="none" stroke-linecap="square" stroke-miterlimit="10" width="402" height="249" xmlns:xlink="http://www.w3.org/1999/xlink" xmlns="http://www.w3.org/2000/svg"><path fill="#ffffff" d="M0 0L402.0 0L402.0 249.0L0 249.0L0 0Z" fill-rule="nonzero"/><path stroke="#333333" stroke-width="1.0" stroke-linecap="butt" d="M71.5 216.5L389.5 216.5" fill-rule="nonzero"/><path stroke="#cccccc" stroke-width="1.0" stroke-linecap="butt" d="M71.5 175.5L389.5 175.5" fill-rule="nonzero"/><path stroke="#cccccc" stroke-width="1.0" stroke-linecap="butt" d="M71.5 134.5L389.5 134.5" fill-rule="nonzero"/><path stroke="#cccccc" stroke-width="1.0" stroke-linecap="butt" d="M71.5 92.5L389.5 92.5" fill-rule="nonzero"/><path stroke="#cccccc" stroke-width="1.0" stroke-linecap="butt" d="M71.5 51.5L389.5 51.5" fill-rule="nonzero"/><clipPath id="id_0"><path d="M71.45 51.75L389.55 51.75L389.55 216.55L71.45 216.55L71.45 51.75Z" clip-rule="nonzero"/></clipPath><path stroke="#000000" stroke-width="2.0" stroke-linecap="butt" stroke-opacity="0.0" clip-path="url(#id_0)" d="M167.0 217.0L105.0 217.0L105.0 172.0C105.0 170.89543 105.89543 170.0 107.0 170.0L165.0 170.0C166.10457 170.0 167.0 170.89543 167.0 172.0Z" fill-rule="nonzero"/><path fill="#34a853" clip-path="url(#id_0)" d="M167.0 217.0L105.0 217.0L105.0 172.0C105.0 170.89543 105.89543 170.0 107.0 170.0L165.0 170.0C166.10457 170.0 167.0 170.89543 167.0 172.0Z" fill-rule="nonzero"/><path stroke="#000000" stroke-width="2.0" stroke-linecap="butt" stroke-opacity="0.0" clip-path="url(#id_0)" d="M262.0 217.0L200.0 217.0L200.0 91.0C200.0 89.89543 200.89543 89.0 202.0 89.0L260.0 89.0C261.10458 89.0 262.0 89.89543 262.0 91.0Z" fill-rule="nonzero"/><path fill="#0000ff" clip-path="url(#id_0)" d="M262.0 217.0L200.0 217.0L200.0 91.0C200.0 89.89543 200.89543 89.0 202.0 89.0L260.0 89.0C261.10458 89.0 262.0 89.89543 262.0 91.0Z" fill-rule="nonzero"/><path stroke="#000000" stroke-width="2.0" stroke-linecap="butt" stroke-opacity="0.0" clip-path="url(#id_0)" d="M356.0 217.0L294.0 217.0L294.0 216.0C294.0 215.44771 294.44772 215.0 295.0 215.0L355.0 215.0C355.55228 215.0 356.0 215.44771 356.0 216.0Z" fill-rule="nonzero"/><path fill="#ff9900" clip-path="url(#id_0)" d="M356.0 217.0L294.0 217.0L294.0 216.0C294.0 215.44771 294.44772 215.0 295.0 215.0L355.0 215.0C355.55228 215.0 356.0 215.44771 356.0 216.0Z" fill-rule="nonzero"/><path stroke="#34a853" stroke-width="3.0" stroke-linejoin="round" stroke-linecap="round" d="M129.82812 183.00287L130.32812 178.67474L135.10938 178.67474L135.10938 180.081L131.71875 180.081L131.5 181.92474Q132.10938 181.59662 132.78125 181.59662Q134.0 181.59662 134.6875 182.36224Q135.39062 183.11224 135.39062 184.47162Q135.39062 185.29974 135.03125 185.956Q134.6875 186.59662 134.03125 186.97162Q133.39062 187.331 132.5 187.331Q131.73438 187.331 131.0625 187.0185Q130.40625 186.69037 130.01562 186.12787Q129.64062 185.56537 129.60938 184.831L131.29688 184.831Q131.34375 185.36224 131.65625 185.65912Q131.98438 185.956 132.5 185.956Q133.07812 185.956 133.375 185.54974Q133.6875 185.12787 133.6875 184.37787Q133.6875 183.6435 133.32812 183.2685Q132.98438 182.87787 132.32812 182.87787Q131.71875 182.87787 131.34375 183.19037L131.1875 183.34662L129.82812 183.00287ZM141.17188 178.581L141.17188 179.98724L141.01562 179.98724Q139.85938 180.00287 139.15625 180.581Q138.46875 181.15912 138.32812 182.19037Q139.0 181.50287 140.03125 181.50287Q141.15625 181.50287 141.8125 182.29974Q142.46875 183.09662 142.46875 184.3935Q142.46875 185.22162 142.10938 185.8935Q141.75 186.56537 141.07812 186.956Q140.42188 187.331 139.59375 187.331Q138.25 187.331 137.42188 186.3935Q136.59375 185.44037 136.59375 183.87787L136.59375 183.2685Q136.59375 181.87787 137.10938 180.81537Q137.64062 179.75287 138.60938 179.17474Q139.59375 178.59662 140.89062 178.581L141.17188 178.581ZM139.51562 182.86224Q139.10938 182.86224 138.76562 183.081Q138.4375 183.28412 138.28125 183.6435L138.28125 184.15912Q138.28125 185.00287 138.60938 185.48724Q138.95312 185.956 139.5625 185.956Q140.10938 185.956 140.4375 185.53412Q140.78125 185.09662 140.78125 184.40912Q140.78125 183.706 140.4375 183.28412Q140.09375 182.86224 139.51562 182.86224Z" fill-rule="nonzero"/><path fill="#ffffff" d="M129.82812 183.00287L130.32812 178.67474L135.10938 178.67474L135.10938 180.081L131.71875 180.081L131.5 181.92474Q132.10938 181.59662 132.78125 181.59662Q134.0 181.59662 134.6875 182.36224Q135.39062 183.11224 135.39062 184.47162Q135.39062 185.29974 135.03125 185.956Q134.6875 186.59662 134.03125 186.97162Q133.39062 187.331 132.5 187.331Q131.73438 187.331 131.0625 187.0185Q130.40625 186.69037 130.01562 186.12787Q129.64062 185.56537 129.60938 184.831L131.29688 184.831Q131.34375 185.36224 131.65625 185.65912Q131.98438 185.956 132.5 185.956Q133.07812 185.956 133.375 185.54974Q133.6875 185.12787 133.6875 184.37787Q133.6875 183.6435 133.32812 183.2685Q132.98438 182.87787 132.32812 182.87787Q131.71875 182.87787 131.34375 183.19037L131.1875 183.34662L129.82812 183.00287ZM141.17188 178.581L141.17188 179.98724L141.01562 179.98724Q139.85938 180.00287 139.15625 180.581Q138.46875 181.15912 138.32812 182.19037Q139.0 181.50287 140.03125 181.50287Q141.15625 181.50287 141.8125 182.29974Q142.46875 183.09662 142.46875 184.3935Q142.46875 185.22162 142.10938 185.8935Q141.75 186.56537 141.07812 186.956Q140.42188 187.331 139.59375 187.331Q138.25 187.331 137.42188 186.3935Q136.59375 185.44037 136.59375 183.87787L136.59375 183.2685Q136.59375 181.87787 137.10938 180.81537Q137.64062 179.75287 138.60938 179.17474Q139.59375 178.59662 140.89062 178.581L141.17188 178.581ZM139.51562 182.86224Q139.10938 182.86224 138.76562 183.081Q138.4375 183.28412 138.28125 183.6435L138.28125 184.15912Q138.28125 185.00287 138.60938 185.48724Q138.95312 185.956 139.5625 185.956Q140.10938 185.956 140.4375 185.53412Q140.78125 185.09662 140.78125 184.40912Q140.78125 183.706 140.4375 183.28412Q140.09375 182.86224 139.51562 182.86224Z" fill-rule="nonzero"/><path stroke="#0000ff" stroke-width="3.0" stroke-linejoin="round" stroke-linecap="round" d="M225.1875 105.63L223.5 105.63L223.5 99.09875L221.48438 99.72375L221.48438 98.34875L225.01562 97.08312L225.1875 97.08312L225.1875 105.63ZM228.32812 101.42687L228.82812 97.09875L233.60938 97.09875L233.60938 98.505L230.21875 98.505L230.0 100.34875Q230.60938 100.02062 231.28125 100.02062Q232.5 100.02062 233.1875 100.78625Q233.89062 101.53625 233.89062 102.89562Q233.89062 103.72375 233.53125 104.38Q233.1875 105.02062 232.53125 105.39562Q231.89062 105.755 231.0 105.755Q230.23438 105.755 229.5625 105.4425Q228.90625 105.11437 228.51562 104.55187Q228.14062 103.98937 228.10938 103.255L229.79688 103.255Q229.84375 103.78625 230.15625 104.08312Q230.48438 104.38 231.0 104.38Q231.57812 104.38 231.875 103.97375Q232.1875 103.55187 232.1875 102.80187Q232.1875 102.0675 231.82812 101.6925Q231.48438 101.30187 230.82812 101.30187Q230.21875 101.30187 229.84375 101.61437L229.6875 101.77062L228.32812 101.42687ZM235.32812 101.42687L235.82812 97.09875L240.60938 97.09875L240.60938 98.505L237.21875 98.505L237.0 100.34875Q237.60938 100.02062 238.28125 100.02062Q239.5 100.02062 240.1875 100.78625Q240.89062 101.53625 240.89062 102.89562Q240.89062 103.72375 240.53125 104.38Q240.1875 105.02062 239.53125 105.39562Q238.89062 105.755 238.0 105.755Q237.23438 105.755 236.5625 105.4425Q235.90625 105.11437 235.51562 104.55187Q235.14062 103.98937 235.10938 103.255L236.79688 103.255Q236.84375 103.78625 237.15625 104.08312Q237.48438 104.38 238.0 104.38Q238.57812 104.38 238.875 103.97375Q239.1875 103.55187 239.1875 102.80187Q239.1875 102.0675 238.82812 101.6925Q238.48438 101.30187 237.82812 101.30187Q237.21875 101.30187 236.84375 101.61437L236.6875 101.77062L235.32812 101.42687Z" fill-rule="nonzero"/><path fill="#ffffff" d="M225.1875 105.63L223.5 105.63L223.5 99.09875L221.48438 99.72375L221.48438 98.34875L225.01562 97.08312L225.1875 97.08312L225.1875 105.63ZM228.32812 101.42687L228.82812 97.09875L233.60938 97.09875L233.60938 98.505L230.21875 98.505L230.0 100.34875Q230.60938 100.02062 231.28125 100.02062Q232.5 100.02062 233.1875 100.78625Q233.89062 101.53625 233.89062 102.89562Q233.89062 103.72375 233.53125 104.38Q233.1875 105.02062 232.53125 105.39562Q231.89062 105.755 231.0 105.755Q230.23438 105.755 229.5625 105.4425Q228.90625 105.11437 228.51562 104.55187Q228.14062 103.98937 228.10938 103.255L229.79688 103.255Q229.84375 103.78625 230.15625 104.08312Q230.48438 104.38 231.0 104.38Q231.57812 104.38 231.875 103.97375Q232.1875 103.55187 232.1875 102.80187Q232.1875 102.0675 231.82812 101.6925Q231.48438 101.30187 230.82812 101.30187Q230.21875 101.30187 229.84375 101.61437L229.6875 101.77062L228.32812 101.42687ZM235.32812 101.42687L235.82812 97.09875L240.60938 97.09875L240.60938 98.505L237.21875 98.505L237.0 100.34875Q237.60938 100.02062 238.28125 100.02062Q239.5 100.02062 240.1875 100.78625Q240.89062 101.53625 240.89062 102.89562Q240.89062 103.72375 240.53125 104.38Q240.1875 105.02062 239.53125 105.39562Q238.89062 105.755 238.0 105.755Q237.23438 105.755 236.5625 105.4425Q235.90625 105.11437 235.51562 104.55187Q235.14062 103.98937 235.10938 103.255L236.79688 103.255Q236.84375 103.78625 237.15625 104.08312Q237.48438 104.38 238.0 104.38Q238.57812 104.38 238.875 103.97375Q239.1875 103.55187 239.1875 102.80187Q239.1875 102.0675 238.82812 101.6925Q238.48438 101.30187 237.82812 101.30187Q237.21875 101.30187 236.84375 101.61437L236.6875 101.77062L235.32812 101.42687Z" fill-rule="nonzero"/><path stroke="#ffffff" stroke-width="3.0" stroke-linejoin="round" stroke-linecap="round" d="M322.92188 199.5724L317.07812 199.5724L317.07812 198.41615L319.84375 195.46303Q320.40625 194.85365 320.67188 194.3849Q320.95312 193.91615 320.95312 193.5099Q320.95312 192.93178 320.65625 192.61928Q320.375 192.29115 319.84375 192.29115Q319.26562 192.29115 318.9375 192.68178Q318.60938 193.0724 318.60938 193.72865L316.90625 193.72865Q316.90625 192.9474 317.28125 192.30678Q317.65625 191.65053 318.32812 191.29115Q319.01562 190.91615 319.875 190.91615Q321.1875 190.91615 321.92188 191.55678Q322.65625 192.18178 322.65625 193.33803Q322.65625 193.97865 322.32812 194.6349Q322.0 195.29115 321.20312 196.16615L319.26562 198.21303L322.92188 198.21303L322.92188 199.5724ZM324.59375 201.71303L323.70312 201.24428L323.92188 200.86928Q324.3125 200.15053 324.32812 199.4474L324.32812 198.1349L325.75 198.1349L325.75 199.30678Q325.73438 199.9474 325.40625 200.60365Q325.09375 201.27553 324.59375 201.71303ZM332.09375 196.35365L333.0625 196.35365L333.0625 197.72865L332.09375 197.72865L332.09375 199.5724L330.39062 199.5724L330.39062 197.72865L326.90625 197.72865L326.82812 196.66615L330.375 191.04115L332.09375 191.04115L332.09375 196.35365ZM328.51562 196.35365L330.39062 196.35365L330.39062 193.35365L330.28125 193.54115L328.51562 196.35365Z" fill-rule="nonzero"/><path fill="#ff9900" d="M322.92188 199.5724L317.07812 199.5724L317.07812 198.41615L319.84375 195.46303Q320.40625 194.85365 320.67188 194.3849Q320.95312 193.91615 320.95312 193.5099Q320.95312 192.93178 320.65625 192.61928Q320.375 192.29115 319.84375 192.29115Q319.26562 192.29115 318.9375 192.68178Q318.60938 193.0724 318.60938 193.72865L316.90625 193.72865Q316.90625 192.9474 317.28125 192.30678Q317.65625 191.65053 318.32812 191.29115Q319.01562 190.91615 319.875 190.91615Q321.1875 190.91615 321.92188 191.55678Q322.65625 192.18178 322.65625 193.33803Q322.65625 193.97865 322.32812 194.6349Q322.0 195.29115 321.20312 196.16615L319.26562 198.21303L322.92188 198.21303L322.92188 199.5724ZM324.59375 201.71303L323.70312 201.24428L323.92188 200.86928Q324.3125 200.15053 324.32812 199.4474L324.32812 198.1349L325.75 198.1349L325.75 199.30678Q325.73438 199.9474 325.40625 200.60365Q325.09375 201.27553 324.59375 201.71303ZM332.09375 196.35365L333.0625 196.35365L333.0625 197.72865L332.09375 197.72865L332.09375 199.5724L330.39062 199.5724L330.39062 197.72865L326.90625 197.72865L326.82812 196.66615L330.375 191.04115L332.09375 191.04115L332.09375 196.35365ZM328.51562 196.35365L330.39062 196.35365L330.39062 193.35365L330.28125 193.54115L328.51562 196.35365Z" fill-rule="nonzero"/><path fill="#000000" d="M23.450003 148.25937L14.856253 148.25937L14.856253 146.54062L20.934378 144.50937Q21.793753 144.22812 22.215628 144.10312Q21.746878 143.9625 20.840628 143.65L14.856253 141.5875L14.856253 140.05624L23.450003 140.05624L23.450003 141.15L16.262503 141.15L23.450003 143.65L23.450003 144.68124L16.137503 147.16562L23.450003 147.16562L23.450003 148.25937ZM23.450003 139.275L14.856253 139.275L14.856253 136.04062Q14.856253 135.05624 15.121878 134.4625Q15.387503 133.86874 15.934378 133.54062Q16.465628 133.19687 17.059378 133.19687Q17.606253 133.19687 18.090628 133.49374Q18.575003 133.79062 18.871878 134.4Q19.106253 133.61874 19.668753 133.2125Q20.215628 132.79062 20.965628 132.79062Q21.559378 132.79062 22.090628 133.04062Q22.606253 133.29062 22.887503 133.66562Q23.168753 134.04062 23.309378 134.61874Q23.450003 135.18124 23.450003 135.99374L23.450003 139.275ZM18.465628 138.13437L18.465628 136.275Q18.465628 135.525 18.371878 135.19687Q18.246878 134.75937 17.950003 134.54062Q17.637503 134.32187 17.184378 134.32187Q16.762503 134.32187 16.434378 134.525Q16.106253 134.72812 15.996878 135.11874Q15.871878 135.49374 15.871878 136.41562L15.871878 138.13437L18.465628 138.13437ZM22.434378 138.13437L22.434378 135.99374Q22.434378 135.44687 22.387503 135.22812Q22.325003 134.82187 22.168753 134.57187Q21.996878 134.30624 21.684378 134.13437Q21.371878 133.9625 20.965628 133.9625Q20.481253 133.9625 20.121878 134.2125Q19.762503 134.44687 19.621878 134.88437Q19.481253 135.32187 19.481253 136.15L19.481253 138.13437L22.434378 138.13437Z" fill-rule="nonzero"/><path fill="#000000" d="M58.95 216.31563Q58.95 214.78438 59.2625 213.8625Q59.575 212.925 60.184376 212.425Q60.809376 211.925 61.746876 211.925Q62.434376 211.925 62.95 212.20625Q63.48125 212.4875 63.825 213.01875Q64.16875 213.53438 64.35625 214.28438Q64.54375 215.03438 64.54375 216.31563Q64.54375 217.83125 64.23125 218.75313Q63.934376 219.675 63.309376 220.19063Q62.7 220.69063 61.746876 220.69063Q60.5125 220.69063 59.79375 219.8Q58.95 218.7375 58.95 216.31563ZM60.028126 216.31563Q60.028126 218.425 60.528126 219.12813Q61.028126 219.83125 61.746876 219.83125Q62.48125 219.83125 62.965626 219.12813Q63.465626 218.425 63.465626 216.31563Q63.465626 214.19063 62.965626 213.50313Q62.48125 212.8 61.73125 212.8Q61.0125 212.8 60.575 213.40938Q60.028126 214.19063 60.028126 216.31563Z" fill-rule="nonzero"/><path fill="#000000" d="M51.95 177.1L53.059376 177.00626Q53.184376 177.81876 53.621876 178.225Q54.075 178.63126 54.715626 178.63126Q55.465626 178.63126 55.996876 178.05313Q56.528126 177.475 56.528126 176.5375Q56.528126 175.63126 56.0125 175.11563Q55.5125 174.58438 54.684376 174.58438Q54.184376 174.58438 53.7625 174.81876Q53.35625 175.05313 53.121876 175.4125L52.1375 175.2875L52.965626 170.88126L57.246876 170.88126L57.246876 171.88126L53.809376 171.88126L53.35625 174.19376Q54.121876 173.64688 54.965626 173.64688Q56.090626 173.64688 56.85625 174.42813Q57.6375 175.20938 57.6375 176.44376Q57.6375 177.6 56.965626 178.45938Q56.1375 179.49063 54.715626 179.49063Q53.54375 179.49063 52.79375 178.83438Q52.059376 178.17813 51.95 177.1ZM58.95 175.11563Q58.95 173.58438 59.2625 172.6625Q59.575 171.725 60.184376 171.225Q60.809376 170.725 61.746876 170.725Q62.434376 170.725 62.95 171.00626Q63.48125 171.2875 63.825 171.81876Q64.16875 172.33438 64.35625 173.08438Q64.54375 173.83438 64.54375 175.11563Q64.54375 176.63126 64.23125 177.55313Q63.934376 178.475 63.309376 178.99063Q62.7 179.49063 61.746876 179.49063Q60.5125 179.49063 59.79375 178.6Q58.95 177.5375 58.95 175.11563ZM60.028126 175.11563Q60.028126 177.225 60.528126 177.92813Q61.028126 178.63126 61.746876 178.63126Q62.48125 178.63126 62.965626 177.92813Q63.465626 177.225 63.465626 175.11563Q63.465626 172.99063 62.965626 172.30313Q62.48125 171.6 61.73125 171.6Q61.0125 171.6 60.575 172.20938Q60.028126 172.99063 60.028126 175.11563Z" fill-rule="nonzero"/><path fill="#000000" d="M48.91875 138.15L47.871876 138.15L47.871876 131.43124Q47.48125 131.79062 46.85625 132.16562Q46.246876 132.525 45.7625 132.69687L45.7625 131.68124Q46.6375 131.25937 47.29375 130.68124Q47.965626 130.0875 48.246876 129.525L48.91875 129.525L48.91875 138.15ZM51.95 133.91562Q51.95 132.38437 52.2625 131.4625Q52.575 130.525 53.184376 130.025Q53.809376 129.525 54.746876 129.525Q55.434376 129.525 55.95 129.80624Q56.48125 130.0875 56.825 130.61874Q57.16875 131.13437 57.35625 131.88437Q57.54375 132.63437 57.54375 133.91562Q57.54375 135.43124 57.23125 136.35312Q56.934376 137.275 56.309376 137.79062Q55.7 138.29062 54.746876 138.29062Q53.5125 138.29062 52.79375 137.4Q51.95 136.3375 51.95 133.91562ZM53.028126 133.91562Q53.028126 136.025 53.528126 136.72812Q54.028126 137.43124 54.746876 137.43124Q55.48125 137.43124 55.965626 136.72812Q56.465626 136.025 56.465626 133.91562Q56.465626 131.79062 55.965626 131.10312Q55.48125 130.4 54.73125 130.4Q54.0125 130.4 53.575 131.00937Q53.028126 131.79062 53.028126 133.91562ZM58.95 133.91562Q58.95 132.38437 59.2625 131.4625Q59.575 130.525 60.184376 130.025Q60.809376 129.525 61.746876 129.525Q62.434376 129.525 62.95 129.80624Q63.48125 130.0875 63.825 130.61874Q64.16875 131.13437 64.35625 131.88437Q64.54375 132.63437 64.54375 133.91562Q64.54375 135.43124 64.23125 136.35312Q63.934376 137.275 63.309376 137.79062Q62.7 138.29062 61.746876 138.29062Q60.5125 138.29062 59.79375 137.4Q58.95 136.3375 58.95 133.91562ZM60.028126 133.91562Q60.028126 136.025 60.528126 136.72812Q61.028126 137.43124 61.746876 137.43124Q62.48125 137.43124 62.965626 136.72812Q63.465626 136.025 63.465626 133.91562Q63.465626 131.79062 62.965626 131.10312Q62.48125 130.4 61.73125 130.4Q61.0125 130.4 60.575 131.00937Q60.028126 131.79062 60.028126 133.91562Z" fill-rule="nonzero"/><path fill="#000000" d="M48.91875 96.95L47.871876 96.95L47.871876 90.23125Q47.48125 90.59062 46.85625 90.96562Q46.246876 91.325 45.7625 91.49687L45.7625 90.48125Q46.6375 90.05937 47.29375 89.48125Q47.965626 88.8875 48.246876 88.325L48.91875 88.325L48.91875 96.95ZM51.95 94.7L53.059376 94.60625Q53.184376 95.41875 53.621876 95.825Q54.075 96.23125 54.715626 96.23125Q55.465626 96.23125 55.996876 95.65312Q56.528126 95.075 56.528126 94.1375Q56.528126 93.23125 56.0125 92.71562Q55.5125 92.18437 54.684376 92.18437Q54.184376 92.18437 53.7625 92.41875Q53.35625 92.65312 53.121876 93.0125L52.1375 92.8875L52.965626 88.48125L57.246876 88.48125L57.246876 89.48125L53.809376 89.48125L53.35625 91.79375Q54.121876 91.24687 54.965626 91.24687Q56.090626 91.24687 56.85625 92.02812Q57.6375 92.80937 57.6375 94.04375Q57.6375 95.2 56.965626 96.05937Q56.1375 97.09062 54.715626 97.09062Q53.54375 97.09062 52.79375 96.43437Q52.059376 95.77812 51.95 94.7ZM58.95 92.71562Q58.95 91.18437 59.2625 90.2625Q59.575 89.325 60.184376 88.825Q60.809376 88.325 61.746876 88.325Q62.434376 88.325 62.95 88.60625Q63.48125 88.8875 63.825 89.41875Q64.16875 89.93437 64.35625 90.68437Q64.54375 91.43437 64.54375 92.71562Q64.54375 94.23125 64.23125 95.15312Q63.934376 96.075 63.309376 96.59062Q62.7 97.09062 61.746876 97.09062Q60.5125 97.09062 59.79375 96.2Q58.95 95.1375 58.95 92.71562ZM60.028126 92.71562Q60.028126 94.825 60.528126 95.52812Q61.028126 96.23125 61.746876 96.23125Q62.48125 96.23125 62.965626 95.52812Q63.465626 94.825 63.465626 92.71562Q63.465626 90.59062 62.965626 89.90312Q62.48125 89.2 61.73125 89.2Q61.0125 89.2 60.575 89.80937Q60.028126 90.59062 60.028126 92.71562Z" fill-rule="nonzero"/><path fill="#000000" d="M50.496876 54.734375L50.496876 55.75L44.809376 55.75Q44.809376 55.375 44.934376 55.015625Q45.153126 54.4375 45.621876 53.875Q46.10625 53.3125 47.0125 52.578125Q48.41875 51.421875 48.903126 50.75Q49.403126 50.078125 49.403126 49.484375Q49.403126 48.859375 48.95 48.4375Q48.496876 48.0 47.778126 48.0Q47.0125 48.0 46.559376 48.453125Q46.10625 48.90625 46.090626 49.71875L45.0125 49.609375Q45.121876 48.390625 45.840626 47.765625Q46.575 47.125 47.809376 47.125Q49.04375 47.125 49.7625 47.8125Q50.48125 48.5 50.48125 49.515625Q50.48125 50.03125 50.2625 50.53125Q50.059376 51.015625 49.559376 51.578125Q49.075 52.125 47.95 53.078125Q46.996876 53.875 46.715626 54.171875Q46.45 54.453125 46.278126 54.734375L50.496876 54.734375ZM51.95 51.515625Q51.95 49.984375 52.2625 49.0625Q52.575 48.125 53.184376 47.625Q53.809376 47.125 54.746876 47.125Q55.434376 47.125 55.95 47.40625Q56.48125 47.6875 56.825 48.21875Q57.16875 48.734375 57.35625 49.484375Q57.54375 50.234375 57.54375 51.515625Q57.54375 53.03125 57.23125 53.953125Q56.934376 54.875 56.309376 55.390625Q55.7 55.890625 54.746876 55.890625Q53.5125 55.890625 52.79375 55.0Q51.95 53.9375 51.95 51.515625ZM53.028126 51.515625Q53.028126 53.625 53.528126 54.328125Q54.028126 55.03125 54.746876 55.03125Q55.48125 55.03125 55.965626 54.328125Q56.465626 53.625 56.465626 51.515625Q56.465626 49.390625 55.965626 48.703125Q55.48125 48.0 54.73125 48.0Q54.0125 48.0 53.575 48.609375Q53.028126 49.390625 53.028126 51.515625ZM58.95 51.515625Q58.95 49.984375 59.2625 49.0625Q59.575 48.125 60.184376 47.625Q60.809376 47.125 61.746876 47.125Q62.434376 47.125 62.95 47.40625Q63.48125 47.6875 63.825 48.21875Q64.16875 48.734375 64.35625 49.484375Q64.54375 50.234375 64.54375 51.515625Q64.54375 53.03125 64.23125 53.953125Q63.934376 54.875 63.309376 55.390625Q62.7 55.890625 61.746876 55.890625Q60.5125 55.890625 59.79375 55.0Q58.95 53.9375 58.95 51.515625ZM60.028126 51.515625Q60.028126 53.625 60.528126 54.328125Q61.028126 55.03125 61.746876 55.03125Q62.48125 55.03125 62.965626 54.328125Q63.465626 53.625 63.465626 51.515625Q63.465626 49.390625 62.965626 48.703125Q62.48125 48.0 61.73125 48.0Q61.0125 48.0 60.575 48.609375Q60.028126 49.390625 60.028126 51.515625Z" fill-rule="nonzero"/><path fill="#000000" d="M104.09165 230.78438L105.15415 230.69063Q105.23228 231.34688 105.51353 231.75313Q105.79478 232.15938 106.3729 232.425Q106.96665 232.675 107.70103 232.675Q108.34165 232.675 108.84165 232.4875Q109.34165 232.28438 109.57603 231.95625Q109.82603 231.6125 109.82603 231.22188Q109.82603 230.81563 109.59165 230.51875Q109.35728 230.20625 108.82603 230.00313Q108.46665 229.8625 107.27915 229.58125Q106.10728 229.3 105.63853 229.05Q105.01353 228.72188 104.71665 228.25313Q104.41978 227.76875 104.41978 227.175Q104.41978 226.53438 104.77915 225.97188Q105.15415 225.39375 105.85728 225.1125Q106.57603 224.81563 107.4354 224.81563Q108.38853 224.81563 109.1229 225.12813Q109.85728 225.425 110.2479 226.03438Q110.63853 226.62813 110.66978 227.37813L109.57603 227.45625Q109.48228 226.64375 108.96665 226.2375Q108.46665 225.81563 107.48228 225.81563Q106.45103 225.81563 105.98228 226.19063Q105.51353 226.56563 105.51353 227.09688Q105.51353 227.56563 105.84165 227.8625Q106.16978 228.15938 107.54478 228.47188Q108.9354 228.78438 109.45103 229.01875Q110.20103 229.37813 110.5604 229.90938Q110.91978 230.425 110.91978 231.12813Q110.91978 231.81563 110.52915 232.425Q110.13853 233.01875 109.40415 233.3625Q108.66978 233.69063 107.7479 233.69063Q106.57603 233.69063 105.77915 233.3625Q104.9979 233.01875 104.54478 232.33125Q104.10728 231.64375 104.09165 230.78438ZM112.34165 235.94063L112.34165 227.33125L113.29478 227.33125L113.29478 228.12813Q113.63853 227.65938 114.0604 227.425Q114.4979 227.19063 115.10728 227.19063Q115.90415 227.19063 116.51353 227.59688Q117.1229 228.00313 117.41978 228.75313Q117.73228 229.50313 117.73228 230.39375Q117.73228 231.34688 117.38853 232.1125Q117.0604 232.87813 116.40415 233.28438Q115.7479 233.69063 115.02915 233.69063Q114.4979 233.69063 114.07603 233.47188Q113.65415 233.2375 113.38853 232.90938L113.38853 235.94063L112.34165 235.94063ZM113.29478 230.47188Q113.29478 231.675 113.77915 232.25313Q114.26353 232.81563 114.95103 232.81563Q115.65415 232.81563 116.15415 232.22188Q116.65415 231.62813 116.65415 230.37813Q116.65415 229.19063 116.16978 228.6125Q115.6854 228.01875 114.9979 228.01875Q114.32603 228.01875 113.8104 228.64375Q113.29478 229.26875 113.29478 230.47188ZM119.32603 233.55L119.32603 227.33125L120.27915 227.33125L120.27915 228.26875Q120.63853 227.6125 120.9354 227.40938Q121.2479 227.19063 121.6229 227.19063Q122.15415 227.19063 122.70103 227.51875L122.34165 228.50313Q121.95103 228.26875 121.57603 228.26875Q121.21665 228.26875 120.9354 228.4875Q120.66978 228.69063 120.5604 229.06563Q120.3729 229.62813 120.3729 230.28438L120.3729 233.55L119.32603 233.55ZM123.34165 226.175L123.34165 224.95625L124.40415 224.95625L124.40415 226.175L123.34165 226.175ZM123.34165 233.55L123.34165 227.33125L124.40415 227.33125L124.40415 233.55L123.34165 233.55ZM126.34165 233.55L126.34165 227.33125L127.27915 227.33125L127.27915 228.20625Q127.96665 227.19063 129.26352 227.19063Q129.82602 227.19063 130.29477 227.39375Q130.77914 227.59688 131.01352 227.925Q131.2479 228.25313 131.34164 228.69063Q131.38852 228.9875 131.38852 229.72188L131.38852 233.55L130.34164 233.55L130.34164 229.76875Q130.34164 229.1125 130.21664 228.8Q130.09164 228.4875 129.77914 228.3Q129.46664 228.09688 129.04477 228.09688Q128.3729 228.09688 127.8729 228.53438Q127.38853 228.95625 127.38853 230.14375L127.38853 233.55L126.34165 233.55ZM133.13852 234.06563L134.16977 234.22188Q134.23227 234.69063 134.52914 234.90938Q134.91977 235.20625 135.59164 235.20625Q136.32602 235.20625 136.71664 234.90938Q137.1229 234.6125 137.26352 234.09688Q137.35727 233.76875 137.34164 232.7375Q136.65414 233.55 135.6229 233.55Q134.34164 233.55 133.63852 232.62813Q132.9354 231.69063 132.9354 230.40938Q132.9354 229.51875 133.2479 228.76875Q133.57602 228.00313 134.1854 227.59688Q134.79477 227.19063 135.6229 227.19063Q136.73227 227.19063 137.45102 228.08125L137.45102 227.33125L138.41977 227.33125L138.41977 232.70625Q138.41977 234.15938 138.1229 234.76875Q137.82602 235.37813 137.1854 235.72188Q136.54477 236.08125 135.60727 236.08125Q134.4979 236.08125 133.8104 235.58125Q133.1229 235.08125 133.13852 234.06563ZM134.01352 230.33125Q134.01352 231.55 134.4979 232.1125Q134.98227 232.675 135.71664 232.675Q136.45102 232.675 136.9354 232.1125Q137.4354 231.55 137.4354 230.3625Q137.4354 229.22188 136.91977 228.64375Q136.41977 228.06563 135.70102 228.06563Q134.9979 228.06563 134.4979 228.64375Q134.01352 229.20625 134.01352 230.33125ZM143.41977 233.55L143.41977 224.95625L146.65414 224.95625Q147.63852 224.95625 148.23227 225.22188Q148.82602 225.4875 149.15414 226.03438Q149.4979 226.56563 149.4979 227.15938Q149.4979 227.70625 149.20102 228.19063Q148.90414 228.675 148.29477 228.97188Q149.07602 229.20625 149.48227 229.76875Q149.90414 230.31563 149.90414 231.06563Q149.90414 231.65938 149.65414 232.19063Q149.40414 232.70625 149.02914 232.9875Q148.65414 233.26875 148.07602 233.40938Q147.51352 233.55 146.70102 233.55L143.41977 233.55ZM144.5604 228.56563L146.41977 228.56563Q147.16977 228.56563 147.4979 228.47188Q147.9354 228.34688 148.15414 228.05Q148.3729 227.7375 148.3729 227.28438Q148.3729 226.8625 148.16977 226.53438Q147.96664 226.20625 147.57602 226.09688Q147.20102 225.97188 146.27914 225.97188L144.5604 225.97188L144.5604 228.56563ZM144.5604 232.53438L146.70102 232.53438Q147.2479 232.53438 147.46664 232.4875Q147.8729 232.425 148.1229 232.26875Q148.38852 232.09688 148.5604 231.78438Q148.73227 231.47188 148.73227 231.06563Q148.73227 230.58125 148.48227 230.22188Q148.2479 229.8625 147.8104 229.72188Q147.3729 229.58125 146.54477 229.58125L144.5604 229.58125L144.5604 232.53438ZM150.95102 230.44063Q150.95102 228.70625 151.90414 227.87813Q152.70102 227.19063 153.85727 227.19063Q155.13852 227.19063 155.95102 228.03438Q156.77914 228.8625 156.77914 230.34688Q156.77914 231.55 156.41977 232.2375Q156.0604 232.925 155.35727 233.31563Q154.66977 233.69063 153.85727 233.69063Q152.5604 233.69063 151.7479 232.8625Q150.95102 232.01875 150.95102 230.44063ZM152.02914 230.44063Q152.02914 231.62813 152.54477 232.22188Q153.07602 232.81563 153.85727 232.81563Q154.65414 232.81563 155.16977 232.22188Q155.6854 231.62813 155.6854 230.40938Q155.6854 229.25313 155.15414 228.65938Q154.63852 228.06563 153.85727 228.06563Q153.07602 228.06563 152.54477 228.65938Q152.02914 229.2375 152.02914 230.44063ZM157.95102 230.44063Q157.95102 228.70625 158.90414 227.87813Q159.70102 227.19063 160.85727 227.19063Q162.13852 227.19063 162.95102 228.03438Q163.77914 228.8625 163.77914 230.34688Q163.77914 231.55 163.41977 232.2375Q163.0604 232.925 162.35727 233.31563Q161.66977 233.69063 160.85727 233.69063Q159.5604 233.69063 158.7479 232.8625Q157.95102 232.01875 157.95102 230.44063ZM159.02914 230.44063Q159.02914 231.62813 159.54477 232.22188Q160.07602 232.81563 160.85727 232.81563Q161.65414 232.81563 162.16977 232.22188Q162.6854 231.62813 162.6854 230.40938Q162.6854 229.25313 162.15414 228.65938Q161.63852 228.06563 160.85727 228.06563Q160.07602 228.06563 159.54477 228.65938Q159.02914 229.2375 159.02914 230.44063ZM167.63852 232.6125L167.79477 233.53438Q167.34164 233.62813 166.9979 233.62813Q166.41977 233.62813 166.10727 233.45625Q165.79477 233.26875 165.65414 232.97188Q165.52914 232.675 165.52914 231.72188L165.52914 228.14375L164.76352 228.14375L164.76352 227.33125L165.52914 227.33125L165.52914 225.78438L166.57602 225.15938L166.57602 227.33125L167.63852 227.33125L167.63852 228.14375L166.57602 228.14375L166.57602 231.78438Q166.57602 232.2375 166.6229 232.3625Q166.6854 232.4875 166.8104 232.56563Q166.9354 232.64375 167.16977 232.64375Q167.35727 232.64375 167.63852 232.6125Z" fill-rule="nonzero"/><path fill="#000000" d="M214.4375 232.62813Q215.23438 233.175 215.89062 233.425L215.5625 234.22188Q214.64062 233.87813 213.71875 233.15938Q212.76562 233.69063 211.60938 233.69063Q210.4375 233.69063 209.48438 233.12813Q208.54688 232.56563 208.03125 231.55Q207.51562 230.53438 207.51562 229.25313Q207.51562 227.9875 208.03125 226.94063Q208.54688 225.89375 209.5 225.34688Q210.45312 224.8 211.625 224.8Q212.8125 224.8 213.76562 225.37813Q214.73438 225.94063 215.23438 226.95625Q215.73438 227.97188 215.73438 229.25313Q215.73438 230.31563 215.40625 231.15938Q215.09375 232.00313 214.4375 232.62813ZM211.9375 231.175Q212.92188 231.45625 213.5625 232.00313Q214.5625 231.08125 214.5625 229.25313Q214.5625 228.20625 214.20312 227.425Q213.84375 226.64375 213.15625 226.22188Q212.48438 225.78438 211.64062 225.78438Q210.35938 225.78438 209.51562 226.65938Q208.6875 227.51875 208.6875 229.25313Q208.6875 230.925 209.51562 231.83125Q210.34375 232.72188 211.64062 232.72188Q212.25 232.72188 212.78125 232.4875Q212.25 232.14375 211.65625 232.00313L211.9375 231.175ZM220.875 233.55L220.875 232.62813Q220.14062 233.69063 218.89062 233.69063Q218.34375 233.69063 217.85938 233.4875Q217.39062 233.26875 217.15625 232.95625Q216.92188 232.62813 216.82812 232.15938Q216.76562 231.8625 216.76562 231.175L216.76562 227.33125L217.82812 227.33125L217.82812 230.78438Q217.82812 231.59688 217.89062 231.89375Q217.98438 232.3 218.29688 232.55Q218.625 232.78438 219.10938 232.78438Q219.57812 232.78438 219.98438 232.55Q220.40625 232.3 220.57812 231.87813Q220.76562 231.45625 220.76562 230.65938L220.76562 227.33125L221.8125 227.33125L221.8125 233.55L220.875 233.55ZM227.85938 232.78438Q227.26562 233.28438 226.71875 233.4875Q226.1875 233.69063 225.5625 233.69063Q224.53125 233.69063 223.98438 233.19063Q223.4375 232.69063 223.4375 231.90938Q223.4375 231.45625 223.64062 231.08125Q223.84375 230.69063 224.1875 230.47188Q224.53125 230.2375 224.95312 230.12813Q225.25 230.03438 225.89062 229.95625Q227.15625 229.81563 227.76562 229.59688Q227.76562 229.37813 227.76562 229.33125Q227.76562 228.675 227.46875 228.40938Q227.0625 228.06563 226.26562 228.06563Q225.53125 228.06563 225.17188 228.33125Q224.8125 228.58125 224.64062 229.2375L223.60938 229.09688Q223.75 228.44063 224.07812 228.03438Q224.40625 227.62813 225.01562 227.40938Q225.625 227.19063 226.42188 227.19063Q227.21875 227.19063 227.71875 227.37813Q228.21875 227.56563 228.45312 227.84688Q228.6875 228.12813 228.78125 228.56563Q228.82812 228.83125 228.82812 229.53438L228.82812 230.94063Q228.82812 232.40938 228.89062 232.8Q228.96875 233.19063 229.17188 233.55L228.0625 233.55Q227.90625 233.22188 227.85938 232.78438ZM227.76562 230.425Q227.1875 230.65938 226.04688 230.83125Q225.39062 230.925 225.125 231.05Q224.85938 231.15938 224.70312 231.37813Q224.5625 231.59688 224.5625 231.87813Q224.5625 232.3 224.875 232.58125Q225.20312 232.8625 225.8125 232.8625Q226.42188 232.8625 226.89062 232.59688Q227.375 232.33125 227.59375 231.8625Q227.76562 231.50313 227.76562 230.81563L227.76562 230.425ZM230.78125 233.55L230.78125 227.33125L231.73438 227.33125L231.73438 228.26875Q232.09375 227.6125 232.39062 227.40938Q232.70312 227.19063 233.07812 227.19063Q233.60938 227.19063 234.15625 227.51875L233.79688 228.50313Q233.40625 228.26875 233.03125 228.26875Q232.67188 228.26875 232.39062 228.4875Q232.125 228.69063 232.01562 229.06563Q231.82812 229.62813 231.82812 230.28438L231.82812 233.55L230.78125 233.55ZM234.79688 233.55L234.79688 224.95625L235.85938 224.95625L235.85938 229.8625L238.34375 227.33125L239.71875 227.33125L237.32812 229.62813L239.95312 233.55L238.65625 233.55L236.59375 230.3625L235.85938 231.08125L235.85938 233.55L234.79688 233.55ZM244.875 233.55L244.875 232.62813Q244.14062 233.69063 242.89062 233.69063Q242.34375 233.69063 241.85938 233.4875Q241.39062 233.26875 241.15625 232.95625Q240.92188 232.62813 240.82812 232.15938Q240.76562 231.8625 240.76562 231.175L240.76562 227.33125L241.82812 227.33125L241.82812 230.78438Q241.82812 231.59688 241.89062 231.89375Q241.98438 232.3 242.29688 232.55Q242.625 232.78438 243.10938 232.78438Q243.57812 232.78438 243.98438 232.55Q244.40625 232.3 244.57812 231.87813Q244.76562 231.45625 244.76562 230.65938L244.76562 227.33125L245.8125 227.33125L245.8125 233.55L244.875 233.55ZM247.375 231.69063L248.40625 231.53438Q248.5 232.15938 248.89062 232.4875Q249.29688 232.81563 250.03125 232.81563Q250.75 232.81563 251.09375 232.53438Q251.45312 232.2375 251.45312 231.83125Q251.45312 231.47188 251.14062 231.26875Q250.92188 231.12813 250.0625 230.90938Q248.90625 230.6125 248.45312 230.40938Q248.01562 230.19063 247.78125 229.81563Q247.54688 229.44063 247.54688 228.97188Q247.54688 228.56563 247.73438 228.20625Q247.92188 227.84688 248.25 227.6125Q248.5 227.44063 248.92188 227.31563Q249.34375 227.19063 249.84375 227.19063Q250.5625 227.19063 251.10938 227.40938Q251.67188 227.6125 251.9375 227.97188Q252.20312 228.33125 252.29688 228.925L251.26562 229.06563Q251.20312 228.59688 250.85938 228.33125Q250.53125 228.05 249.90625 228.05Q249.1875 228.05 248.875 228.3Q248.5625 228.53438 248.5625 228.8625Q248.5625 229.06563 248.6875 229.22188Q248.82812 229.39375 249.09375 229.50313Q249.25 229.56563 250.03125 229.76875Q251.15625 230.08125 251.59375 230.26875Q252.03125 230.45625 252.28125 230.81563Q252.53125 231.175 252.53125 231.72188Q252.53125 232.25313 252.21875 232.72188Q251.92188 233.175 251.34375 233.44063Q250.76562 233.69063 250.03125 233.69063Q248.8125 233.69063 248.17188 233.19063Q247.54688 232.675 247.375 231.69063Z" fill-rule="nonzero"/><path fill="#000000" d="M291.89273 232.62813Q292.6896 233.175 293.34586 233.425L293.01773 234.22188Q292.09586 233.87813 291.17398 233.15938Q290.22086 233.69063 289.0646 233.69063Q287.89273 233.69063 286.9396 233.12813Q286.0021 232.56563 285.48648 231.55Q284.97086 230.53438 284.97086 229.25313Q284.97086 227.9875 285.48648 226.94063Q286.0021 225.89375 286.95523 225.34688Q287.90836 224.8 289.08023 224.8Q290.26773 224.8 291.22086 225.37813Q292.1896 225.94063 292.6896 226.95625Q293.1896 227.97188 293.1896 229.25313Q293.1896 230.31563 292.86148 231.15938Q292.54898 232.00313 291.89273 232.62813ZM289.39273 231.175Q290.3771 231.45625 291.01773 232.00313Q292.01773 231.08125 292.01773 229.25313Q292.01773 228.20625 291.65836 227.425Q291.29898 226.64375 290.61148 226.22188Q289.9396 225.78438 289.09586 225.78438Q287.8146 225.78438 286.97086 226.65938Q286.14273 227.51875 286.14273 229.25313Q286.14273 230.925 286.97086 231.83125Q287.79898 232.72188 289.09586 232.72188Q289.70523 232.72188 290.23648 232.4875Q289.70523 232.14375 289.11148 232.00313L289.39273 231.175ZM298.33023 233.55L298.33023 232.62813Q297.59586 233.69063 296.34586 233.69063Q295.79898 233.69063 295.3146 233.4875Q294.84586 233.26875 294.61148 232.95625Q294.3771 232.62813 294.28336 232.15938Q294.22086 231.8625 294.22086 231.175L294.22086 227.33125L295.28336 227.33125L295.28336 230.78438Q295.28336 231.59688 295.34586 231.89375Q295.4396 232.3 295.7521 232.55Q296.08023 232.78438 296.5646 232.78438Q297.03336 232.78438 297.4396 232.55Q297.86148 232.3 298.03336 231.87813Q298.22086 231.45625 298.22086 230.65938L298.22086 227.33125L299.26773 227.33125L299.26773 233.55L298.33023 233.55ZM305.3146 232.78438Q304.72086 233.28438 304.17398 233.4875Q303.64273 233.69063 303.01773 233.69063Q301.98648 233.69063 301.4396 233.19063Q300.89273 232.69063 300.89273 231.90938Q300.89273 231.45625 301.09586 231.08125Q301.29898 230.69063 301.64273 230.47188Q301.98648 230.2375 302.40836 230.12813Q302.70523 230.03438 303.34586 229.95625Q304.61148 229.81563 305.22086 229.59688Q305.22086 229.37813 305.22086 229.33125Q305.22086 228.675 304.92398 228.40938Q304.51773 228.06563 303.72086 228.06563Q302.98648 228.06563 302.6271 228.33125Q302.26773 228.58125 302.09586 229.2375L301.0646 229.09688Q301.20523 228.44063 301.53336 228.03438Q301.86148 227.62813 302.47086 227.40938Q303.08023 227.19063 303.8771 227.19063Q304.67398 227.19063 305.17398 227.37813Q305.67398 227.56563 305.90836 227.84688Q306.14273 228.12813 306.23648 228.56563Q306.28336 228.83125 306.28336 229.53438L306.28336 230.94063Q306.28336 232.40938 306.34586 232.8Q306.42398 233.19063 306.6271 233.55L305.51773 233.55Q305.36148 233.22188 305.3146 232.78438ZM305.22086 230.425Q304.64273 230.65938 303.5021 230.83125Q302.84586 230.925 302.58023 231.05Q302.3146 231.15938 302.15836 231.37813Q302.01773 231.59688 302.01773 231.87813Q302.01773 232.3 302.33023 232.58125Q302.65836 232.8625 303.26773 232.8625Q303.8771 232.8625 304.34586 232.59688Q304.83023 232.33125 305.04898 231.8625Q305.22086 231.50313 305.22086 230.81563L305.22086 230.425ZM308.23648 233.55L308.23648 227.33125L309.1896 227.33125L309.1896 228.26875Q309.54898 227.6125 309.84586 227.40938Q310.15836 227.19063 310.53336 227.19063Q311.0646 227.19063 311.61148 227.51875L311.2521 228.50313Q310.86148 228.26875 310.48648 228.26875Q310.1271 228.26875 309.84586 228.4875Q309.58023 228.69063 309.47086 229.06563Q309.28336 229.62813 309.28336 230.28438L309.28336 233.55L308.23648 233.55ZM312.2521 233.55L312.2521 224.95625L313.3146 224.95625L313.3146 229.8625L315.79898 227.33125L317.17398 227.33125L314.78336 229.62813L317.40836 233.55L316.11148 233.55L314.04898 230.3625L313.3146 231.08125L313.3146 233.55L312.2521 233.55ZM322.33023 233.55L322.33023 232.62813Q321.59586 233.69063 320.34586 233.69063Q319.79898 233.69063 319.3146 233.4875Q318.84586 233.26875 318.61148 232.95625Q318.3771 232.62813 318.28336 232.15938Q318.22086 231.8625 318.22086 231.175L318.22086 227.33125L319.28336 227.33125L319.28336 230.78438Q319.28336 231.59688 319.34586 231.89375Q319.4396 232.3 319.7521 232.55Q320.08023 232.78438 320.5646 232.78438Q321.03336 232.78438 321.4396 232.55Q321.86148 232.3 322.03336 231.87813Q322.22086 231.45625 322.22086 230.65938L322.22086 227.33125L323.26773 227.33125L323.26773 233.55L322.33023 233.55ZM324.83023 231.69063L325.86148 231.53438Q325.95523 232.15938 326.34586 232.4875Q326.7521 232.81563 327.48648 232.81563Q328.20523 232.81563 328.54898 232.53438Q328.90836 232.2375 328.90836 231.83125Q328.90836 231.47188 328.59586 231.26875Q328.3771 231.12813 327.51773 230.90938Q326.36148 230.6125 325.90836 230.40938Q325.47086 230.19063 325.23648 229.81563Q325.0021 229.44063 325.0021 228.97188Q325.0021 228.56563 325.1896 228.20625Q325.3771 227.84688 325.70523 227.6125Q325.95523 227.44063 326.3771 227.31563Q326.79898 227.19063 327.29898 227.19063Q328.01773 227.19063 328.5646 227.40938Q329.1271 227.6125 329.39273 227.97188Q329.65836 228.33125 329.7521 228.925L328.72086 229.06563Q328.65836 228.59688 328.3146 228.33125Q327.98648 228.05 327.36148 228.05Q326.64273 228.05 326.33023 228.3Q326.01773 228.53438 326.01773 228.8625Q326.01773 229.06563 326.14273 229.22188Q326.28336 229.39375 326.54898 229.50313Q326.70523 229.56563 327.48648 229.76875Q328.61148 230.08125 329.04898 230.26875Q329.48648 230.45625 329.73648 230.81563Q329.98648 231.175 329.98648 231.72188Q329.98648 232.25313 329.67398 232.72188Q329.3771 233.175 328.79898 233.44063Q328.22086 233.69063 327.48648 233.69063Q326.26773 233.69063 325.6271 233.19063Q325.0021 232.675 324.83023 231.69063ZM335.2521 233.55L335.2521 227.33125L336.1896 227.33125L336.1896 228.20625Q336.8771 227.19063 338.17398 227.19063Q338.73648 227.19063 339.20523 227.39375Q339.6896 227.59688 339.92398 227.925Q340.15836 228.25313 340.2521 228.69063Q340.29898 228.9875 340.29898 229.72188L340.29898 233.55L339.2521 233.55L339.2521 229.76875Q339.2521 229.1125 339.1271 228.8Q339.0021 228.4875 338.6896 228.3Q338.3771 228.09688 337.95523 228.09688Q337.28336 228.09688 336.78336 228.53438Q336.29898 228.95625 336.29898 230.14375L336.29898 233.55L335.2521 233.55ZM346.3146 232.78438Q345.72086 233.28438 345.17398 233.4875Q344.64273 233.69063 344.01773 233.69063Q342.98648 233.69063 342.4396 233.19063Q341.89273 232.69063 341.89273 231.90938Q341.89273 231.45625 342.09586 231.08125Q342.29898 230.69063 342.64273 230.47188Q342.98648 230.2375 343.40836 230.12813Q343.70523 230.03438 344.34586 229.95625Q345.61148 229.81563 346.22086 229.59688Q346.22086 229.37813 346.22086 229.33125Q346.22086 228.675 345.92398 228.40938Q345.51773 228.06563 344.72086 228.06563Q343.98648 228.06563 343.6271 228.33125Q343.26773 228.58125 343.09586 229.2375L342.0646 229.09688Q342.20523 228.44063 342.53336 228.03438Q342.86148 227.62813 343.47086 227.40938Q344.08023 227.19063 344.8771 227.19063Q345.67398 227.19063 346.17398 227.37813Q346.67398 227.56563 346.90836 227.84688Q347.14273 228.12813 347.23648 228.56563Q347.28336 228.83125 347.28336 229.53438L347.28336 230.94063Q347.28336 232.40938 347.34586 232.8Q347.42398 233.19063 347.6271 233.55L346.51773 233.55Q346.36148 233.22188 346.3146 232.78438ZM346.22086 230.425Q345.64273 230.65938 344.5021 230.83125Q343.84586 230.925 343.58023 231.05Q343.3146 231.15938 343.15836 231.37813Q343.01773 231.59688 343.01773 231.87813Q343.01773 232.3 343.33023 232.58125Q343.65836 232.8625 344.26773 232.8625Q344.8771 232.8625 345.34586 232.59688Q345.83023 232.33125 346.04898 231.8625Q346.22086 231.50313 346.22086 230.81563L346.22086 230.425ZM351.54898 232.6125L351.70523 233.53438Q351.2521 233.62813 350.90836 233.62813Q350.33023 233.62813 350.01773 233.45625Q349.70523 233.26875 349.5646 232.97188Q349.4396 232.675 349.4396 231.72188L349.4396 228.14375L348.67398 228.14375L348.67398 227.33125L349.4396 227.33125L349.4396 225.78438L350.48648 225.15938L350.48648 227.33125L351.54898 227.33125L351.54898 228.14375L350.48648 228.14375L350.48648 231.78438Q350.48648 232.2375 350.53336 232.3625Q350.59586 232.4875 350.72086 232.56563Q350.84586 232.64375 351.08023 232.64375Q351.26773 232.64375 351.54898 232.6125ZM352.2521 226.175L352.2521 224.95625L353.3146 224.95625L353.3146 226.175L352.2521 226.175ZM352.2521 233.55L352.2521 227.33125L353.3146 227.33125L353.3146 233.55L352.2521 233.55ZM356.97086 233.55L354.61148 227.33125L355.72086 227.33125L357.0646 231.05Q357.26773 231.65938 357.45523 232.3Q357.59586 231.81563 357.84586 231.12813L359.23648 227.33125L360.3146 227.33125L357.95523 233.55L356.97086 233.55ZM364.5021 231.55L365.59586 231.675Q365.34586 232.62813 364.64273 233.15938Q363.9396 233.69063 362.86148 233.69063Q361.5021 233.69063 360.6896 232.84688Q359.89273 232.00313 359.89273 230.4875Q359.89273 228.925 360.70523 228.06563Q361.51773 227.19063 362.79898 227.19063Q364.04898 227.19063 364.83023 228.03438Q365.6271 228.87813 365.6271 230.425Q365.6271 230.51875 365.6271 230.70625L360.98648 230.70625Q361.04898 231.7375 361.5646 232.28438Q362.08023 232.81563 362.86148 232.81563Q363.4396 232.81563 363.84586 232.51875Q364.26773 232.20625 364.5021 231.55ZM361.04898 229.84688L364.51773 229.84688Q364.45523 229.05 364.1271 228.65938Q363.61148 228.05 362.8146 228.05Q362.08023 228.05 361.58023 228.53438Q361.09586 229.01875 361.04898 229.84688Z" fill-rule="nonzero"/><path fill="#757575" d="M13.934375 31.45L13.934375 17.1375L16.79375 17.1375L20.16875 27.2625Q20.6375 28.684376 20.85625 29.3875Q21.10625 28.60625 21.621876 27.090626L25.04375 17.1375L27.590626 17.1375L27.590626 31.45L25.778126 31.45L25.778126 19.465626L21.60625 31.45L19.903126 31.45L15.7625 19.2625L15.7625 31.45L13.934375 31.45ZM37.871876 28.10625L39.684376 28.340626Q39.2625 29.91875 38.090626 30.809376Q36.934376 31.684376 35.121876 31.684376Q32.85625 31.684376 31.5125 30.29375Q30.184376 28.8875 30.184376 26.35625Q30.184376 23.73125 31.528126 22.29375Q32.871876 20.840626 35.028126 20.840626Q37.10625 20.840626 38.41875 22.2625Q39.746876 23.66875 39.746876 26.246876Q39.746876 26.403126 39.73125 26.715626L31.996876 26.715626Q32.090626 28.41875 32.965626 29.325Q33.840626 30.23125 35.1375 30.23125Q36.10625 30.23125 36.778126 29.73125Q37.465626 29.215626 37.871876 28.10625ZM32.090626 25.2625L37.8875 25.2625Q37.778126 23.965626 37.23125 23.309376Q36.3875 22.29375 35.04375 22.29375Q33.840626 22.29375 33.0125 23.10625Q32.184376 23.903126 32.090626 25.2625ZM41.7625 31.45L41.7625 21.075L43.340626 21.075L43.340626 22.528126Q43.825 21.778126 44.6375 21.309376Q45.45 20.840626 46.48125 20.840626Q47.6375 20.840626 48.371876 21.325Q49.10625 21.79375 49.41875 22.653126Q50.653126 20.840626 52.621876 20.840626Q54.16875 20.840626 54.996876 21.7Q55.825 22.559376 55.825 24.325L55.825 31.45L54.075 31.45L54.075 24.91875Q54.075 23.85625 53.903126 23.403126Q53.73125 22.934376 53.278126 22.653126Q52.840626 22.371876 52.23125 22.371876Q51.1375 22.371876 50.403126 23.10625Q49.684376 23.825 49.684376 25.41875L49.684376 31.45L47.934376 31.45L47.934376 24.715626Q47.934376 23.54375 47.496876 22.965626Q47.075 22.371876 46.090626 22.371876Q45.35625 22.371876 44.715626 22.7625Q44.090626 23.153126 43.809376 23.903126Q43.528126 24.653126 43.528126 26.075L43.528126 31.45L41.7625 31.45ZM57.121876 26.2625Q57.121876 23.3875 58.715626 21.996876Q60.059376 20.840626 61.98125 20.840626Q64.12187 20.840626 65.46562 22.246876Q66.825 23.653126 66.825 26.121876Q66.825 28.121876 66.23125 29.278126Q65.6375 30.41875 64.48125 31.059376Q63.340626 31.684376 61.98125 31.684376Q59.79375 31.684376 58.45 30.29375Q57.121876 28.8875 57.121876 26.2625ZM58.91875 26.2625Q58.91875 28.2625 59.778126 29.246876Q60.653126 30.23125 61.98125 30.23125Q63.29375 30.23125 64.15312 29.246876Q65.02812 28.246876 65.02812 26.2Q65.02812 24.278126 64.15312 23.29375Q63.278126 22.29375 61.98125 22.29375Q60.653126 22.29375 59.778126 23.29375Q58.91875 24.278126 58.91875 26.2625ZM68.74687 31.45L68.74687 21.075L70.325 21.075L70.325 22.653126Q70.93437 21.54375 71.45 21.2Q71.96562 20.840626 72.575 20.840626Q73.46562 20.840626 74.3875 21.403126L73.77812 23.04375Q73.1375 22.653126 72.49687 22.653126Q71.91875 22.653126 71.45 23.0125Q70.99687 23.35625 70.79375 23.965626Q70.5125 24.903126 70.5125 26.0125L70.5125 31.45L68.74687 31.45ZM75.68437 35.45L75.49687 33.79375Q76.075 33.95 76.49687 33.95Q77.09062 33.95 77.43437 33.746876Q77.79375 33.559376 78.0125 33.215626Q78.18437 32.95 78.55937 31.903126Q78.60625 31.746876 78.71562 31.465626L74.77812 21.075L76.66875 21.075L78.825 27.090626Q79.24687 28.23125 79.575 29.48125Q79.8875 28.278126 80.29375 27.121876L82.5125 21.075L84.27812 21.075L80.325 31.621876Q79.7 33.340626 79.34062 33.98125Q78.87187 34.85625 78.2625 35.246876Q77.66875 35.653126 76.825 35.653126Q76.30937 35.653126 75.68437 35.45ZM101.3875 17.1375L103.27812 17.1375L103.27812 25.403126Q103.27812 27.559376 102.79375 28.840626Q102.30937 30.10625 101.02812 30.903126Q99.7625 31.7 97.68437 31.7Q95.66875 31.7 94.3875 31.0125Q93.12187 30.309376 92.575 28.996876Q92.02812 27.684376 92.02812 25.403126L92.02812 17.1375L93.91875 17.1375L93.91875 25.3875Q93.91875 27.2625 94.2625 28.153126Q94.60625 29.028126 95.45 29.5125Q96.29375 29.98125 97.52812 29.98125Q99.60625 29.98125 100.49687 29.04375Q101.3875 28.090626 101.3875 25.3875L101.3875 17.1375ZM104.05937 28.35625L105.80937 28.075Q105.95 29.121876 106.62187 29.684376Q107.29375 30.23125 108.49687 30.23125Q109.7 30.23125 110.27812 29.746876Q110.87187 29.246876 110.87187 28.590626Q110.87187 27.996876 110.35625 27.653126Q109.99687 27.41875 108.55937 27.059376Q106.62187 26.559376 105.87187 26.215626Q105.1375 25.85625 104.74687 25.23125Q104.35625 24.590626 104.35625 23.825Q104.35625 23.1375 104.66875 22.54375Q104.99687 21.95 105.54375 21.559376Q105.95 21.2625 106.65312 21.059376Q107.37187 20.840626 108.18437 20.840626Q109.40312 20.840626 110.325 21.2Q111.24687 21.54375 111.68437 22.153126Q112.12187 22.746876 112.29375 23.746876L110.575 23.98125Q110.45 23.184376 109.8875 22.746876Q109.325 22.29375 108.30937 22.29375Q107.09062 22.29375 106.575 22.7Q106.05937 23.090626 106.05937 23.621876Q106.05937 23.965626 106.27812 24.246876Q106.48125 24.528126 106.95 24.715626Q107.21562 24.809376 108.49687 25.153126Q110.37187 25.653126 111.10625 25.98125Q111.84062 26.29375 112.2625 26.903126Q112.68437 27.496876 112.68437 28.403126Q112.68437 29.278126 112.16875 30.059376Q111.65312 30.840626 110.68437 31.2625Q109.71562 31.684376 108.49687 31.684376Q106.48125 31.684376 105.41875 30.840626Q104.35625 29.996876 104.05937 28.35625ZM121.54375 30.16875Q120.55937 30.996876 119.65312 31.340626Q118.74687 31.684376 117.71562 31.684376Q116.0125 31.684376 115.09062 30.85625Q114.16875 30.0125 114.16875 28.715626Q114.16875 27.95 114.5125 27.325Q114.87187 26.7 115.43437 26.325Q115.99687 25.934376 116.7 25.73125Q117.21562 25.60625 118.2625 25.465626Q120.3875 25.215626 121.3875 24.871876Q121.40312 24.5125 121.40312 24.403126Q121.40312 23.340626 120.90312 22.8875Q120.23125 22.29375 118.90312 22.29375Q117.65312 22.29375 117.05937 22.73125Q116.48125 23.16875 116.2 24.278126L114.48125 24.04375Q114.71562 22.934376 115.24687 22.2625Q115.77812 21.575 116.79375 21.215626Q117.80937 20.840626 119.15312 20.840626Q120.48125 20.840626 121.30937 21.153126Q122.1375 21.465626 122.52812 21.95Q122.91875 22.41875 123.075 23.1375Q123.16875 23.590626 123.16875 24.7625L123.16875 27.10625Q123.16875 29.559376 123.27812 30.215626Q123.3875 30.85625 123.73125 31.45L121.8875 31.45Q121.62187 30.903126 121.54375 30.16875ZM121.3875 26.246876Q120.43437 26.6375 118.5125 26.903126Q117.43437 27.059376 116.98125 27.2625Q116.54375 27.45 116.29375 27.825Q116.04375 28.2 116.04375 28.66875Q116.04375 29.371876 116.575 29.840626Q117.10625 30.309376 118.1375 30.309376Q119.15312 30.309376 119.93437 29.871876Q120.73125 29.41875 121.10625 28.653126Q121.3875 28.04375 121.3875 26.8875L121.3875 26.246876ZM125.45 32.309376L127.15312 32.559376Q127.2625 33.35625 127.74687 33.715626Q128.40312 34.2 129.54375 34.2Q130.7625 34.2 131.41875 33.715626Q132.09062 33.23125 132.325 32.35625Q132.46562 31.809376 132.45 30.090626Q131.29375 31.45 129.575 31.45Q127.43437 31.45 126.2625 29.903126Q125.09062 28.35625 125.09062 26.2Q125.09062 24.715626 125.62187 23.465626Q126.16875 22.215626 127.18437 21.528126Q128.21562 20.840626 129.59062 20.840626Q131.41875 20.840626 132.62187 22.325L132.62187 21.075L134.23125 21.075L134.23125 30.04375Q134.23125 32.465626 133.73125 33.465626Q133.24687 34.48125 132.16875 35.059376Q131.10625 35.653126 129.54375 35.653126Q127.7 35.653126 126.54375 34.825Q125.40312 33.996876 125.45 32.309376ZM126.90312 26.075Q126.90312 28.121876 127.71562 29.059376Q128.52812 29.996876 129.74687 29.996876Q130.95 29.996876 131.7625 29.059376Q132.59062 28.121876 132.59062 26.1375Q132.59062 24.23125 131.74687 23.2625Q130.90312 22.29375 129.71562 22.29375Q128.54375 22.29375 127.71562 23.246876Q126.90312 24.2 126.90312 26.075ZM143.87187 28.10625L145.68437 28.340626Q145.2625 29.91875 144.09062 30.809376Q142.93437 31.684376 141.12187 31.684376Q138.85625 31.684376 137.5125 30.29375Q136.18437 28.8875 136.18437 26.35625Q136.18437 23.73125 137.52812 22.29375Q138.87187 20.840626 141.02812 20.840626Q143.10625 20.840626 144.41875 22.2625Q145.74687 23.66875 145.74687 26.246876Q145.74687 26.403126 145.73125 26.715626L137.99687 26.715626Q138.09062 28.41875 138.96562 29.325Q139.84062 30.23125 141.1375 30.23125Q142.10625 30.23125 142.77812 29.73125Q143.46562 29.215626 143.87187 28.10625ZM138.09062 25.2625L143.8875 25.2625Q143.77812 23.965626 143.23125 23.309376Q142.3875 22.29375 141.04375 22.29375Q139.84062 22.29375 139.0125 23.10625Q138.18437 23.903126 138.09062 25.2625Z" fill-rule="nonzero"/></svg>