<svg version="1.1" viewBox="0.0 0.0 402.0 249.0" fill="none" stroke="none" stroke-linecap="square" stroke-miterlimit="10" width="402" height="249" xmlns:xlink="http://www.w3.org/1999/xlink" xmlns="http://www.w3.org/2000/svg"><path fill="#ffffff" d="M0 0L402.0 0L402.0 249.0L0 249.0L0 0Z" fill-rule="nonzero"/><path stroke="#333333" stroke-width="1.0" stroke-linecap="butt" d="M71.5 216.5L389.5 216.5" fill-rule="nonzero"/><path stroke="#cccccc" stroke-width="1.0" stroke-linecap="butt" d="M71.5 175.5L389.5 175.5" fill-rule="nonzero"/><path stroke="#cccccc" stroke-width="1.0" stroke-linecap="butt" d="M71.5 134.5L389.5 134.5" fill-rule="nonzero"/><path stroke="#cccccc" stroke-width="1.0" stroke-linecap="butt" d="M71.5 92.5L389.5 92.5" fill-rule="nonzero"/><path stroke="#cccccc" stroke-width="1.0" stroke-linecap="butt" d="M71.5 51.5L389.5 51.5" fill-rule="nonzero"/><clipPath id="id_0"><path d="M71.45 51.75L389.55 51.75L389.55 216.55L71.45 216.55L71.45 51.75Z" clip-rule="nonzero"/></clipPath><path stroke="#000000" stroke-width="2.0" stroke-linecap="butt" stroke-opacity="0.0" clip-path="url(#id_0)" d="M167.0 217.0L105.0 217.0L105.0 129.0C105.0 127.89543 105.89543 127.0 107.0 127.0L165.0 127.0C166.10457 127.0 167.0 127.89543 167.0 129.0Z" fill-rule="nonzero"/><path fill="#34a853" clip-path="url(#id_0)" d="M167.0 217.0L105.0 217.0L105.0 129.0C105.0 127.89543 105.89543 127.0 107.0 127.0L165.0 127.0C166.10457 127.0 167.0 127.89543 167.0 129.0Z" fill-rule="nonzero"/><path stroke="#000000" stroke-width="2.0" stroke-linecap="butt" stroke-opacity="0.0" clip-path="url(#id_0)" d="M262.0 217.0L200.0 217.0L200.0 94.0C200.0 92.89543 200.89543 92.0 202.0 92.0L260.0 92.0C261.10458 92.0 262.0 92.89543 262.0 94.0Z" fill-rule="nonzero"/><path fill="#0000ff" clip-path="url(#id_0)" d="M262.0 217.0L200.0 217.0L200.0 94.0C200.0 92.89543 200.89543 92.0 202.0 92.0L260.0 92.0C261.10458 92.0 262.0 92.89543 262.0 94.0Z" fill-rule="nonzero"/><path stroke="#000000" stroke-width="2.0" stroke-linecap="butt" stroke-opacity="0.0" clip-path="url(#id_0)" d="M356.0 217.0L294.0 217.0L294.0 216.0C294.0 215.44771 294.44772 215.0 295.0 215.0L355.0 215.0C355.55228 215.0 356.0 215.44771 356.0 216.0Z" fill-rule="nonzero"/><path fill="#ff9900" clip-path="url(#id_0)" d="M356.0 217.0L294.0 217.0L294.0 216.0C294.0 215.44771 294.44772 215.0 295.0 215.0L355.0 215.0C355.55228 215.0 356.0 215.44771 356.0 216.0Z" fill-rule="nonzero"/><path stroke="#34a853" stroke-width="3.0" stroke-linejoin="round" stroke-linecap="round" d="M125.1875 144.0284L123.5 144.0284L123.5 137.49715L121.484375 138.12215L121.484375 136.74715L125.015625 135.48152L125.1875 135.48152L125.1875 144.0284ZM128.59375 146.16902L127.703125 145.70027L127.921875 145.32527Q128.3125 144.60652 128.32812 143.9034L128.32812 142.5909L129.75 142.5909L129.75 143.76277Q129.73438 144.4034 129.40625 145.05965Q129.09375 145.73152 128.59375 146.16902ZM136.82812 140.49715Q136.82812 142.26277 136.09375 143.2159Q135.35938 144.1534 133.95312 144.1534Q132.54688 144.1534 131.8125 143.23152Q131.07812 142.30965 131.0625 140.5909L131.0625 139.01277Q131.0625 137.23152 131.79688 136.30965Q132.54688 135.37215 133.9375 135.37215Q135.32812 135.37215 136.0625 136.29402Q136.8125 137.2159 136.82812 138.93465L136.82812 140.49715ZM135.125 138.7784Q135.125 137.7159 134.82812 137.23152Q134.54688 136.74715 133.9375 136.74715Q133.34375 136.74715 133.04688 137.2159Q132.76562 137.66902 132.75 138.6534L132.75 140.7159Q132.75 141.76277 133.03125 142.2784Q133.3125 142.7784 133.95312 142.7784Q134.5625 142.7784 134.84375 142.29402Q135.125 141.80965 135.125 140.80965L135.125 138.7784ZM143.64062 137.76277Q143.64062 138.38777 143.32812 138.87215Q143.01562 139.3409 142.46875 139.63777Q143.09375 139.93465 143.45312 140.4659Q143.82812 140.98152 143.82812 141.68465Q143.82812 142.82527 143.04688 143.49715Q142.28125 144.1534 140.9375 144.1534Q139.60938 144.1534 138.82812 143.49715Q138.0625 142.82527 138.0625 141.68465Q138.0625 140.98152 138.42188 140.45027Q138.78125 139.91902 139.40625 139.63777Q138.85938 139.3409 138.54688 138.87215Q138.23438 138.38777 138.23438 137.76277Q138.23438 136.66902 138.95312 136.0284Q139.6875 135.37215 140.9375 135.37215Q142.1875 135.37215 142.90625 136.0284Q143.64062 136.66902 143.64062 137.76277ZM142.125 141.55965Q142.125 141.01277 141.79688 140.68465Q141.48438 140.3409 140.9375 140.3409Q140.39062 140.3409 140.0625 140.66902Q139.75 140.99715 139.75 141.55965Q139.75 142.10652 140.0625 142.45027Q140.39062 142.7784 140.95312 142.7784Q141.5 142.7784 141.8125 142.4659Q142.125 142.13777 142.125 141.55965ZM141.95312 137.8409Q141.95312 137.3409 141.6875 137.04402Q141.42188 136.74715 140.9375 136.74715Q140.46875 136.74715 140.20312 137.04402Q139.9375 137.32527 139.9375 137.8409Q139.9375 138.35652 140.20312 138.66902Q140.46875 138.98152 140.9375 138.98152Q141.42188 138.98152 141.6875 138.66902Q141.95312 138.35652 141.95312 137.8409ZM150.09375 140.80965L151.0625 140.80965L151.0625 142.18465L150.09375 142.18465L150.09375 144.0284L148.39062 144.0284L148.39062 142.18465L144.90625 142.18465L144.82812 141.12215L148.375 135.49715L150.09375 135.49715L150.09375 140.80965ZM146.51562 140.80965L148.39062 140.80965L148.39062 137.80965L148.28125 137.99715L146.51562 140.80965Z" fill-rule="nonzero"/><path fill="#ffffff" d="M125.1875 144.0284L123.5 144.0284L123.5 137.49715L121.484375 138.12215L121.484375 136.74715L125.015625 135.48152L125.1875 135.48152L125.1875 144.0284ZM128.59375 146.16902L127.703125 145.70027L127.921875 145.32527Q128.3125 144.60652 128.32812 143.9034L128.32812 142.5909L129.75 142.5909L129.75 143.76277Q129.73438 144.4034 129.40625 145.05965Q129.09375 145.73152 128.59375 146.16902ZM136.82812 140.49715Q136.82812 142.26277 136.09375 143.2159Q135.35938 144.1534 133.95312 144.1534Q132.54688 144.1534 131.8125 143.23152Q131.07812 142.30965 131.0625 140.5909L131.0625 139.01277Q131.0625 137.23152 131.79688 136.30965Q132.54688 135.37215 133.9375 135.37215Q135.32812 135.37215 136.0625 136.29402Q136.8125 137.2159 136.82812 138.93465L136.82812 140.49715ZM135.125 138.7784Q135.125 137.7159 134.82812 137.23152Q134.54688 136.74715 133.9375 136.74715Q133.34375 136.74715 133.04688 137.2159Q132.76562 137.66902 132.75 138.6534L132.75 140.7159Q132.75 141.76277 133.03125 142.2784Q133.3125 142.7784 133.95312 142.7784Q134.5625 142.7784 134.84375 142.29402Q135.125 141.80965 135.125 140.80965L135.125 138.7784ZM143.64062 137.76277Q143.64062 138.38777 143.32812 138.87215Q143.01562 139.3409 142.46875 139.63777Q143.09375 139.93465 143.45312 140.4659Q143.82812 140.98152 143.82812 141.68465Q143.82812 142.82527 143.04688 143.49715Q142.28125 144.1534 140.9375 144.1534Q139.60938 144.1534 138.82812 143.49715Q138.0625 142.82527 138.0625 141.68465Q138.0625 140.98152 138.42188 140.45027Q138.78125 139.91902 139.40625 139.63777Q138.85938 139.3409 138.54688 138.87215Q138.23438 138.38777 138.23438 137.76277Q138.23438 136.66902 138.95312 136.0284Q139.6875 135.37215 140.9375 135.37215Q142.1875 135.37215 142.90625 136.0284Q143.64062 136.66902 143.64062 137.76277ZM142.125 141.55965Q142.125 141.01277 141.79688 140.68465Q141.48438 140.3409 140.9375 140.3409Q140.39062 140.3409 140.0625 140.66902Q139.75 140.99715 139.75 141.55965Q139.75 142.10652 140.0625 142.45027Q140.39062 142.7784 140.95312 142.7784Q141.5 142.7784 141.8125 142.4659Q142.125 142.13777 142.125 141.55965ZM141.95312 137.8409Q141.95312 137.3409 141.6875 137.04402Q141.42188 136.74715 140.9375 136.74715Q140.46875 136.74715 140.20312 137.04402Q139.9375 137.32527 139.9375 137.8409Q139.9375 138.35652 140.20312 138.66902Q140.46875 138.98152 140.9375 138.98152Q141.42188 138.98152 141.6875 138.66902Q141.95312 138.35652 141.95312 137.8409ZM150.09375 140.80965L151.0625 140.80965L151.0625 142.18465L150.09375 142.18465L150.09375 144.0284L148.39062 144.0284L148.39062 142.18465L144.90625 142.18465L144.82812 141.12215L148.375 135.49715L150.09375 135.49715L150.09375 140.80965ZM146.51562 140.80965L148.39062 140.80965L148.39062 137.80965L148.28125 137.99715L146.51562 140.80965Z" fill-rule="nonzero"/><path stroke="#0000ff" stroke-width="3.0" stroke-linejoin="round" stroke-linecap="round" d="M220.1875 109.1732L218.5 109.1732L218.5 102.64195L216.48438 103.26695L216.48438 101.89195L220.01562 100.62633L220.1875 100.62633L220.1875 109.1732ZM223.59375 111.31383L222.70312 110.84508L222.92188 110.47008Q223.3125 109.75133 223.32812 109.0482L223.32812 107.7357L224.75 107.7357L224.75 108.90758Q224.73438 109.5482 224.40625 110.20445Q224.09375 110.87633 223.59375 111.31383ZM226.32812 104.97008L226.82812 100.64195L231.60938 100.64195L231.60938 102.0482L228.21875 102.0482L228.0 103.89195Q228.60938 103.56383 229.28125 103.56383Q230.5 103.56383 231.1875 104.32945Q231.89062 105.07945 231.89062 106.43883Q231.89062 107.26695 231.53125 107.9232Q231.1875 108.56383 230.53125 108.93883Q229.89062 109.2982 229.0 109.2982Q228.23438 109.2982 227.5625 108.9857Q226.90625 108.65758 226.51562 108.09508Q226.14062 107.53258 226.10938 106.7982L227.79688 106.7982Q227.84375 107.32945 228.15625 107.62633Q228.48438 107.9232 229.0 107.9232Q229.57812 107.9232 229.875 107.51695Q230.1875 107.09508 230.1875 106.34508Q230.1875 105.6107 229.82812 105.2357Q229.48438 104.84508 228.82812 104.84508Q228.21875 104.84508 227.84375 105.15758L227.6875 105.31383L226.32812 104.97008ZM238.82812 105.64195Q238.82812 107.40758 238.09375 108.3607Q237.35938 109.2982 235.95312 109.2982Q234.54688 109.2982 233.8125 108.37633Q233.07812 107.45445 233.0625 105.7357L233.0625 104.15758Q233.0625 102.37633 233.79688 101.45445Q234.54688 100.51695 235.9375 100.51695Q237.32812 100.51695 238.0625 101.43883Q238.8125 102.3607 238.82812 104.07945L238.82812 105.64195ZM237.125 103.9232Q237.125 102.8607 236.82812 102.37633Q236.54688 101.89195 235.9375 101.89195Q235.34375 101.89195 235.04688 102.3607Q234.76562 102.81383 234.75 103.7982L234.75 105.8607Q234.75 106.90758 235.03125 107.4232Q235.3125 107.9232 235.95312 107.9232Q236.5625 107.9232 236.84375 107.43883Q237.125 106.95445 237.125 105.95445L237.125 103.9232ZM245.875 101.59508L242.57812 109.1732L240.79688 109.1732L244.09375 102.01695L239.85938 102.01695L239.85938 100.64195L245.875 100.64195L245.875 101.59508Z" fill-rule="nonzero"/><path fill="#ffffff" d="M220.1875 109.1732L218.5 109.1732L218.5 102.64195L216.48438 103.26695L216.48438 101.89195L220.01562 100.62633L220.1875 100.62633L220.1875 109.1732ZM223.59375 111.31383L222.70312 110.84508L222.92188 110.47008Q223.3125 109.75133 223.32812 109.0482L223.32812 107.7357L224.75 107.7357L224.75 108.90758Q224.73438 109.5482 224.40625 110.20445Q224.09375 110.87633 223.59375 111.31383ZM226.32812 104.97008L226.82812 100.64195L231.60938 100.64195L231.60938 102.0482L228.21875 102.0482L228.0 103.89195Q228.60938 103.56383 229.28125 103.56383Q230.5 103.56383 231.1875 104.32945Q231.89062 105.07945 231.89062 106.43883Q231.89062 107.26695 231.53125 107.9232Q231.1875 108.56383 230.53125 108.93883Q229.89062 109.2982 229.0 109.2982Q228.23438 109.2982 227.5625 108.9857Q226.90625 108.65758 226.51562 108.09508Q226.14062 107.53258 226.10938 106.7982L227.79688 106.7982Q227.84375 107.32945 228.15625 107.62633Q228.48438 107.9232 229.0 107.9232Q229.57812 107.9232 229.875 107.51695Q230.1875 107.09508 230.1875 106.34508Q230.1875 105.6107 229.82812 105.2357Q229.48438 104.84508 228.82812 104.84508Q228.21875 104.84508 227.84375 105.15758L227.6875 105.31383L226.32812 104.97008ZM238.82812 105.64195Q238.82812 107.40758 238.09375 108.3607Q237.35938 109.2982 235.95312 109.2982Q234.54688 109.2982 233.8125 108.37633Q233.07812 107.45445 233.0625 105.7357L233.0625 104.15758Q233.0625 102.37633 233.79688 101.45445Q234.54688 100.51695 235.9375 100.51695Q237.32812 100.51695 238.0625 101.43883Q238.8125 102.3607 238.82812 104.07945L238.82812 105.64195ZM237.125 103.9232Q237.125 102.8607 236.82812 102.37633Q236.54688 101.89195 235.9375 101.89195Q235.34375 101.89195 235.04688 102.3607Q234.76562 102.81383 234.75 103.7982L234.75 105.8607Q234.75 106.90758 235.03125 107.4232Q235.3125 107.9232 235.95312 107.9232Q236.5625 107.9232 236.84375 107.43883Q237.125 106.95445 237.125 105.95445L237.125 103.9232ZM245.875 101.59508L242.57812 109.1732L240.79688 109.1732L244.09375 102.01695L239.85938 102.01695L239.85938 100.64195L245.875 100.64195L245.875 101.59508Z" fill-rule="nonzero"/><path stroke="#ffffff" stroke-width="3.0" stroke-linejoin="round" stroke-linecap="round" d="M315.82812 196.53555Q315.82812 198.30118 315.09375 199.2543Q314.35938 200.1918 312.95312 200.1918Q311.54688 200.1918 310.8125 199.26993Q310.07812 198.34805 310.0625 196.6293L310.0625 195.05118Q310.0625 193.26993 310.79688 192.34805Q311.54688 191.41055 312.9375 191.41055Q314.32812 191.41055 315.0625 192.33243Q315.8125 193.2543 315.82812 194.97305L315.82812 196.53555ZM314.125 194.8168Q314.125 193.7543 313.82812 193.26993Q313.54688 192.78555 312.9375 192.78555Q312.34375 192.78555 312.04688 193.2543Q311.76562 193.70743 311.75 194.6918L311.75 196.7543Q311.75 197.80118 312.03125 198.3168Q312.3125 198.8168 312.95312 198.8168Q313.5625 198.8168 313.84375 198.33243Q314.125 197.84805 314.125 196.84805L314.125 194.8168ZM317.59375 202.20743L316.70312 201.73868L316.92188 201.36368Q317.3125 200.64493 317.32812 199.9418L317.32812 198.6293L318.75 198.6293L318.75 199.80118Q318.73438 200.4418 318.40625 201.09805Q318.09375 201.76993 317.59375 202.20743ZM325.82812 196.53555Q325.82812 198.30118 325.09375 199.2543Q324.35938 200.1918 322.95312 200.1918Q321.54688 200.1918 320.8125 199.26993Q320.07812 198.34805 320.0625 196.6293L320.0625 195.05118Q320.0625 193.26993 320.79688 192.34805Q321.54688 191.41055 322.9375 191.41055Q324.32812 191.41055 325.0625 192.33243Q325.8125 193.2543 325.82812 194.97305L325.82812 196.53555ZM324.125 194.8168Q324.125 193.7543 323.82812 193.26993Q323.54688 192.78555 322.9375 192.78555Q322.34375 192.78555 322.04688 193.2543Q321.76562 193.70743 321.75 194.6918L321.75 196.7543Q321.75 197.80118 322.03125 198.3168Q322.3125 198.8168 322.95312 198.8168Q323.5625 198.8168 323.84375 198.33243Q324.125 197.84805 324.125 196.84805L324.125 194.8168ZM331.1875 200.0668L329.5 200.0668L329.5 193.53555L327.48438 194.16055L327.48438 192.78555L331.01562 191.51993L331.1875 191.51993L331.1875 200.0668ZM339.64062 193.80118Q339.64062 194.42618 339.32812 194.91055Q339.01562 195.3793 338.46875 195.67618Q339.09375 195.97305 339.45312 196.5043Q339.82812 197.01993 339.82812 197.72305Q339.82812 198.86368 339.04688 199.53555Q338.28125 200.1918 336.9375 200.1918Q335.60938 200.1918 334.82812 199.53555Q334.0625 198.86368 334.0625 197.72305Q334.0625 197.01993 334.42188 196.48868Q334.78125 195.95743 335.40625 195.67618Q334.85938 195.3793 334.54688 194.91055Q334.23438 194.42618 334.23438 193.80118Q334.23438 192.70743 334.95312 192.0668Q335.6875 191.41055 336.9375 191.41055Q338.1875 191.41055 338.90625 192.0668Q339.64062 192.70743 339.64062 193.80118ZM338.125 197.59805Q338.125 197.05118 337.79688 196.72305Q337.48438 196.3793 336.9375 196.3793Q336.39062 196.3793 336.0625 196.70743Q335.75 197.03555 335.75 197.59805Q335.75 198.14493 336.0625 198.48868Q336.39062 198.8168 336.95312 198.8168Q337.5 198.8168 337.8125 198.5043Q338.125 198.17618 338.125 197.59805ZM337.95312 193.8793Q337.95312 193.3793 337.6875 193.08243Q337.42188 192.78555 336.9375 192.78555Q336.46875 192.78555 336.20312 193.08243Q335.9375 193.36368 335.9375 193.8793Q335.9375 194.39493 336.20312 194.70743Q336.46875 195.01993 336.9375 195.01993Q337.42188 195.01993 337.6875 194.70743Q337.95312 194.39493 337.95312 193.8793Z" fill-rule="nonzero"/><path fill="#ff9900" d="M315.82812 196.53555Q315.82812 198.30118 315.09375 199.2543Q314.35938 200.1918 312.95312 200.1918Q311.54688 200.1918 310.8125 199.26993Q310.07812 198.34805 310.0625 196.6293L310.0625 195.05118Q310.0625 193.26993 310.79688 192.34805Q311.54688 191.41055 312.9375 191.41055Q314.32812 191.41055 315.0625 192.33243Q315.8125 193.2543 315.82812 194.97305L315.82812 196.53555ZM314.125 194.8168Q314.125 193.7543 313.82812 193.26993Q313.54688 192.78555 312.9375 192.78555Q312.34375 192.78555 312.04688 193.2543Q311.76562 193.70743 311.75 194.6918L311.75 196.7543Q311.75 197.80118 312.03125 198.3168Q312.3125 198.8168 312.95312 198.8168Q313.5625 198.8168 313.84375 198.33243Q314.125 197.84805 314.125 196.84805L314.125 194.8168ZM317.59375 202.20743L316.70312 201.73868L316.92188 201.36368Q317.3125 200.64493 317.32812 199.9418L317.32812 198.6293L318.75 198.6293L318.75 199.80118Q318.73438 200.4418 318.40625 201.09805Q318.09375 201.76993 317.59375 202.20743ZM325.82812 196.53555Q325.82812 198.30118 325.09375 199.2543Q324.35938 200.1918 322.95312 200.1918Q321.54688 200.1918 320.8125 199.26993Q320.07812 198.34805 320.0625 196.6293L320.0625 195.05118Q320.0625 193.26993 320.79688 192.34805Q321.54688 191.41055 322.9375 191.41055Q324.32812 191.41055 325.0625 192.33243Q325.8125 193.2543 325.82812 194.97305L325.82812 196.53555ZM324.125 194.8168Q324.125 193.7543 323.82812 193.26993Q323.54688 192.78555 322.9375 192.78555Q322.34375 192.78555 322.04688 193.2543Q321.76562 193.70743 321.75 194.6918L321.75 196.7543Q321.75 197.80118 322.03125 198.3168Q322.3125 198.8168 322.95312 198.8168Q323.5625 198.8168 323.84375 198.33243Q324.125 197.84805 324.125 196.84805L324.125 194.8168ZM331.1875 200.0668L329.5 200.0668L329.5 193.53555L327.48438 194.16055L327.48438 192.78555L331.01562 191.51993L331.1875 191.51993L331.1875 200.0668ZM339.64062 193.80118Q339.64062 194.42618 339.32812 194.91055Q339.01562 195.3793 338.46875 195.67618Q339.09375 195.97305 339.45312 196.5043Q339.82812 197.01993 339.82812 197.72305Q339.82812 198.86368 339.04688 199.53555Q338.28125 200.1918 336.9375 200.1918Q335.60938 200.1918 334.82812 199.53555Q334.0625 198.86368 334.0625 197.72305Q334.0625 197.01993 334.42188 196.48868Q334.78125 195.95743 335.40625 195.67618Q334.85938 195.3793 334.54688 194.91055Q334.23438 194.42618 334.23438 193.80118Q334.23438 192.70743 334.95312 192.0668Q335.6875 191.41055 336.9375 191.41055Q338.1875 191.41055 338.90625 192.0668Q339.64062 192.70743 339.64062 193.80118ZM338.125 197.59805Q338.125 197.05118 337.79688 196.72305Q337.48438 196.3793 336.9375 196.3793Q336.39062 196.3793 336.0625 196.70743Q335.75 197.03555 335.75 197.59805Q335.75 198.14493 336.0625 198.48868Q336.39062 198.8168 336.95312 198.8168Q337.5 198.8168 337.8125 198.5043Q338.125 198.17618 338.125 197.59805ZM337.95312 193.8793Q337.95312 193.3793 337.6875 193.08243Q337.42188 192.78555 336.9375 192.78555Q336.46875 192.78555 336.20312 193.08243Q335.9375 193.36368 335.9375 193.8793Q335.9375 194.39493 336.20312 194.70743Q336.46875 195.01993 336.9375 195.01993Q337.42188 195.01993 337.6875 194.70743Q337.95312 194.39493 337.95312 193.8793Z" fill-rule="nonzero"/><path fill="#000000" d="M20.684378 164.60312L20.590628 163.54062Q21.246878 163.4625 21.653128 163.18124Q22.059378 162.9 22.325003 162.32187Q22.575003 161.72812 22.575003 160.99374Q22.575003 160.35312 22.387503 159.85312Q22.184378 159.35312 21.856253 159.11874Q21.512503 158.86874 21.121878 158.86874Q20.715628 158.86874 20.418753 159.10312Q20.106253 159.3375 19.903128 159.86874Q19.762503 160.22812 19.481253 161.41562Q19.200003 162.5875 18.950003 163.05624Q18.621878 163.68124 18.153128 163.97812Q17.668753 164.275 17.075003 164.275Q16.434378 164.275 15.871878 163.91562Q15.293753 163.54062 15.012503 162.8375Q14.715628 162.11874 14.715628 161.25937Q14.715628 160.30624 15.028128 159.57187Q15.325003 158.8375 15.934378 158.44687Q16.528128 158.05624 17.278128 158.025L17.356253 159.11874Q16.543753 159.2125 16.137503 159.72812Q15.715628 160.22812 15.715628 161.2125Q15.715628 162.24374 16.090628 162.7125Q16.465628 163.18124 16.996878 163.18124Q17.465628 163.18124 17.762503 162.85312Q18.059378 162.525 18.371878 161.15Q18.684378 159.75937 18.918753 159.24374Q19.278128 158.49374 19.809378 158.13437Q20.325003 157.775 21.028128 157.775Q21.715628 157.775 22.325003 158.16562Q22.918753 158.55624 23.262503 159.29062Q23.590628 160.025 23.590628 160.94687Q23.590628 162.11874 23.262503 162.91562Q22.918753 163.69687 22.231253 164.15Q21.543753 164.5875 20.684378 164.60312ZM21.450003 152.10312L21.575003 151.00937Q22.528128 151.25937 23.059378 151.9625Q23.590628 152.66562 23.590628 153.74374Q23.590628 155.10312 22.746878 155.91562Q21.903128 156.7125 20.387503 156.7125Q18.825003 156.7125 17.965628 155.9Q17.090628 155.0875 17.090628 153.80624Q17.090628 152.55624 17.934378 151.775Q18.778128 150.97812 20.325003 150.97812Q20.418753 150.97812 20.606253 150.97812L20.606253 155.61874Q21.637503 155.55624 22.184378 155.04062Q22.715628 154.525 22.715628 153.74374Q22.715628 153.16562 22.418753 152.75937Q22.106253 152.3375 21.450003 152.10312ZM19.746878 155.55624L19.746878 152.0875Q18.950003 152.15 18.559378 152.47812Q17.950003 152.99374 17.950003 153.79062Q17.950003 154.525 18.434378 155.025Q18.918753 155.50937 19.746878 155.55624ZM21.168753 145.29062L21.309378 144.25937Q22.371878 144.43124 22.981253 145.13437Q23.590628 145.8375 23.590628 146.85312Q23.590628 148.13437 22.762503 148.91562Q21.918753 149.68124 20.356253 149.68124Q19.356253 149.68124 18.606253 149.35312Q17.840628 149.00937 17.465628 148.3375Q17.090628 147.65 17.090628 146.8375Q17.090628 145.8375 17.606253 145.19687Q18.106253 144.54062 19.059378 144.35312L19.215628 145.38437Q18.590628 145.525 18.278128 145.9Q17.950003 146.275 17.950003 146.80624Q17.950003 147.60312 18.528128 148.10312Q19.090628 148.60312 20.325003 148.60312Q21.590628 148.60312 22.153128 148.11874Q22.715628 147.63437 22.715628 146.86874Q22.715628 146.24374 22.340628 145.8375Q21.965628 145.41562 21.168753 145.29062ZM20.340628 143.74374Q18.606253 143.74374 17.778128 142.79062Q17.090628 141.99374 17.090628 140.8375Q17.090628 139.55624 17.934378 138.74374Q18.762503 137.91562 20.246878 137.91562Q21.450003 137.91562 22.137503 138.275Q22.825003 138.63437 23.215628 139.3375Q23.590628 140.025 23.590628 140.8375Q23.590628 142.13437 22.762503 142.94687Q21.918753 143.74374 20.340628 143.74374ZM20.340628 142.66562Q21.528128 142.66562 22.121878 142.15Q22.715628 141.61874 22.715628 140.8375Q22.715628 140.04062 22.121878 139.525Q21.528128 139.00937 20.309378 139.00937Q19.153128 139.00937 18.559378 139.54062Q17.965628 140.05624 17.965628 140.8375Q17.965628 141.61874 18.559378 142.15Q19.137503 142.66562 20.340628 142.66562ZM23.450003 136.35312L17.231253 136.35312L17.231253 135.41562L18.106253 135.41562Q17.090628 134.72812 17.090628 133.43124Q17.090628 132.86874 17.293753 132.4Q17.496878 131.91562 17.825003 131.68124Q18.153128 131.44687 18.590628 131.35312Q18.887503 131.30624 19.621878 131.30624L23.450003 131.30624L23.450003 132.35312L19.668753 132.35312Q19.012503 132.35312 18.700003 132.47812Q18.387503 132.60312 18.200003 132.91562Q17.996878 133.22812 17.996878 133.65Q17.996878 134.32187 18.434378 134.82187Q18.856253 135.30624 20.043753 135.30624L23.450003 135.30624L23.450003 136.35312ZM23.450003 125.32188L22.668753 125.32188Q23.590628 125.91563 23.590628 127.05625Q23.590628 127.80625 23.184378 128.43124Q22.762503 129.05624 22.028128 129.4Q21.293753 129.74374 20.340628 129.74374Q19.418753 129.74374 18.653128 129.43124Q17.887503 129.11874 17.496878 128.49374Q17.090628 127.86875 17.090628 127.10313Q17.090628 126.54063 17.325003 126.10313Q17.559378 125.66563 17.934378 125.38438L14.856253 125.38438L14.856253 124.3375L23.450003 124.3375L23.450003 125.32188ZM20.340628 128.65Q21.543753 128.65 22.137503 128.15Q22.715628 127.65 22.715628 126.9625Q22.715628 126.275 22.153128 125.79063Q21.590628 125.30625 20.434378 125.30625Q19.153128 125.30625 18.559378 125.80625Q17.965628 126.29063 17.965628 127.00938Q17.965628 127.7125 18.543753 128.18124Q19.106253 128.65 20.340628 128.65ZM21.590628 122.775L21.434378 121.74375Q22.059378 121.65 22.387503 121.25938Q22.715628 120.85312 22.715628 120.118744Q22.715628 119.399994 22.434378 119.056244Q22.137503 118.69687 21.731253 118.69687Q21.371878 118.69687 21.168753 119.00937Q21.028128 119.22812 20.809378 120.087494Q20.512503 121.24375 20.309378 121.69688Q20.090628 122.13438 19.715628 122.36875Q19.340628 122.60313 18.871878 122.60313Q18.465628 122.60313 18.106253 122.41563Q17.746878 122.22813 17.512503 121.9Q17.340628 121.65 17.215628 121.22813Q17.090628 120.806244 17.090628 120.306244Q17.090628 119.587494 17.309378 119.04062Q17.512503 118.47812 17.871878 118.212494Q18.231253 117.94687 18.825003 117.85312L18.965628 118.88437Q18.496878 118.94687 18.231253 119.29062Q17.950003 119.618744 17.950003 120.243744Q17.950003 120.962494 18.200003 121.275Q18.434378 121.5875 18.762503 121.5875Q18.965628 121.5875 19.121878 121.4625Q19.293753 121.32188 19.403128 121.05625Q19.465628 120.899994 19.668753 120.118744Q19.981253 118.993744 20.168753 118.556244Q20.356253 118.118744 20.715628 117.868744Q21.075003 117.618744 21.621878 117.618744Q22.153128 117.618744 22.621878 117.931244Q23.075003 118.22812 23.340628 118.806244Q23.590628 119.38437 23.590628 120.118744Q23.590628 121.3375 23.090628 121.97813Q22.575003 122.60313 21.590628 122.775Z" fill-rule="nonzero"/><path fill="#000000" d="M48.95 216.31563Q48.95 214.78438 49.2625 213.8625Q49.575 212.925 50.184376 212.425Q50.809376 211.925 51.746876 211.925Q52.434376 211.925 52.95 212.20625Q53.48125 212.4875 53.825 213.01875Q54.16875 213.53438 54.35625 214.28438Q54.54375 215.03438 54.54375 216.31563Q54.54375 217.83125 54.23125 218.75313Q53.934376 219.675 53.309376 220.19063Q52.7 220.69063 51.746876 220.69063Q50.5125 220.69063 49.79375 219.8Q48.95 218.7375 48.95 216.31563ZM50.028126 216.31563Q50.028126 218.425 50.528126 219.12813Q51.028126 219.83125 51.746876 219.83125Q52.48125 219.83125 52.965626 219.12813Q53.465626 218.425 53.465626 216.31563Q53.465626 214.19063 52.965626 213.50313Q52.48125 212.8 51.73125 212.8Q51.0125 212.8 50.575 213.40938Q50.028126 214.19063 50.028126 216.31563ZM56.5125 220.55L56.5125 219.34688L57.715626 219.34688L57.715626 220.55Q57.715626 221.20625 57.48125 221.6125Q57.246876 222.03438 56.746876 222.25313L56.45 221.8Q56.778126 221.65938 56.934376 221.3625Q57.090626 221.08125 57.121876 220.55L56.5125 220.55ZM58.95 216.31563Q58.95 214.78438 59.2625 213.8625Q59.575 212.925 60.184376 212.425Q60.809376 211.925 61.746876 211.925Q62.434376 211.925 62.95 212.20625Q63.48125 212.4875 63.825 213.01875Q64.16875 213.53438 64.35625 214.28438Q64.54375 215.03438 64.54375 216.31563Q64.54375 217.83125 64.23125 218.75313Q63.934376 219.675 63.309376 220.19063Q62.7 220.69063 61.746876 220.69063Q60.5125 220.69063 59.79375 219.8Q58.95 218.7375 58.95 216.31563ZM60.028126 216.31563Q60.028126 218.425 60.528126 219.12813Q61.028126 219.83125 61.746876 219.83125Q62.48125 219.83125 62.965626 219.12813Q63.465626 218.425 63.465626 216.31563Q63.465626 214.19063 62.965626 213.50313Q62.48125 212.8 61.73125 212.8Q61.0125 212.8 60.575 213.40938Q60.028126 214.19063 60.028126 216.31563Z" fill-rule="nonzero"/><path fill="#000000" d="M48.95 175.11563Q48.95 173.58438 49.2625 172.6625Q49.575 171.725 50.184376 171.225Q50.809376 170.725 51.746876 170.725Q52.434376 170.725 52.95 171.00626Q53.48125 171.2875 53.825 171.81876Q54.16875 172.33438 54.35625 173.08438Q54.54375 173.83438 54.54375 175.11563Q54.54375 176.63126 54.23125 177.55313Q53.934376 178.475 53.309376 178.99063Q52.7 179.49063 51.746876 179.49063Q50.5125 179.49063 49.79375 178.6Q48.95 177.5375 48.95 175.11563ZM50.028126 175.11563Q50.028126 177.225 50.528126 177.92813Q51.028126 178.63126 51.746876 178.63126Q52.48125 178.63126 52.965626 177.92813Q53.465626 177.225 53.465626 175.11563Q53.465626 172.99063 52.965626 172.30313Q52.48125 171.6 51.73125 171.6Q51.0125 171.6 50.575 172.20938Q50.028126 172.99063 50.028126 175.11563ZM56.5125 179.35L56.5125 178.14688L57.715626 178.14688L57.715626 179.35Q57.715626 180.00626 57.48125 180.4125Q57.246876 180.83438 56.746876 181.05313L56.45 180.6Q56.778126 180.45938 56.934376 180.1625Q57.090626 179.88126 57.121876 179.35L56.5125 179.35ZM58.95 177.1L60.059376 177.00626Q60.184376 177.81876 60.621876 178.225Q61.075 178.63126 61.715626 178.63126Q62.465626 178.63126 62.996876 178.05313Q63.528126 177.475 63.528126 176.5375Q63.528126 175.63126 63.0125 175.11563Q62.5125 174.58438 61.684376 174.58438Q61.184376 174.58438 60.7625 174.81876Q60.35625 175.05313 60.121876 175.4125L59.1375 175.2875L59.965626 170.88126L64.24687 170.88126L64.24687 171.88126L60.809376 171.88126L60.35625 174.19376Q61.121876 173.64688 61.965626 173.64688Q63.090626 173.64688 63.85625 174.42813Q64.6375 175.20938 64.6375 176.44376Q64.6375 177.6 63.965626 178.45938Q63.1375 179.49063 61.715626 179.49063Q60.54375 179.49063 59.79375 178.83438Q59.059376 178.17813 58.95 177.1Z" fill-rule="nonzero"/><path fill="#000000" d="M52.91875 138.15L51.871876 138.15L51.871876 131.43124Q51.48125 131.79062 50.85625 132.16562Q50.246876 132.525 49.7625 132.69687L49.7625 131.68124Q50.6375 131.25937 51.29375 130.68124Q51.965626 130.0875 52.246876 129.525L52.91875 129.525L52.91875 138.15ZM56.5125 138.15L56.5125 136.94687L57.715626 136.94687L57.715626 138.15Q57.715626 138.80624 57.48125 139.2125Q57.246876 139.63437 56.746876 139.85312L56.45 139.4Q56.778126 139.25937 56.934376 138.9625Q57.090626 138.68124 57.121876 138.15L56.5125 138.15ZM58.95 133.91562Q58.95 132.38437 59.2625 131.4625Q59.575 130.525 60.184376 130.025Q60.809376 129.525 61.746876 129.525Q62.434376 129.525 62.95 129.80624Q63.48125 130.0875 63.825 130.61874Q64.16875 131.13437 64.35625 131.88437Q64.54375 132.63437 64.54375 133.91562Q64.54375 135.43124 64.23125 136.35312Q63.934376 137.275 63.309376 137.79062Q62.7 138.29062 61.746876 138.29062Q60.5125 138.29062 59.79375 137.4Q58.95 136.3375 58.95 133.91562ZM60.028126 133.91562Q60.028126 136.025 60.528126 136.72812Q61.028126 137.43124 61.746876 137.43124Q62.48125 137.43124 62.965626 136.72812Q63.465626 136.025 63.465626 133.91562Q63.465626 131.79062 62.965626 131.10312Q62.48125 130.4 61.73125 130.4Q61.0125 130.4 60.575 131.00937Q60.028126 131.79062 60.028126 133.91562Z" fill-rule="nonzero"/><path fill="#000000" d="M52.91875 96.95L51.871876 96.95L51.871876 90.23125Q51.48125 90.59062 50.85625 90.96562Q50.246876 91.325 49.7625 91.49687L49.7625 90.48125Q50.6375 90.05937 51.29375 89.48125Q51.965626 88.8875 52.246876 88.325L52.91875 88.325L52.91875 96.95ZM56.5125 96.95L56.5125 95.74687L57.715626 95.74687L57.715626 96.95Q57.715626 97.60625 57.48125 98.0125Q57.246876 98.43437 56.746876 98.65312L56.45 98.2Q56.778126 98.05937 56.934376 97.7625Q57.090626 97.48125 57.121876 96.95L56.5125 96.95ZM58.95 94.7L60.059376 94.60625Q60.184376 95.41875 60.621876 95.825Q61.075 96.23125 61.715626 96.23125Q62.465626 96.23125 62.996876 95.65312Q63.528126 95.075 63.528126 94.1375Q63.528126 93.23125 63.0125 92.71562Q62.5125 92.18437 61.684376 92.18437Q61.184376 92.18437 60.7625 92.41875Q60.35625 92.65312 60.121876 93.0125L59.1375 92.8875L59.965626 88.48125L64.24687 88.48125L64.24687 89.48125L60.809376 89.48125L60.35625 91.79375Q61.121876 91.24687 61.965626 91.24687Q63.090626 91.24687 63.85625 92.02812Q64.6375 92.80937 64.6375 94.04375Q64.6375 95.2 63.965626 96.05937Q63.1375 97.09062 61.715626 97.09062Q60.54375 97.09062 59.79375 96.43437Q59.059376 95.77812 58.95 94.7Z" fill-rule="nonzero"/><path fill="#000000" d="M54.496876 54.734375L54.496876 55.75L48.809376 55.75Q48.809376 55.375 48.934376 55.015625Q49.153126 54.4375 49.621876 53.875Q50.10625 53.3125 51.0125 52.578125Q52.41875 51.421875 52.903126 50.75Q53.403126 50.078125 53.403126 49.484375Q53.403126 48.859375 52.95 48.4375Q52.496876 48.0 51.778126 48.0Q51.0125 48.0 50.559376 48.453125Q50.10625 48.90625 50.090626 49.71875L49.0125 49.609375Q49.121876 48.390625 49.840626 47.765625Q50.575 47.125 51.809376 47.125Q53.04375 47.125 53.7625 47.8125Q54.48125 48.5 54.48125 49.515625Q54.48125 50.03125 54.2625 50.53125Q54.059376 51.015625 53.559376 51.578125Q53.075 52.125 51.95 53.078125Q50.996876 53.875 50.715626 54.171875Q50.45 54.453125 50.278126 54.734375L54.496876 54.734375ZM56.5125 55.75L56.5125 54.546875L57.715626 54.546875L57.715626 55.75Q57.715626 56.40625 57.48125 56.8125Q57.246876 57.234375 56.746876 57.453125L56.45 57.0Q56.778126 56.859375 56.934376 56.5625Q57.090626 56.28125 57.121876 55.75L56.5125 55.75ZM58.95 51.515625Q58.95 49.984375 59.2625 49.0625Q59.575 48.125 60.184376 47.625Q60.809376 47.125 61.746876 47.125Q62.434376 47.125 62.95 47.40625Q63.48125 47.6875 63.825 48.21875Q64.16875 48.734375 64.35625 49.484375Q64.54375 50.234375 64.54375 51.515625Q64.54375 53.03125 64.23125 53.953125Q63.934376 54.875 63.309376 55.390625Q62.7 55.890625 61.746876 55.890625Q60.5125 55.890625 59.79375 55.0Q58.95 53.9375 58.95 51.515625ZM60.028126 51.515625Q60.028126 53.625 60.528126 54.328125Q61.028126 55.03125 61.746876 55.03125Q62.48125 55.03125 62.965626 54.328125Q63.465626 53.625 63.465626 51.515625Q63.465626 49.390625 62.965626 48.703125Q62.48125 48.0 61.73125 48.0Q61.0125 48.0 60.575 48.609375Q60.028126 49.390625 60.028126 51.515625Z" fill-rule="nonzero"/><path fill="#000000" d="M104.09165 230.78438L105.15415 230.69063Q105.23228 231.34688 105.51353 231.75313Q105.79478 232.15938 106.3729 232.425Q106.96665 232.675 107.70103 232.675Q108.34165 232.675 108.84165 232.4875Q109.34165 232.28438 109.57603 231.95625Q109.82603 231.6125 109.82603 231.22188Q109.82603 230.81563 109.59165 230.51875Q109.35728 230.20625 108.82603 230.00313Q108.46665 229.8625 107.27915 229.58125Q106.10728 229.3 105.63853 229.05Q105.01353 228.72188 104.71665 228.25313Q104.41978 227.76875 104.41978 227.175Q104.41978 226.53438 104.77915 225.97188Q105.15415 225.39375 105.85728 225.1125Q106.57603 224.81563 107.4354 224.81563Q108.38853 224.81563 109.1229 225.12813Q109.85728 225.425 110.2479 226.03438Q110.63853 226.62813 110.66978 227.37813L109.57603 227.45625Q109.48228 226.64375 108.96665 226.2375Q108.46665 225.81563 107.48228 225.81563Q106.45103 225.81563 105.98228 226.19063Q105.51353 226.56563 105.51353 227.09688Q105.51353 227.56563 105.84165 227.8625Q106.16978 228.15938 107.54478 228.47188Q108.9354 228.78438 109.45103 229.01875Q110.20103 229.37813 110.5604 229.90938Q110.91978 230.425 110.91978 231.12813Q110.91978 231.81563 110.52915 232.425Q110.13853 233.01875 109.40415 233.3625Q108.66978 233.69063 107.7479 233.69063Q106.57603 233.69063 105.77915 233.3625Q104.9979 233.01875 104.54478 232.33125Q104.10728 231.64375 104.09165 230.78438ZM112.34165 235.94063L112.34165 227.33125L113.29478 227.33125L113.29478 228.12813Q113.63853 227.65938 114.0604 227.425Q114.4979 227.19063 115.10728 227.19063Q115.90415 227.19063 116.51353 227.59688Q117.1229 228.00313 117.41978 228.75313Q117.73228 229.50313 117.73228 230.39375Q117.73228 231.34688 117.38853 232.1125Q117.0604 232.87813 116.40415 233.28438Q115.7479 233.69063 115.02915 233.69063Q114.4979 233.69063 114.07603 233.47188Q113.65415 233.2375 113.38853 232.90938L113.38853 235.94063L112.34165 235.94063ZM113.29478 230.47188Q113.29478 231.675 113.77915 232.25313Q114.26353 232.81563 114.95103 232.81563Q115.65415 232.81563 116.15415 232.22188Q116.65415 231.62813 116.65415 230.37813Q116.65415 229.19063 116.16978 228.6125Q115.6854 228.01875 114.9979 228.01875Q114.32603 228.01875 113.8104 228.64375Q113.29478 229.26875 113.29478 230.47188ZM119.32603 233.55L119.32603 227.33125L120.27915 227.33125L120.27915 228.26875Q120.63853 227.6125 120.9354 227.40938Q121.2479 227.19063 121.6229 227.19063Q122.15415 227.19063 122.70103 227.51875L122.34165 228.50313Q121.95103 228.26875 121.57603 228.26875Q121.21665 228.26875 120.9354 228.4875Q120.66978 228.69063 120.5604 229.06563Q120.3729 229.62813 120.3729 230.28438L120.3729 233.55L119.32603 233.55ZM123.34165 226.175L123.34165 224.95625L124.40415 224.95625L124.40415 226.175L123.34165 226.175ZM123.34165 233.55L123.34165 227.33125L124.40415 227.33125L124.40415 233.55L123.34165 233.55ZM126.34165 233.55L126.34165 227.33125L127.27915 227.33125L127.27915 228.20625Q127.96665 227.19063 129.26352 227.19063Q129.82602 227.19063 130.29477 227.39375Q130.77914 227.59688 131.01352 227.925Q131.2479 228.25313 131.34164 228.69063Q131.38852 228.9875 131.38852 229.72188L131.38852 233.55L130.34164 233.55L130.34164 229.76875Q130.34164 229.1125 130.21664 228.8Q130.09164 228.4875 129.77914 228.3Q129.46664 228.09688 129.04477 228.09688Q128.3729 228.09688 127.8729 228.53438Q127.38853 228.95625 127.38853 230.14375L127.38853 233.55L126.34165 233.55ZM133.13852 234.06563L134.16977 234.22188Q134.23227 234.69063 134.52914 234.90938Q134.91977 235.20625 135.59164 235.20625Q136.32602 235.20625 136.71664 234.90938Q137.1229 234.6125 137.26352 234.09688Q137.35727 233.76875 137.34164 232.7375Q136.65414 233.55 135.6229 233.55Q134.34164 233.55 133.63852 232.62813Q132.9354 231.69063 132.9354 230.40938Q132.9354 229.51875 133.2479 228.76875Q133.57602 228.00313 134.1854 227.59688Q134.79477 227.19063 135.6229 227.19063Q136.73227 227.19063 137.45102 228.08125L137.45102 227.33125L138.41977 227.33125L138.41977 232.70625Q138.41977 234.15938 138.1229 234.76875Q137.82602 235.37813 137.1854 235.72188Q136.54477 236.08125 135.60727 236.08125Q134.4979 236.08125 133.8104 235.58125Q133.1229 235.08125 133.13852 234.06563ZM134.01352 230.33125Q134.01352 231.55 134.4979 232.1125Q134.98227 232.675 135.71664 232.675Q136.45102 232.675 136.9354 232.1125Q137.4354 231.55 137.4354 230.3625Q137.4354 229.22188 136.91977 228.64375Q136.41977 228.06563 135.70102 228.06563Q134.9979 228.06563 134.4979 228.64375Q134.01352 229.20625 134.01352 230.33125ZM143.41977 233.55L143.41977 224.95625L146.65414 224.95625Q147.63852 224.95625 148.23227 225.22188Q148.82602 225.4875 149.15414 226.03438Q149.4979 226.56563 149.4979 227.15938Q149.4979 227.70625 149.20102 228.19063Q148.90414 228.675 148.29477 228.97188Q149.07602 229.20625 149.48227 229.76875Q149.90414 230.31563 149.90414 231.06563Q149.90414 231.65938 149.65414 232.19063Q149.40414 232.70625 149.02914 232.9875Q148.65414 233.26875 148.07602 233.40938Q147.51352 233.55 146.70102 233.55L143.41977 233.55ZM144.5604 228.56563L146.41977 228.56563Q147.16977 228.56563 147.4979 228.47188Q147.9354 228.34688 148.15414 228.05Q148.3729 227.7375 148.3729 227.28438Q148.3729 226.8625 148.16977 226.53438Q147.96664 226.20625 147.57602 226.09688Q147.20102 225.97188 146.27914 225.97188L144.5604 225.97188L144.5604 228.56563ZM144.5604 232.53438L146.70102 232.53438Q147.2479 232.53438 147.46664 232.4875Q147.8729 232.425 148.1229 232.26875Q148.38852 232.09688 148.5604 231.78438Q148.73227 231.47188 148.73227 231.06563Q148.73227 230.58125 148.48227 230.22188Q148.2479 229.8625 147.8104 229.72188Q147.3729 229.58125 146.54477 229.58125L144.5604 229.58125L144.5604 232.53438ZM150.95102 230.44063Q150.95102 228.70625 151.90414 227.87813Q152.70102 227.19063 153.85727 227.19063Q155.13852 227.19063 155.95102 228.03438Q156.77914 228.8625 156.77914 230.34688Q156.77914 231.55 156.41977 232.2375Q156.0604 232.925 155.35727 233.31563Q154.66977 233.69063 153.85727 233.69063Q152.5604 233.69063 151.7479 232.8625Q150.95102 232.01875 150.95102 230.44063ZM152.02914 230.44063Q152.02914 231.62813 152.54477 232.22188Q153.07602 232.81563 153.85727 232.81563Q154.65414 232.81563 155.16977 232.22188Q155.6854 231.62813 155.6854 230.40938Q155.6854 229.25313 155.15414 228.65938Q154.63852 228.06563 153.85727 228.06563Q153.07602 228.06563 152.54477 228.65938Q152.02914 229.2375 152.02914 230.44063ZM157.95102 230.44063Q157.95102 228.70625 158.90414 227.87813Q159.70102 227.19063 160.85727 227.19063Q162.13852 227.19063 162.95102 228.03438Q163.77914 228.8625 163.77914 230.34688Q163.77914 231.55 163.41977 232.2375Q163.0604 232.925 162.35727 233.31563Q161.66977 233.69063 160.85727 233.69063Q159.5604 233.69063 158.7479 232.8625Q157.95102 232.01875 157.95102 230.44063ZM159.02914 230.44063Q159.02914 231.62813 159.54477 232.22188Q160.07602 232.81563 160.85727 232.81563Q161.65414 232.81563 162.16977 232.22188Q162.6854 231.62813 162.6854 230.40938Q162.6854 229.25313 162.15414 228.65938Q161.63852 228.06563 160.85727 228.06563Q160.07602 228.06563 159.54477 228.65938Q159.02914 229.2375 159.02914 230.44063ZM167.63852 232.6125L167.79477 233.53438Q167.34164 233.62813 166.9979 233.62813Q166.41977 233.62813 166.10727 233.45625Q165.79477 233.26875 165.65414 232.97188Q165.52914 232.675 165.52914 231.72188L165.52914 228.14375L164.76352 228.14375L164.76352 227.33125L165.52914 227.33125L165.52914 225.78438L166.57602 225.15938L166.57602 227.33125L167.63852 227.33125L167.63852 228.14375L166.57602 228.14375L166.57602 231.78438Q166.57602 232.2375 166.6229 232.3625Q166.6854 232.4875 166.8104 232.56563Q166.9354 232.64375 167.16977 232.64375Q167.35727 232.64375 167.63852 232.6125Z" fill-rule="nonzero"/><path fill="#000000" d="M214.4375 232.62813Q215.23438 233.175 215.89062 233.425L215.5625 234.22188Q214.64062 233.87813 213.71875 233.15938Q212.76562 233.69063 211.60938 233.69063Q210.4375 233.69063 209.48438 233.12813Q208.54688 232.56563 208.03125 231.55Q207.51562 230.53438 207.51562 229.25313Q207.51562 227.9875 208.03125 226.94063Q208.54688 225.89375 209.5 225.34688Q210.45312 224.8 211.625 224.8Q212.8125 224.8 213.76562 225.37813Q214.73438 225.94063 215.23438 226.95625Q215.73438 227.97188 215.73438 229.25313Q215.73438 230.31563 215.40625 231.15938Q215.09375 232.00313 214.4375 232.62813ZM211.9375 231.175Q212.92188 231.45625 213.5625 232.00313Q214.5625 231.08125 214.5625 229.25313Q214.5625 228.20625 214.20312 227.425Q213.84375 226.64375 213.15625 226.22188Q212.48438 225.78438 211.64062 225.78438Q210.35938 225.78438 209.51562 226.65938Q208.6875 227.51875 208.6875 229.25313Q208.6875 230.925 209.51562 231.83125Q210.34375 232.72188 211.64062 232.72188Q212.25 232.72188 212.78125 232.4875Q212.25 232.14375 211.65625 232.00313L211.9375 231.175ZM220.875 233.55L220.875 232.62813Q220.14062 233.69063 218.89062 233.69063Q218.34375 233.69063 217.85938 233.4875Q217.39062 233.26875 217.15625 232.95625Q216.92188 232.62813 216.82812 232.15938Q216.76562 231.8625 216.76562 231.175L216.76562 227.33125L217.82812 227.33125L217.82812 230.78438Q217.82812 231.59688 217.89062 231.89375Q217.98438 232.3 218.29688 232.55Q218.625 232.78438 219.10938 232.78438Q219.57812 232.78438 219.98438 232.55Q220.40625 232.3 220.57812 231.87813Q220.76562 231.45625 220.76562 230.65938L220.76562 227.33125L221.8125 227.33125L221.8125 233.55L220.875 233.55ZM227.85938 232.78438Q227.26562 233.28438 226.71875 233.4875Q226.1875 233.69063 225.5625 233.69063Q224.53125 233.69063 223.98438 233.19063Q223.4375 232.69063 223.4375 231.90938Q223.4375 231.45625 223.64062 231.08125Q223.84375 230.69063 224.1875 230.47188Q224.53125 230.2375 224.95312 230.12813Q225.25 230.03438 225.89062 229.95625Q227.15625 229.81563 227.76562 229.59688Q227.76562 229.37813 227.76562 229.33125Q227.76562 228.675 227.46875 228.40938Q227.0625 228.06563 226.26562 228.06563Q225.53125 228.06563 225.17188 228.33125Q224.8125 228.58125 224.64062 229.2375L223.60938 229.09688Q223.75 228.44063 224.07812 228.03438Q224.40625 227.62813 225.01562 227.40938Q225.625 227.19063 226.42188 227.19063Q227.21875 227.19063 227.71875 227.37813Q228.21875 227.56563 228.45312 227.84688Q228.6875 228.12813 228.78125 228.56563Q228.82812 228.83125 228.82812 229.53438L228.82812 230.94063Q228.82812 232.40938 228.89062 232.8Q228.96875 233.19063 229.17188 233.55L228.0625 233.55Q227.90625 233.22188 227.85938 232.78438ZM227.76562 230.425Q227.1875 230.65938 226.04688 230.83125Q225.39062 230.925 225.125 231.05Q224.85938 231.15938 224.70312 231.37813Q224.5625 231.59688 224.5625 231.87813Q224.5625 232.3 224.875 232.58125Q225.20312 232.8625 225.8125 232.8625Q226.42188 232.8625 226.89062 232.59688Q227.375 232.33125 227.59375 231.8625Q227.76562 231.50313 227.76562 230.81563L227.76562 230.425ZM230.78125 233.55L230.78125 227.33125L231.73438 227.33125L231.73438 228.26875Q232.09375 227.6125 232.39062 227.40938Q232.70312 227.19063 233.07812 227.19063Q233.60938 227.19063 234.15625 227.51875L233.79688 228.50313Q233.40625 228.26875 233.03125 228.26875Q232.67188 228.26875 232.39062 228.4875Q232.125 228.69063 232.01562 229.06563Q231.82812 229.62813 231.82812 230.28438L231.82812 233.55L230.78125 233.55ZM234.79688 233.55L234.79688 224.95625L235.85938 224.95625L235.85938 229.8625L238.34375 227.33125L239.71875 227.33125L237.32812 229.62813L239.95312 233.55L238.65625 233.55L236.59375 230.3625L235.85938 231.08125L235.85938 233.55L234.79688 233.55ZM244.875 233.55L244.875 232.62813Q244.14062 233.69063 242.89062 233.69063Q242.34375 233.69063 241.85938 233.4875Q241.39062 233.26875 241.15625 232.95625Q240.92188 232.62813 240.82812 232.15938Q240.76562 231.8625 240.76562 231.175L240.76562 227.33125L241.82812 227.33125L241.82812 230.78438Q241.82812 231.59688 241.89062 231.89375Q241.98438 232.3 242.29688 232.55Q242.625 232.78438 243.10938 232.78438Q243.57812 232.78438 243.98438 232.55Q244.40625 232.3 244.57812 231.87813Q244.76562 231.45625 244.76562 230.65938L244.76562 227.33125L245.8125 227.33125L245.8125 233.55L244.875 233.55ZM247.375 231.69063L248.40625 231.53438Q248.5 232.15938 248.89062 232.4875Q249.29688 232.81563 250.03125 232.81563Q250.75 232.81563 251.09375 232.53438Q251.45312 232.2375 251.45312 231.83125Q251.45312 231.47188 251.14062 231.26875Q250.92188 231.12813 250.0625 230.90938Q248.90625 230.6125 248.45312 230.40938Q248.01562 230.19063 247.78125 229.81563Q247.54688 229.44063 247.54688 228.97188Q247.54688 228.56563 247.73438 228.20625Q247.92188 227.84688 248.25 227.6125Q248.5 227.44063 248.92188 227.31563Q249.34375 227.19063 249.84375 227.19063Q250.5625 227.19063 251.10938 227.40938Q251.67188 227.6125 251.9375 227.97188Q252.20312 228.33125 252.29688 228.925L251.26562 229.06563Q251.20312 228.59688 250.85938 228.33125Q250.53125 228.05 249.90625 228.05Q249.1875 228.05 248.875 228.3Q248.5625 228.53438 248.5625 228.8625Q248.5625 229.06563 248.6875 229.22188Q248.82812 229.39375 249.09375 229.50313Q249.25 229.56563 250.03125 229.76875Q251.15625 230.08125 251.59375 230.26875Q252.03125 230.45625 252.28125 230.81563Q252.53125 231.175 252.53125 231.72188Q252.53125 232.25313 252.21875 232.72188Q251.92188 233.175 251.34375 233.44063Q250.76562 233.69063 250.03125 233.69063Q248.8125 233.69063 248.17188 233.19063Q247.54688 232.675 247.375 231.69063Z" fill-rule="nonzero"/><path fill="#000000" d="M291.89273 232.62813Q292.6896 233.175 293.34586 233.425L293.01773 234.22188Q292.09586 233.87813 291.17398 233.15938Q290.22086 233.69063 289.0646 233.69063Q287.89273 233.69063 286.9396 233.12813Q286.0021 232.56563 285.48648 231.55Q284.97086 230.53438 284.97086 229.25313Q284.97086 227.9875 285.48648 226.94063Q286.0021 225.89375 286.95523 225.34688Q287.90836 224.8 289.08023 224.8Q290.26773 224.8 291.22086 225.37813Q292.1896 225.94063 292.6896 226.95625Q293.1896 227.97188 293.1896 229.25313Q293.1896 230.31563 292.86148 231.15938Q292.54898 232.00313 291.89273 232.62813ZM289.39273 231.175Q290.3771 231.45625 291.01773 232.00313Q292.01773 231.08125 292.01773 229.25313Q292.01773 228.20625 291.65836 227.425Q291.29898 226.64375 290.61148 226.22188Q289.9396 225.78438 289.09586 225.78438Q287.8146 225.78438 286.97086 226.65938Q286.14273 227.51875 286.14273 229.25313Q286.14273 230.925 286.97086 231.83125Q287.79898 232.72188 289.09586 232.72188Q289.70523 232.72188 290.23648 232.4875Q289.70523 232.14375 289.11148 232.00313L289.39273 231.175ZM298.33023 233.55L298.33023 232.62813Q297.59586 233.69063 296.34586 233.69063Q295.79898 233.69063 295.3146 233.4875Q294.84586 233.26875 294.61148 232.95625Q294.3771 232.62813 294.28336 232.15938Q294.22086 231.8625 294.22086 231.175L294.22086 227.33125L295.28336 227.33125L295.28336 230.78438Q295.28336 231.59688 295.34586 231.89375Q295.4396 232.3 295.7521 232.55Q296.08023 232.78438 296.5646 232.78438Q297.03336 232.78438 297.4396 232.55Q297.86148 232.3 298.03336 231.87813Q298.22086 231.45625 298.22086 230.65938L298.22086 227.33125L299.26773 227.33125L299.26773 233.55L298.33023 233.55ZM305.3146 232.78438Q304.72086 233.28438 304.17398 233.4875Q303.64273 233.69063 303.01773 233.69063Q301.98648 233.69063 301.4396 233.19063Q300.89273 232.69063 300.89273 231.90938Q300.89273 231.45625 301.09586 231.08125Q301.29898 230.69063 301.64273 230.47188Q301.98648 230.2375 302.40836 230.12813Q302.70523 230.03438 303.34586 229.95625Q304.61148 229.81563 305.22086 229.59688Q305.22086 229.37813 305.22086 229.33125Q305.22086 228.675 304.92398 228.40938Q304.51773 228.06563 303.72086 228.06563Q302.98648 228.06563 302.6271 228.33125Q302.26773 228.58125 302.09586 229.2375L301.0646 229.09688Q301.20523 228.44063 301.53336 228.03438Q301.86148 227.62813 302.47086 227.40938Q303.08023 227.19063 303.8771 227.19063Q304.67398 227.19063 305.17398 227.37813Q305.67398 227.56563 305.90836 227.84688Q306.14273 228.12813 306.23648 228.56563Q306.28336 228.83125 306.28336 229.53438L306.28336 230.94063Q306.28336 232.40938 306.34586 232.8Q306.42398 233.19063 306.6271 233.55L305.51773 233.55Q305.36148 233.22188 305.3146 232.78438ZM305.22086 230.425Q304.64273 230.65938 303.5021 230.83125Q302.84586 230.925 302.58023 231.05Q302.3146 231.15938 302.15836 231.37813Q302.01773 231.59688 302.01773 231.87813Q302.01773 232.3 302.33023 232.58125Q302.65836 232.8625 303.26773 232.8625Q303.8771 232.8625 304.34586 232.59688Q304.83023 232.33125 305.04898 231.8625Q305.22086 231.50313 305.22086 230.81563L305.22086 230.425ZM308.23648 233.55L308.23648 227.33125L309.1896 227.33125L309.1896 228.26875Q309.54898 227.6125 309.84586 227.40938Q310.15836 227.19063 310.53336 227.19063Q311.0646 227.19063 311.61148 227.51875L311.2521 228.50313Q310.86148 228.26875 310.48648 228.26875Q310.1271 228.26875 309.84586 228.4875Q309.58023 228.69063 309.47086 229.06563Q309.28336 229.62813 309.28336 230.28438L309.28336 233.55L308.23648 233.55ZM312.2521 233.55L312.2521 224.95625L313.3146 224.95625L313.3146 229.8625L315.79898 227.33125L317.17398 227.33125L314.78336 229.62813L317.40836 233.55L316.11148 233.55L314.04898 230.3625L313.3146 231.08125L313.3146 233.55L312.2521 233.55ZM322.33023 233.55L322.33023 232.62813Q321.59586 233.69063 320.34586 233.69063Q319.79898 233.69063 319.3146 233.4875Q318.84586 233.26875 318.61148 232.95625Q318.3771 232.62813 318.28336 232.15938Q318.22086 231.8625 318.22086 231.175L318.22086 227.33125L319.28336 227.33125L319.28336 230.78438Q319.28336 231.59688 319.34586 231.89375Q319.4396 232.3 319.7521 232.55Q320.08023 232.78438 320.5646 232.78438Q321.03336 232.78438 321.4396 232.55Q321.86148 232.3 322.03336 231.87813Q322.22086 231.45625 322.22086 230.65938L322.22086 227.33125L323.26773 227.33125L323.26773 233.55L322.33023 233.55ZM324.83023 231.69063L325.86148 231.53438Q325.95523 232.15938 326.34586 232.4875Q326.7521 232.81563 327.48648 232.81563Q328.20523 232.81563 328.54898 232.53438Q328.90836 232.2375 328.90836 231.83125Q328.90836 231.47188 328.59586 231.26875Q328.3771 231.12813 327.51773 230.90938Q326.36148 230.6125 325.90836 230.40938Q325.47086 230.19063 325.23648 229.81563Q325.0021 229.44063 325.0021 228.97188Q325.0021 228.56563 325.1896 228.20625Q325.3771 227.84688 325.70523 227.6125Q325.95523 227.44063 326.3771 227.31563Q326.79898 227.19063 327.29898 227.19063Q328.01773 227.19063 328.5646 227.40938Q329.1271 227.6125 329.39273 227.97188Q329.65836 228.33125 329.7521 228.925L328.72086 229.06563Q328.65836 228.59688 328.3146 228.33125Q327.98648 228.05 327.36148 228.05Q326.64273 228.05 326.33023 228.3Q326.01773 228.53438 326.01773 228.8625Q326.01773 229.06563 326.14273 229.22188Q326.28336 229.39375 326.54898 229.50313Q326.70523 229.56563 327.48648 229.76875Q328.61148 230.08125 329.04898 230.26875Q329.48648 230.45625 329.73648 230.81563Q329.98648 231.175 329.98648 231.72188Q329.98648 232.25313 329.67398 232.72188Q329.3771 233.175 328.79898 233.44063Q328.22086 233.69063 327.48648 233.69063Q326.26773 233.69063 325.6271 233.19063Q325.0021 232.675 324.83023 231.69063ZM335.2521 233.55L335.2521 227.33125L336.1896 227.33125L336.1896 228.20625Q336.8771 227.19063 338.17398 227.19063Q338.73648 227.19063 339.20523 227.39375Q339.6896 227.59688 339.92398 227.925Q340.15836 228.25313 340.2521 228.69063Q340.29898 228.9875 340.29898 229.72188L340.29898 233.55L339.2521 233.55L339.2521 229.76875Q339.2521 229.1125 339.1271 228.8Q339.0021 228.4875 338.6896 228.3Q338.3771 228.09688 337.95523 228.09688Q337.28336 228.09688 336.78336 228.53438Q336.29898 228.95625 336.29898 230.14375L336.29898 233.55L335.2521 233.55ZM346.3146 232.78438Q345.72086 233.28438 345.17398 233.4875Q344.64273 233.69063 344.01773 233.69063Q342.98648 233.69063 342.4396 233.19063Q341.89273 232.69063 341.89273 231.90938Q341.89273 231.45625 342.09586 231.08125Q342.29898 230.69063 342.64273 230.47188Q342.98648 230.2375 343.40836 230.12813Q343.70523 230.03438 344.34586 229.95625Q345.61148 229.81563 346.22086 229.59688Q346.22086 229.37813 346.22086 229.33125Q346.22086 228.675 345.92398 228.40938Q345.51773 228.06563 344.72086 228.06563Q343.98648 228.06563 343.6271 228.33125Q343.26773 228.58125 343.09586 229.2375L342.0646 229.09688Q342.20523 228.44063 342.53336 228.03438Q342.86148 227.62813 343.47086 227.40938Q344.08023 227.19063 344.8771 227.19063Q345.67398 227.19063 346.17398 227.37813Q346.67398 227.56563 346.90836 227.84688Q347.14273 228.12813 347.23648 228.56563Q347.28336 228.83125 347.28336 229.53438L347.28336 230.94063Q347.28336 232.40938 347.34586 232.8Q347.42398 233.19063 347.6271 233.55L346.51773 233.55Q346.36148 233.22188 346.3146 232.78438ZM346.22086 230.425Q345.64273 230.65938 344.5021 230.83125Q343.84586 230.925 343.58023 231.05Q343.3146 231.15938 343.15836 231.37813Q343.01773 231.59688 343.01773 231.87813Q343.01773 232.3 343.33023 232.58125Q343.65836 232.8625 344.26773 232.8625Q344.8771 232.8625 345.34586 232.59688Q345.83023 232.33125 346.04898 231.8625Q346.22086 231.50313 346.22086 230.81563L346.22086 230.425ZM351.54898 232.6125L351.70523 233.53438Q351.2521 233.62813 350.90836 233.62813Q350.33023 233.62813 350.01773 233.45625Q349.70523 233.26875 349.5646 232.97188Q349.4396 232.675 349.4396 231.72188L349.4396 228.14375L348.67398 228.14375L348.67398 227.33125L349.4396 227.33125L349.4396 225.78438L350.48648 225.15938L350.48648 227.33125L351.54898 227.33125L351.54898 228.14375L350.48648 228.14375L350.48648 231.78438Q350.48648 232.2375 350.53336 232.3625Q350.59586 232.4875 350.72086 232.56563Q350.84586 232.64375 351.08023 232.64375Q351.26773 232.64375 351.54898 232.6125ZM352.2521 226.175L352.2521 224.95625L353.3146 224.95625L353.3146 226.175L352.2521 226.175ZM352.2521 233.55L352.2521 227.33125L353.3146 227.33125L353.3146 233.55L352.2521 233.55ZM356.97086 233.55L354.61148 227.33125L355.72086 227.33125L357.0646 231.05Q357.26773 231.65938 357.45523 232.3Q357.59586 231.81563 357.84586 231.12813L359.23648 227.33125L360.3146 227.33125L357.95523 233.55L356.97086 233.55ZM364.5021 231.55L365.59586 231.675Q365.34586 232.62813 364.64273 233.15938Q363.9396 233.69063 362.86148 233.69063Q361.5021 233.69063 360.6896 232.84688Q359.89273 232.00313 359.89273 230.4875Q359.89273 228.925 360.70523 228.06563Q361.51773 227.19063 362.79898 227.19063Q364.04898 227.19063 364.83023 228.03438Q365.6271 228.87813 365.6271 230.425Q365.6271 230.51875 365.6271 230.70625L360.98648 230.70625Q361.04898 231.7375 361.5646 232.28438Q362.08023 232.81563 362.86148 232.81563Q363.4396 232.81563 363.84586 232.51875Q364.26773 232.20625 364.5021 231.55ZM361.04898 229.84688L364.51773 229.84688Q364.45523 229.05 364.1271 228.65938Q363.61148 228.05 362.8146 228.05Q362.08023 228.05 361.58023 228.53438Q361.09586 229.01875 361.04898 229.84688Z" fill-rule="nonzero"/><path fill="#757575" d="M13.35625 26.85625L15.1375 26.7Q15.2625 27.7625 15.715625 28.45Q16.184376 29.1375 17.153126 29.575Q18.1375 29.996876 19.371876 29.996876Q20.45 29.996876 21.278126 29.684376Q22.10625 29.35625 22.5125 28.79375Q22.91875 28.23125 22.91875 27.559376Q22.91875 26.8875 22.528126 26.3875Q22.1375 25.8875 21.246876 25.54375Q20.66875 25.309376 18.684376 24.840626Q16.715626 24.371876 15.934375 23.95Q14.903125 23.41875 14.403125 22.621876Q13.903125 21.825 13.903125 20.840626Q13.903125 19.746876 14.5125 18.809376Q15.121875 17.871876 16.309376 17.3875Q17.496876 16.8875 18.934376 16.8875Q20.528126 16.8875 21.746876 17.403126Q22.965626 17.91875 23.60625 18.91875Q24.2625 19.903126 24.309376 21.16875L22.496876 21.309376Q22.35625 19.95 21.5125 19.2625Q20.66875 18.559376 19.0125 18.559376Q17.29375 18.559376 16.496876 19.2Q15.715625 19.825 15.715625 20.7Q15.715625 21.48125 16.278126 21.98125Q16.825 22.48125 19.1375 22.996876Q21.45 23.5125 22.309376 23.903126Q23.559376 24.48125 24.153126 25.371876Q24.746876 26.246876 24.746876 27.403126Q24.746876 28.54375 24.090626 29.559376Q23.434376 30.575 22.2 31.1375Q20.98125 31.7 19.45 31.7Q17.5125 31.7 16.2 31.1375Q14.8875 30.559376 14.1375 29.41875Q13.3875 28.278126 13.35625 26.85625ZM30.60625 29.871876L30.85625 31.434376Q30.121876 31.590626 29.528126 31.590626Q28.575 31.590626 28.04375 31.29375Q27.528126 30.98125 27.309376 30.496876Q27.090626 29.996876 27.090626 28.41875L27.090626 22.45L25.809376 22.45L25.809376 21.075L27.090626 21.075L27.090626 18.5125L28.840626 17.45L28.840626 21.075L30.60625 21.075L30.60625 22.45L28.840626 22.45L28.840626 28.5125Q28.840626 29.2625 28.934376 29.48125Q29.028126 29.684376 29.23125 29.825Q29.45 29.95 29.840626 29.95Q30.121876 29.95 30.60625 29.871876ZM39.54375 30.16875Q38.559376 30.996876 37.653126 31.340626Q36.746876 31.684376 35.715626 31.684376Q34.0125 31.684376 33.090626 30.85625Q32.16875 30.0125 32.16875 28.715626Q32.16875 27.95 32.5125 27.325Q32.871876 26.7 33.434376 26.325Q33.996876 25.934376 34.7 25.73125Q35.215626 25.60625 36.2625 25.465626Q38.3875 25.215626 39.3875 24.871876Q39.403126 24.5125 39.403126 24.403126Q39.403126 23.340626 38.903126 22.8875Q38.23125 22.29375 36.903126 22.29375Q35.653126 22.29375 35.059376 22.73125Q34.48125 23.16875 34.2 24.278126L32.48125 24.04375Q32.715626 22.934376 33.246876 22.2625Q33.778126 21.575 34.79375 21.215626Q35.809376 20.840626 37.153126 20.840626Q38.48125 20.840626 39.309376 21.153126Q40.1375 21.465626 40.528126 21.95Q40.91875 22.41875 41.075 23.1375Q41.16875 23.590626 41.16875 24.7625L41.16875 27.10625Q41.16875 29.559376 41.278126 30.215626Q41.3875 30.85625 41.73125 31.45L39.8875 31.45Q39.621876 30.903126 39.54375 30.16875ZM39.3875 26.246876Q38.434376 26.6375 36.5125 26.903126Q35.434376 27.059376 34.98125 27.2625Q34.54375 27.45 34.29375 27.825Q34.04375 28.2 34.04375 28.66875Q34.04375 29.371876 34.575 29.840626Q35.10625 30.309376 36.1375 30.309376Q37.153126 30.309376 37.934376 29.871876Q38.73125 29.41875 39.10625 28.653126Q39.3875 28.04375 39.3875 26.8875L39.3875 26.246876ZM43.746876 31.45L43.746876 21.075L45.325 21.075L45.325 22.653126Q45.934376 21.54375 46.45 21.2Q46.965626 20.840626 47.575 20.840626Q48.465626 20.840626 49.3875 21.403126L48.778126 23.04375Q48.1375 22.653126 47.496876 22.653126Q46.91875 22.653126 46.45 23.0125Q45.996876 23.35625 45.79375 23.965626Q45.5125 24.903126 45.5125 26.0125L45.5125 31.45L43.746876 31.45ZM54.60625 29.871876L54.85625 31.434376Q54.121876 31.590626 53.528126 31.590626Q52.575 31.590626 52.04375 31.29375Q51.528126 30.98125 51.309376 30.496876Q51.090626 29.996876 51.090626 28.41875L51.090626 22.45L49.809376 22.45L49.809376 21.075L51.090626 21.075L51.090626 18.5125L52.840626 17.45L52.840626 21.075L54.60625 21.075L54.60625 22.45L52.840626 22.45L52.840626 28.5125Q52.840626 29.2625 52.934376 29.48125Q53.028126 29.684376 53.23125 29.825Q53.45 29.95 53.840626 29.95Q54.121876 29.95 54.60625 29.871876ZM63.559376 31.45L63.559376 29.91875Q62.35625 31.684376 60.278126 31.684376Q59.35625 31.684376 58.559376 31.340626Q57.7625 30.98125 57.371876 30.45Q56.996876 29.91875 56.840626 29.1375Q56.73125 28.621876 56.73125 27.496876L56.73125 21.075L58.48125 21.075L58.48125 26.825Q58.48125 28.2 58.590626 28.684376Q58.7625 29.371876 59.29375 29.778126Q59.840626 30.16875 60.621876 30.16875Q61.41875 30.16875 62.10625 29.7625Q62.809376 29.35625 63.090626 28.66875Q63.3875 27.965626 63.3875 26.6375L63.3875 21.075L65.1375 21.075L65.1375 31.45L63.559376 31.45ZM66.7625 35.41875L66.7625 21.075L68.37187 21.075L68.37187 22.41875Q68.93437 21.6375 69.6375 21.246876Q70.35625 20.840626 71.37187 20.840626Q72.7 20.840626 73.71562 21.528126Q74.73125 22.215626 75.24687 23.465626Q75.77812 24.7 75.77812 26.184376Q75.77812 27.778126 75.2 29.059376Q74.6375 30.325 73.54375 31.0125Q72.45 31.684376 71.24687 31.684376Q70.37187 31.684376 69.66875 31.309376Q68.98125 30.934376 68.52812 30.371876L68.52812 35.41875L66.7625 35.41875ZM68.35625 26.325Q68.35625 28.325 69.16875 29.278126Q69.98125 30.23125 71.1375 30.23125Q72.30937 30.23125 73.1375 29.246876Q73.98125 28.2625 73.98125 26.16875Q73.98125 24.2 73.15312 23.215626Q72.34062 22.215626 71.21562 22.215626Q70.09062 22.215626 69.21562 23.278126Q68.35625 24.325 68.35625 26.325ZM87.6375 31.45L87.6375 18.825L82.91875 18.825L82.91875 17.1375L94.2625 17.1375L94.2625 18.825L89.52812 18.825L89.52812 31.45L87.6375 31.45ZM95.77812 19.153126L95.77812 17.1375L97.54375 17.1375L97.54375 19.153126L95.77812 19.153126ZM95.77812 31.45L95.77812 21.075L97.54375 21.075L97.54375 31.45L95.77812 31.45ZM99.7625 31.45L99.7625 21.075L101.34062 21.075L101.34062 22.528126Q101.825 21.778126 102.6375 21.309376Q103.45 20.840626 104.48125 20.840626Q105.6375 20.840626 106.37187 21.325Q107.10625 21.79375 107.41875 22.653126Q108.65312 20.840626 110.62187 20.840626Q112.16875 20.840626 112.99687 21.7Q113.825 22.559376 113.825 24.325L113.825 31.45L112.075 31.45L112.075 24.91875Q112.075 23.85625 111.90312 23.403126Q111.73125 22.934376 111.27812 22.653126Q110.84062 22.371876 110.23125 22.371876Q109.1375 22.371876 108.40312 23.10625Q107.68437 23.825 107.68437 25.41875L107.68437 31.45L105.93437 31.45L105.93437 24.715626Q105.93437 23.54375 105.49687 22.965626Q105.075 22.371876 104.09062 22.371876Q103.35625 22.371876 102.71562 22.7625Q102.09062 23.153126 101.80937 23.903126Q101.52812 24.653126 101.52812 26.075L101.52812 31.45L99.7625 31.45ZM122.87187 28.10625L124.68437 28.340626Q124.2625 29.91875 123.09062 30.809376Q121.93437 31.684376 120.12187 31.684376Q117.85625 31.684376 116.5125 30.29375Q115.18437 28.8875 115.18437 26.35625Q115.18437 23.73125 116.52812 22.29375Q117.87187 20.840626 120.02812 20.840626Q122.10625 20.840626 123.41875 22.2625Q124.74687 23.66875 124.74687 26.246876Q124.74687 26.403126 124.73125 26.715626L116.99687 26.715626Q117.09062 28.41875 117.96562 29.325Q118.84062 30.23125 120.1375 30.23125Q121.10625 30.23125 121.77812 29.73125Q122.46562 29.215626 122.87187 28.10625ZM117.09062 25.2625L122.8875 25.2625Q122.77812 23.965626 122.23125 23.309376Q121.3875 22.29375 120.04375 22.29375Q118.84062 22.29375 118.0125 23.10625Q117.18437 23.903126 117.09062 25.2625Z" fill-rule="nonzero"/></svg>